<?xml version="1.0" encoding="UTF-8" standalone="no"?>
<!-- Created with Inkscape (http://www.inkscape.org/) -->

<svg
   width="20.32mm"
   height="128.5mm"
   viewBox="0 0 20.319999 128.5"
   version="1.1"
   id="svg1"
   inkscape:version="1.3 (0e150ed6c4, 2023-07-21)"
   sodipodi:docname="clwyd-dark.svg"
   xmlns:inkscape="http://www.inkscape.org/namespaces/inkscape"
   xmlns:sodipodi="http://sodipodi.sourceforge.net/DTD/sodipodi-0.dtd"
   xmlns="http://www.w3.org/2000/svg"
   xmlns:svg="http://www.w3.org/2000/svg">
  <sodipodi:namedview
     id="namedview1"
     pagecolor="#ffffff"
     bordercolor="#000000"
     borderopacity="0.25"
     inkscape:showpageshadow="2"
     inkscape:pageopacity="0.0"
     inkscape:pagecheckerboard="0"
     inkscape:deskcolor="#d1d1d1"
     inkscape:document-units="mm"
     showgrid="true"
     inkscape:zoom="3.0564115"
     inkscape:cx="-4.7441256"
     inkscape:cy="136.76169"
     inkscape:window-width="1769"
     inkscape:window-height="1278"
     inkscape:window-x="456"
     inkscape:window-y="456"
     inkscape:window-maximized="0"
     inkscape:current-layer="layer1">
    <inkscape:grid
       id="grid1"
       units="mm"
       originx="0"
       originy="0"
       spacingx="2.5399999"
       spacingy="2.5399999"
       empcolor="#0099e5"
       empopacity="0.30196078"
       color="#0099e5"
       opacity="0.14901961"
       empspacing="5"
       dotted="false"
       gridanglex="30"
       gridanglez="30"
       visible="true" />
  </sodipodi:namedview>
  <defs
     id="defs1" />
  <g
     inkscape:label="Layer 1"
     inkscape:groupmode="layer"
     id="layer1">
    <rect
       style="fill:#1a1a1a;stroke-width:0.264583"
       id="rect1"
       width="20.319998"
       height="128.5"
       x="0"
       y="0" />
    <circle
       style="fill:#4d4d4d;stroke-width:0.264583;stroke:#000000;stroke-opacity:1"
       id="path1"
       cx="6.3499999"
       cy="120.64999"
       r="3.8099999" />
    <circle
       style="fill:#cccccc;stroke-width:0.265;stroke:#000000;stroke-opacity:1;stroke-dasharray:none"
       id="path2"
       cx="6.3499999"
       cy="19.049999"
       r="3.8099999" />
    <circle
       style="fill:#cccccc;stroke-width:0.264583;stroke:#000000;stroke-opacity:1"
       id="path4"
       cx="6.3499999"
       cy="41.909996"
       r="3.8099999" />
    <path
       d="m 3.4686172,16.552009 -1.679856,-0.699728 0.2048983,-0.217 0.9779837,0.425637 q 0.068226,0.02949 0.1501732,0.06756 0.081948,0.03808 0.154919,0.07641 0.070663,0.03616 0.1164467,0.06629 l 0.00872,-0.0092 q -0.030526,-0.04629 -0.07298,-0.116944 -0.040275,-0.07296 -0.082987,-0.152593 -0.040532,-0.08194 -0.073753,-0.143874 l -0.4809963,-0.951977 0.2048983,-0.217 0.7926899,1.639293 z m 0.9090036,-2.679465 q 0.2902868,-0.112017 0.4786565,-0.03837 0.1883696,0.07365 0.2958147,0.352086 l 0.4172073,1.081171 -0.1895751,0.07315 -0.1372264,-0.205689 -0.011849,0.0046 q -0.05338,0.170339 -0.144899,0.277122 -0.088557,0.105639 -0.28998,0.183366 -0.2162341,0.08344 -0.4018506,0.02575 -0.1867597,-0.06066 -0.2804884,-0.303549 -0.091443,-0.236969 0.04602,-0.436351 0.1363195,-0.202344 0.5197839,-0.36393 l 0.2661229,-0.112902 -0.036577,-0.09479 q -0.076583,-0.198461 -0.1922034,-0.242328 -0.11562,-0.04387 -0.2726119,0.01671 -0.1244086,0.04801 -0.2221094,0.12995 -0.098844,0.07898 -0.1783049,0.164094 L 3.8881341,14.217976 q 0.081956,-0.09629 0.2092781,-0.189659 0.1261788,-0.09633 0.2802086,-0.155773 z m 0.4039224,0.817445 q -0.2916389,0.126151 -0.3751563,0.253669 -0.080555,0.126374 -0.02226,0.277442 0.051436,0.133295 0.1554172,0.164637 0.1069428,0.0302 0.2343135,-0.01895 0.2014236,-0.07773 0.2924263,-0.238761 0.08986,-0.163996 7.031e-4,-0.395041 l -0.054866,-0.142181 z m 1.6062439,0.547633 -0.2792999,0.0075 -0.064587,-2.412136 0.2792999,-0.0075 z m 2.4624577,-1.150941 -0.5648252,1.605334 -0.2156418,-0.07587 0.035883,-0.226346 -0.01198,-0.0042 q -0.1221293,0.09839 -0.280976,0.109819 -0.157793,0.0084 -0.3135343,-0.04636 Q 7.2086529,15.34682 7.1103704,15.157414 7.0131418,14.965012 7.1206272,14.65952 l 0.3698761,-1.051254 0.2665573,0.09379 -0.3635535,1.033284 q -0.1348837,0.383363 0.2215243,0.508763 0.2665573,0.09379 0.4210771,-0.02014 0.1575148,-0.112869 0.2565699,-0.394401 l 0.2940042,-0.835612 z m 1.6151452,1.249087 q 0.147709,0.16179 0.182261,0.340905 0.03669,0.18146 -0.03661,0.360164 -0.06882,0.178907 -0.239987,0.335179 L 10.246777,16.485473 9.4611368,15.62494 q -0.2090934,0.199494 -0.2274515,0.405418 -0.013873,0.206129 0.1573843,0.393711 0.1091762,0.119584 0.2137669,0.191764 0.1090762,0.07238 0.241192,0.132332 L 9.6654806,16.912999 Q 9.5355055,16.855396 9.4311188,16.778731 9.3243874,16.704206 9.2066484,16.575243 9.0439544,16.39704 8.9903406,16.192336 q -0.051473,-0.202359 0.020915,-0.41032 0.076874,-0.207757 0.2855588,-0.39828 0.2063405,-0.188383 0.4161421,-0.255249 0.2119423,-0.06452 0.4051226,-0.01303 0.195321,0.05383 0.347311,0.220313 z m -0.170965,0.151786 q -0.134864,-0.147721 -0.3102066,-0.146708 -0.1708567,0.0012 -0.3546657,0.138934 l 0.5844143,0.640124 q 0.157304,-0.147913 0.189422,-0.310511 0.03446,-0.164739 -0.108964,-0.321839 z"
       id="text1"
       style="font-size:3.175px;stroke-width:0.465;fill:#ffffff"
       aria-label="                 value" />
    <path
       d="m 4.406986,38.046889 q 0.141732,0.203083 0.063405,0.412618 -0.078327,0.209536 -0.3334823,0.387609 -0.145803,0.101756 -0.2689052,0.152824 -0.1204987,0.04925 -0.2302843,0.06392 l -0.1453661,-0.20829 q 0.1123892,-0.01649 0.2549914,-0.06181 0.1433887,-0.04974 0.265759,-0.135141 0.1744428,-0.121744 0.214393,-0.230933 0.038133,-0.111792 -0.027282,-0.205522 -0.036341,-0.05207 -0.094055,-0.07374 -0.057713,-0.02167 -0.1622914,-0.01063 -0.1019747,0.0092 -0.2763083,0.05345 -0.17173,0.04242 -0.3044056,0.05757 -0.1326757,0.01516 -0.2356263,-0.0214 -0.1029506,-0.03656 -0.1829019,-0.151119 -0.1235612,-0.177047 -0.047594,-0.37332 0.078571,-0.198091 0.3128973,-0.361627 0.1275776,-0.08904 0.2551006,-0.139318 0.1283095,-0.0547 0.2555339,-0.07767 l 0.049087,0.236766 q -0.1139623,0.02533 -0.2284672,0.06652 -0.1145048,0.0412 -0.2160462,0.112062 -0.1405957,0.09812 -0.1833934,0.197683 -0.042011,0.09514 0.012501,0.173248 0.039976,0.05728 0.102896,0.07532 0.061103,0.01543 0.1664681,-2.6e-5 0.1061515,-0.01988 0.2752778,-0.06048 0.1673093,-0.0432 0.2973813,-0.05654 0.130072,-0.01334 0.2322361,0.02764 0.1003469,0.03838 0.1784812,0.150333 z m 0.6819122,-1.523067 q 0.019215,0.125538 0.020336,0.237785 l 0.018831,-0.0029 q 0.061904,-0.141166 0.1899077,-0.228211 0.1311422,-0.08752 0.2943415,-0.112504 0.3075679,-0.04708 0.4839299,0.07689 0.1758815,0.12083 0.2253608,0.44409 l 0.1676533,1.095318 -0.2730451,0.04179 -0.1647709,-1.076488 q -0.061969,-0.40486 -0.4385831,-0.347214 -0.2824603,0.04323 -0.3646681,0.219628 -0.07955,0.172775 -0.034394,0.467789 l 0.1330658,0.86935 -0.2761835,0.04227 -0.3650902,-2.385221 0.2761835,-0.04227 z m 2.566094,-0.623751 q 0.062061,0.01344 0.099197,0.06697 0.040911,0.05109 0.02142,0.141082 -0.018819,0.08689 -0.077878,0.119574 -0.055955,0.03336 -0.1180162,0.01992 -0.068267,-0.01479 -0.105403,-0.06831 -0.037136,-0.05352 -0.018317,-0.140409 0.019491,-0.08999 0.074775,-0.120246 0.055955,-0.03336 0.1242223,-0.01858 z m -0.00166,0.652613 -0.3602541,1.663232 -0.2730679,-0.05915 0.3602541,-1.663232 z m 1.5217538,0.849148 -0.3832755,-0.191883 -0.6651966,1.328688 -0.2498388,-0.12508 0.6651966,-1.328688 -0.2668732,-0.133608 0.058276,-0.116402 0.3095141,0.04843 0.044062,-0.08801 q 0.1478215,-0.295264 0.3423802,-0.35764 0.1959802,-0.06522 0.4287845,0.05134 0.090851,0.04548 0.1561383,0.09947 0.069548,0.05257 0.1135412,0.09945 L 9.5644177,36.85111 q -0.038318,-0.03694 -0.090832,-0.08098 -0.052514,-0.04404 -0.1149735,-0.07531 -0.1249194,-0.06254 -0.2300199,-0.0086 -0.1008401,0.05248 -0.1903858,0.231347 l -0.049748,0.09937 0.3832755,0.191884 z m 0.1218689,1.780417 q 0.046117,0.04365 0.101088,0.08257 0.057153,0.03661 0.09586,0.05576 L 9.3476657,39.47507 q -0.04756,-0.01441 -0.1162427,-0.06194 -0.070865,-0.04522 -0.1262058,-0.0976 -0.096846,-0.09167 -0.149301,-0.202523 -0.047966,-0.110978 -0.020123,-0.242006 0.027844,-0.131027 0.1697113,-0.280908 l 0.6809639,-0.719428 -0.1752452,-0.165876 0.091668,-0.09685 0.2539413,0.08735 0.3295188,-0.186478 0.119905,0.113494 -0.268457,0.283621 0.357408,0.338299 -0.148415,0.156798 -0.3574085,-0.338299 -0.6765987,0.714816 q -0.1069463,0.112987 -0.1062934,0.218527 0.00514,0.105417 0.090458,0.186172 z"
       id="text2"
       style="font-size:3.175px;stroke-width:0.465;fill:#ffffff"
       aria-label="                  shift" />
    <path
       d="m 3.5279983,115.87737 q 0.2675413,-0.16499 0.5446809,-0.0785 0.279842,0.0848 0.5114952,0.46045 0.2283201,0.37023 0.1817979,0.66377 -0.04382,0.29186 -0.3140636,0.45852 -0.1675511,0.10333 -0.3166822,0.1095 -0.1480952,0.002 -0.2619149,-0.0436 l -0.016215,0.01 q 0.033736,0.0426 0.082472,0.10954 0.048736,0.0669 0.080401,0.11827 l 0.3666453,0.59454 -0.2378145,0.14666 -1.2932582,-2.09709 0.1945755,-0.12 0.1540888,0.17728 0.01081,-0.007 q 0.00653,-0.13459 0.071926,-0.26444 0.065397,-0.12985 0.2410559,-0.23818 z m 0.080087,0.22664 q -0.2215999,0.13666 -0.2368205,0.31764 -0.012518,0.17931 0.1387345,0.43667 l 0.028332,0.0459 q 0.1649905,0.26754 0.3414633,0.36014 0.1775086,0.0882 0.4153231,-0.0584 0.1324195,-0.0817 0.1711976,-0.20629 0.041481,-0.1263 0.00535,-0.27561 -0.03509,-0.15368 -0.135084,-0.31583 -0.1533244,-0.24862 -0.3422735,-0.33726 -0.1862467,-0.0903 -0.3862271,0.033 z m 3.3256824,-0.14825 q 0.018539,0.42187 -0.1869781,0.66289 -0.2023447,0.2409 -0.5671177,0.25692 -0.2252076,0.01 -0.4072966,-0.0838 -0.1790564,-0.097 -0.2892004,-0.2892 -0.1102834,-0.19537 -0.1226888,-0.47768 -0.018539,-0.42186 0.1839456,-0.65958 0.2024841,-0.23772 0.567257,-0.25375 0.2315516,-0.0102 0.410608,0.0868 0.1820889,0.0937 0.289061,0.28604 0.1100046,0.18902 0.12241,0.47133 z m -1.2846352,0.0564 q 0.013242,0.30133 0.1384091,0.4738 0.1282,0.16916 0.388299,0.15773 0.256927,-0.0113 0.3697944,-0.19104 0.1127281,-0.18292 0.099486,-0.48426 -0.013242,-0.30133 -0.1413023,-0.46732 -0.1280605,-0.16599 -0.3881595,-0.15456 -0.260099,0.0114 -0.3699339,0.18787 -0.1098348,0.17644 -0.096593,0.47778 z m 2.0170057,1.0596 -0.265582,-0.0868 0.7494527,-2.29367 0.265582,0.0868 z m 1.3082301,-1.33538 0.2401243,0.17724 -0.2787517,0.99784 q -0.037102,0.13047 -0.076211,0.24761 -0.037224,0.11459 -0.084118,0.2102 l 0.010218,0.008 q 0.062464,-0.0525 0.1710928,-0.13022 0.1105138,-0.0802 0.2235822,-0.15856 l 0.8516317,-0.57105 0.242679,0.17912 -1.7402433,1.1227 q -0.2148239,0.14135 -0.4146242,0.17146 -0.1972458,0.032 -0.3964979,-0.11508 -0.061308,-0.0452 -0.1016331,-0.0868 -0.04221,-0.0391 -0.069762,-0.0712 l 0.1319845,-0.17882 q 0.024329,0.0258 0.058875,0.0592 0.037101,0.0353 0.080528,0.0673 0.1175077,0.0867 0.2380569,0.0731 0.1231037,-0.0117 0.2450521,-0.0914 l 0.2053964,-0.12858 z"
       id="text3"
       style="font-size:3.175px;stroke-width:0.465;fill:#ffffff"
       aria-label="                  poly" />
  </g>
  <g
     inkscape:groupmode="layer"
     id="layer2"
     inkscape:label="components"
     style="display:none">
    <ellipse
       style="display:inline;fill:#0000ff;stroke-width:0.264999"
       id="gates_poly"
       cx="6.3500004"
       cy="120.64999"
       rx="3.8100004"
       ry="3.8099999"
       inkscape:label="gates_poly">
      <title
         id="title4">Gates Poly</title>
    </ellipse>
    <ellipse
       style="display:inline;fill:#00ff00;stroke-width:0.264999"
       id="analog_cv"
       cx="6.3500004"
       cy="19.049999"
       rx="3.8100004"
       ry="3.8099999"
       inkscape:label="analog_cv">
      <title
         id="title1">Analog</title>
    </ellipse>
    <ellipse
       style="display:inline;fill:#ff0000;stroke-width:0.264999"
       id="analog_value"
       cx="6.3500004"
       cy="8.8899994"
       rx="3.8100004"
       ry="3.8099999"
       inkscape:label="analog_value">
      <title
         id="title3">Analog</title>
    </ellipse>
    <circle
       style="display:inline;fill:#00ff00;stroke-width:0.264583"
       id="shift_cv"
       cx="6.3499999"
       cy="41.909996"
       r="3.8099999"
       inkscape:label="shift_cv" />
    <circle
       style="display:inline;fill:#ff0000;stroke-width:0.264583"
       id="shift_value"
       cx="6.3499999"
       cy="31.749998"
       r="3.8099999"
       inkscape:label="shift_value" />
    <ellipse
       style="display:inline;fill:#ff00ff;stroke-width:0.264999"
       id="lite_16"
       cx="15.240001"
       cy="119.38"
       rx="2.54"
       ry="2.5399997"
       inkscape:label="lite_16" />
    <ellipse
       style="fill:#ff00ff;stroke-width:0.264999"
       id="lite_15"
       cx="15.240001"
       cy="111.75999"
       rx="2.54"
       ry="2.5399997"
       inkscape:label="lite_15" />
    <ellipse
       style="fill:#ff00ff;stroke-width:0.264999"
       id="lite_14"
       cx="15.240001"
       cy="104.14"
       rx="2.54"
       ry="2.5399997"
       inkscape:label="lite_14" />
    <ellipse
       style="fill:#ff00ff;stroke-width:0.264999"
       id="lite_13"
       cx="15.240001"
       cy="96.519997"
       rx="2.54"
       ry="2.5399997"
       inkscape:label="lite_13" />
    <ellipse
       style="fill:#ff00ff;stroke-width:0.264999"
       id="lite_12"
       cx="15.240001"
       cy="88.899994"
       rx="2.54"
       ry="2.5399997"
       inkscape:label="lite_12" />
    <ellipse
       style="fill:#ff00ff;stroke-width:0.264999"
       id="lite_11"
       cx="15.240001"
       cy="81.279999"
       rx="2.54"
       ry="2.5399997"
       inkscape:label="lite_11" />
    <ellipse
       style="fill:#ff00ff;stroke-width:0.264999"
       id="lite_10"
       cx="15.240001"
       cy="73.660004"
       rx="2.54"
       ry="2.5399997"
       inkscape:label="lite_10" />
    <ellipse
       style="fill:#ff00ff;stroke-width:0.264999"
       id="lite_9"
       cx="15.240001"
       cy="66.040001"
       rx="2.54"
       ry="2.5399997"
       inkscape:label="lite_9" />
    <ellipse
       style="fill:#ff00ff;stroke-width:0.264999"
       id="lite_8"
       cx="15.240001"
       cy="58.419998"
       rx="2.54"
       ry="2.5399997"
       inkscape:label="lite_8" />
    <ellipse
       style="fill:#ff00ff;stroke-width:0.264999"
       id="lite_7"
       cx="15.240001"
       cy="50.799999"
       rx="2.54"
       ry="2.5399997"
       inkscape:label="lite_7" />
    <ellipse
       style="fill:#ff00ff;stroke-width:0.264999"
       id="lite_6"
       cx="15.240001"
       cy="43.18"
       rx="2.54"
       ry="2.5399997"
       inkscape:label="lite_6" />
    <ellipse
       style="fill:#ff00ff;stroke-width:0.264999"
       id="lite_5"
       cx="15.240001"
       cy="35.560001"
       rx="2.54"
       ry="2.5399997"
       inkscape:label="lite_5" />
    <ellipse
       style="fill:#ff00ff;stroke-width:0.264999"
       id="lite_4"
       cx="15.240001"
       cy="27.939999"
       rx="2.54"
       ry="2.5399997"
       inkscape:label="lite_4" />
    <ellipse
       style="fill:#ff00ff;stroke-width:0.264999"
       id="lite_3"
       cx="15.240001"
       cy="20.32"
       rx="2.54"
       ry="2.5399997"
       inkscape:label="lite_3" />
    <ellipse
       style="fill:#ff00ff;stroke-width:0.264999"
       id="lite_2"
       cx="15.240001"
       cy="12.700001"
       rx="2.54"
       ry="2.5399997"
       inkscape:label="lite_2" />
    <ellipse
       style="fill:#ff00ff;stroke-width:0.264999"
       id="lite_1"
       cx="15.240002"
       cy="5.0799994"
       rx="2.54"
       ry="2.5399997"
       inkscape:label="lite_1" />
  </g>
</svg>
