<?xml version="1.0" encoding="UTF-8" standalone="no"?>
<!-- Created with Inkscape (http://www.inkscape.org/) -->

<svg
   width="15.24mm"
   height="128.5mm"
   viewBox="0 0 15.239999 128.5"
   version="1.1"
   id="svg1"
   inkscape:version="1.3 (0e150ed6c4, 2023-07-21)"
   sodipodi:docname="graddfa.svg"
   xmlns:inkscape="http://www.inkscape.org/namespaces/inkscape"
   xmlns:sodipodi="http://sodipodi.sourceforge.net/DTD/sodipodi-0.dtd"
   xmlns="http://www.w3.org/2000/svg"
   xmlns:svg="http://www.w3.org/2000/svg">
  <sodipodi:namedview
     id="namedview1"
     pagecolor="#ffffff"
     bordercolor="#000000"
     borderopacity="0.25"
     inkscape:showpageshadow="2"
     inkscape:pageopacity="0.0"
     inkscape:pagecheckerboard="0"
     inkscape:deskcolor="#d1d1d1"
     inkscape:document-units="mm"
     showgrid="true"
     inkscape:zoom="3.3424804"
     inkscape:cx="6.2827594"
     inkscape:cy="250.11366"
     inkscape:window-width="3840"
     inkscape:window-height="2126"
     inkscape:window-x="-11"
     inkscape:window-y="-11"
     inkscape:window-maximized="1"
     inkscape:current-layer="layer1">
    <inkscape:grid
       id="grid1"
       units="mm"
       originx="0"
       originy="0"
       spacingx="2.54"
       spacingy="2.54"
       empcolor="#0099e5"
       empopacity="0.30196078"
       color="#0099e5"
       opacity="0.14901961"
       empspacing="5"
       dotted="false"
       gridanglex="30"
       gridanglez="30"
       visible="true" />
  </sodipodi:namedview>
  <defs
     id="defs1" />
  <g
     inkscape:label="Layer 1"
     inkscape:groupmode="layer"
     id="layer1">
    <rect
       style="fill:#f2f2f2;stroke-width:0.465"
       id="rect1"
       width="15.24"
       height="128.5"
       x="0"
       y="0"
       sodipodi:insensitive="true" />
    <path
       d="m 3.4957109,11.959935 q -0.2895105,0.222485 -0.3066956,0.544019 -0.017185,0.321534 0.2420591,0.658876 0.2573097,0.334826 0.5617795,0.413175 0.3050527,0.0739 0.6147031,-0.164066 0.1183217,-0.09093 0.2085787,-0.192324 0.090257,-0.101396 0.1677404,-0.208992 l 0.1509034,0.196364 Q 5.0631,13.322135 4.9683909,13.422948 4.8761992,13.521826 4.7276677,13.635971 4.4532621,13.846849 4.1824262,13.874792 3.9115903,13.902736 3.6578668,13.765367 3.4066607,13.626064 3.1899789,13.344105 2.9810358,13.072217 2.9205756,12.790332 q -0.059877,-0.286337 0.044975,-0.55111 0.1029172,-0.267291 0.3798403,-0.480103 0.2844755,-0.218617 0.5771998,-0.275394 l 0.056405,0.260977 q -0.1120969,0.02608 -0.2385296,0.07519 -0.1239152,0.04718 -0.2447544,0.140041 z m 3.3969266,0.209274 -0.3174543,0.09086 0.1415259,0.494496 -0.2594578,0.07426 -0.1415259,-0.494496 -1.0439361,0.298777 -0.065521,-0.228934 0.605412,-1.761761 0.2777725,-0.0795 0.416715,1.456016 0.3174542,-0.09086 z M 6.0501461,11.40638 Q 6.004718,11.247653 5.9793727,11.136017 5.9531538,11.02133 5.9273769,10.919725 l -0.01221,0.0035 q -0.00782,0.06499 -0.025231,0.142622 -0.01741,0.07764 -0.037882,0.133034 l -0.3867702,1.11795 0.7814258,-0.223646 z m 1.1902707,0.566251 1.901e-4,-0.247649 0.7683497,5.89e-4 -1.9e-4,0.24765 z m 2.5700445,1.168308 -0.052648,-0.751087 -0.8580937,-0.266501 -0.4658464,0.590058 -0.2759241,-0.0857 1.521162,-1.911306 0.2456028,0.07628 0.1677365,2.435831 z m -0.098344,-1.74936 q -0.00156,-0.02708 -0.00301,-0.09735 -0.00145,-0.07027 -0.00196,-0.143566 0.00347,-0.07539 0.00264,-0.115541 -0.050418,0.0874 -0.1059576,0.169893 -0.054598,0.07946 -0.0888,0.125352 l -0.4490093,0.578664 0.685262,0.212823 z m 0.730101,2.137737 1.988685,-0.981075 -0.950799,-0.768234 0.159633,-0.197568 1.182942,0.955802 -0.135688,0.167933 -2.005221,1.016697 z"
       id="text1"
       style="font-size:3.175px;text-align:center;text-anchor:middle;fill:#1a1a1a;stroke-width:0.465"
       aria-label="                                                          C4-A7" />
    <path
       d="m 1.449719,110.43969 q 0.5737341,0.0329 0.8473765,0.36339 0.2706543,0.32716 0.2386911,0.88505 l -0.03614,0.63079 -2.26323846,-0.12967 0.039954,-0.69736 q 0.0196138,-0.34234 0.16075294,-0.58549 0.14113917,-0.24315 0.39619289,-0.36528 0.25188396,-0.12232 0.61641116,-0.10143 z m -0.00774,0.30167 q -0.45328164,-0.026 -0.67538278,0.1871 -0.22508935,0.20972 -0.2485169,0.61862 l -0.0212482,0.37087 1.77508893,0.1017 0.017616,-0.30747 q 0.052667,-0.91924 -0.8475571,-0.97082 z M 0.65632564,109.1981 q 0.0218991,-0.0596 0.0800464,-0.089 0.0562621,-0.0335 0.14268843,-0.002 0.0834461,0.0307 0.1076499,0.0937 0.0252988,0.06 0.0034,0.11963 -0.024089,0.0656 -0.0822363,0.0949 -0.0581474,0.0294 -0.14159348,-0.001 -0.0864263,-0.0318 -0.10874486,-0.0907 -0.0252987,-0.06 -0.00121,-0.1256 z m 0.64610686,0.0919 1.597397,0.58689 -0.096356,0.26226 -1.597397,-0.58689 z m 0.9570402,-0.72381 q 0.042334,0.0281 0.1076155,0.079 0.067037,0.0483 0.1155532,0.0843 l 0.00702,-0.0106 q -0.010637,-0.0299 -0.029264,-0.088 -0.018627,-0.0581 -0.037255,-0.11615 -0.019518,-0.0625 -0.030182,-0.10384 l -0.1787892,-0.7701 0.1807676,-0.27252 0.2250588,0.97605 1.2194411,-0.075 -0.1860326,0.28046 -0.9878967,0.0534 0.033174,0.25441 0.521232,0.34574 -0.1526871,0.23019 -2.0108446,-1.33382 0.1526872,-0.23019 z m 2.0831326,-0.95041 q 0.047768,-0.0418 0.091648,-0.0929 0.041788,-0.0535 0.064469,-0.0902 l 0.1401608,0.16003 q -0.018794,0.046 -0.072524,0.10995 -0.051638,0.0663 -0.1089593,0.11654 -0.100312,0.0879 -0.215581,0.12973 -0.1149726,0.0374 -0.2428272,-0.003 -0.1278547,-0.04 -0.2638316,-0.1952 l -0.6526891,-0.74517 -0.1815169,0.15898 -0.087862,-0.10031 0.110687,-0.24467 -0.1548893,-0.3455 0.1241958,-0.10878 0.2573101,0.29377 0.370199,-0.32425 0.1422527,0.16241 -0.3701989,0.32425 0.6485052,0.7404 q 0.1025056,0.11703 0.2076452,0.12624 0.1054361,0.005 0.1938061,-0.0727 z m 0.3666746,-2.0129 q 0.2808335,-0.13396 0.4742999,-0.075 0.1934664,0.059 0.3219643,0.32834 l 0.4989544,1.04597 -0.1834015,0.0875 -0.1526079,-0.19455 -0.011463,0.005 q -0.04015,0.17394 -0.1232031,0.28743 -0.080188,0.11212 -0.2750517,0.20508 -0.2091923,0.0998 -0.3986894,0.0565 -0.1908641,-0.0461 -0.3029579,-0.28113 -0.1093599,-0.22925 0.012395,-0.43859 0.1203879,-0.21221 0.4903199,-0.40275 l 0.256673,-0.133 -0.043744,-0.0917 q -0.091589,-0.192 -0.2102346,-0.22686 -0.1186458,-0.0349 -0.2705252,0.0376 -0.1203572,0.0574 -0.2114808,0.14661 -0.092491,0.0863 -0.1651851,0.1773 L 4.2477482,105.9849 q 0.074325,-0.10229 0.1941049,-0.20516 0.1184131,-0.10573 0.2674268,-0.17682 z m 0.4654684,0.78403 q -0.2810968,0.14817 -0.3545812,0.28172 -0.070619,0.13218 -9.017e-4,0.27833 0.061515,0.12895 0.1675944,0.15222 0.1089451,0.0219 0.232168,-0.0369 0.194864,-0.093 0.2732393,-0.2605 0.077008,-0.17041 -0.029618,-0.39393 l -0.065616,-0.13755 z m 1.8092118,0.12795 q 0.062575,-0.0108 0.1266596,-0.0315 0.063544,-0.0238 0.1020587,-0.0434 l 0.036173,0.20962 q -0.040024,0.0295 -0.1192117,0.056 -0.078648,0.0297 -0.1537387,0.0426 -0.1314079,0.0227 -0.2516018,-0.002 -0.1176049,-0.028 -0.2058736,-0.12879 -0.088269,-0.10076 -0.1233613,-0.30413 l -0.1684446,-0.97617 -0.2377859,0.041 -0.022675,-0.13141 0.2220186,-0.15108 0.04796,-0.37557 0.1626956,-0.0281 0.066406,0.38484 0.484958,-0.0837 0.036712,0.21276 -0.484958,0.0837 0.1673648,0.96991 q 0.026454,0.15331 0.1113733,0.21599 0.087508,0.059 0.2032718,0.039 z m 2.3017065,0.44412 0.00161,-2.12299 -0.011886,-0.004 q -0.025747,0.0955 -0.079064,0.25521 -0.052199,0.15676 -0.1159316,0.32614 l -0.4841447,1.2867 -0.2466432,-0.0928 0.7983356,-2.12173 0.3952235,0.14871 -3.453e-4,1.98438 0.011886,0.004 1.3197379,-1.48793 0.392252,0.14759 -0.798335,2.12173 -0.264473,-0.0995 0.490853,-1.30453 q 0.05814,-0.15452 0.121109,-0.30384 0.06594,-0.1482 0.107662,-0.24105 l -0.01189,-0.004 -1.4060656,1.59114 z m 3.2055414,1.32144 q -0.308269,0.2886 -0.625021,0.28939 -0.314582,0.003 -0.564118,-0.26345 -0.154061,-0.16456 -0.201404,-0.36379 -0.04286,-0.19909 0.03141,-0.40779 0.07659,-0.21087 0.282871,-0.40399 0.308269,-0.2886 0.620534,-0.28953 0.312264,-9.4e-4 0.5618,0.26561 0.158401,0.1692 0.201256,0.36828 0.04734,0.19924 -0.02909,0.40562 -0.07195,0.20653 -0.278236,0.39965 z m -0.8788,-0.93871 q -0.220192,0.20614 -0.269704,0.41341 -0.04502,0.20742 0.132905,0.39748 0.17576,0.18774 0.385696,0.15648 0.212252,-0.0334 0.432445,-0.23958 0.220192,-0.20614 0.262898,-0.41139 0.04271,-0.20525 -0.135223,-0.39531 -0.17793,-0.19006 -0.383377,-0.15865 -0.205448,0.0314 -0.42564,0.23756 z m 0.647088,2.42561 q -0.119308,-0.29423 0.01213,-0.55309 0.134376,-0.26005 0.540415,-0.4247 0.406039,-0.16464 0.683585,-0.0716 0.281682,0.0948 0.40099,0.389 0.07397,0.18242 0.05283,0.32461 -0.01995,0.14514 -0.08722,0.25807 l 0.0072,0.0177 q 0.03706,-0.0185 0.107036,-0.0571 0.07411,-0.0369 0.118248,-0.0548 l 0.629654,-0.25532 0.104991,0.25893 -2.236154,0.90674 -0.08471,-0.2089 0.196336,-0.12416 -0.0048,-0.0118 q -0.128673,-0.0301 -0.247011,-0.11911 -0.118339,-0.0891 -0.193503,-0.27443 z m 0.231491,-0.0459 q 0.101412,0.2501 0.277323,0.29525 0.180047,0.0469 0.456624,-0.0652 l 0.04708,-0.0191 q 0.294231,-0.11931 0.410801,-0.27964 0.119513,-0.16152 0.01333,-0.42339 -0.08471,-0.2089 -0.295372,-0.24682 -0.206527,-0.0362 -0.486046,0.0772 -0.282462,0.11453 -0.396646,0.28075 -0.112991,0.16915 -0.02709,0.381 z m 1.940304,1.86023 q 0.0068,0.21897 -0.08366,0.3774 -0.09031,0.16161 -0.262308,0.24951 -0.168726,0.091 -0.400391,0.0981 l -0.168195,0.005 -0.03592,-1.16467 q -0.288592,0.0153 -0.436613,0.15958 -0.14475,0.14741 -0.13692,0.40129 0.005,0.16185 0.03737,0.28473 0.03565,0.12596 0.09688,0.25749 l -0.244359,0.008 q -0.06114,-0.12836 -0.09044,-0.25451 -0.03248,-0.12606 -0.03786,-0.3006 -0.0074,-0.24119 0.08516,-0.43146 0.0927,-0.1871 0.283054,-0.29779 0.193625,-0.10762 0.476066,-0.11633 0.279267,-0.009 0.482035,0.0773 0.202866,0.089 0.315952,0.25391 0.113184,0.16804 0.120134,0.39336 z m -0.22859,0.004 q -0.0062,-0.19993 -0.1399,-0.31334 -0.130464,-0.11033 -0.35964,-0.1255 l 0.02672,0.86637 q 0.215699,-0.01 0.345952,-0.11232 0.133426,-0.10259 0.126868,-0.31521 z"
       id="text2"
       style="font-size:3.175px;letter-spacing:-0.0714375px;fill:#1a1a1a;stroke-width:0.465"
       aria-label="                    Diktat Mode" />
  </g>
  <g
     inkscape:groupmode="layer"
     id="layer2"
     inkscape:label="components"
     style="display:none">
    <ellipse
       style="display:inline;fill:#0000ff;stroke-width:0.465"
       id="mode"
       cx="7.6200004"
       cy="111.75999"
       rx="5.0799999"
       ry="5.0799994"
       inkscape:label="mode" />
    <ellipse
       style="display:inline;fill:#00ff00;stroke-width:0.465"
       id="cv"
       cx="7.6200004"
       cy="17.779999"
       rx="5.0799999"
       ry="5.0799994"
       inkscape:label="cv" />
  </g>
</svg>
