<?xml version="1.0" encoding="UTF-8" standalone="no"?>
<!-- Created with Inkscape (http://www.inkscape.org/) -->

<svg
   width="15.24mm"
   height="128.5mm"
   viewBox="0 0 15.24 128.5"
   version="1.1"
   id="svg1"
   inkscape:version="1.3 (0e150ed6c4, 2023-07-21)"
   sodipodi:docname="gwreiddyn-dark.svg"
   xmlns:inkscape="http://www.inkscape.org/namespaces/inkscape"
   xmlns:sodipodi="http://sodipodi.sourceforge.net/DTD/sodipodi-0.dtd"
   xmlns="http://www.w3.org/2000/svg"
   xmlns:svg="http://www.w3.org/2000/svg">
  <sodipodi:namedview
     id="namedview1"
     pagecolor="#ffffff"
     bordercolor="#000000"
     borderopacity="0.25"
     inkscape:showpageshadow="2"
     inkscape:pageopacity="0.0"
     inkscape:pagecheckerboard="0"
     inkscape:deskcolor="#d1d1d1"
     inkscape:document-units="mm"
     showgrid="true"
     inkscape:zoom="2.3634906"
     inkscape:cx="-49.714604"
     inkscape:cy="223.18684"
     inkscape:window-width="2403"
     inkscape:window-height="1607"
     inkscape:window-x="965"
     inkscape:window-y="203"
     inkscape:window-maximized="0"
     inkscape:current-layer="layer1">
    <inkscape:grid
       id="grid1"
       units="mm"
       originx="0"
       originy="0"
       spacingx="2.5400001"
       spacingy="2.5400001"
       empcolor="#0099e5"
       empopacity="0.30196078"
       color="#0099e5"
       opacity="0.14901961"
       empspacing="5"
       dotted="false"
       gridanglex="30"
       gridanglez="30"
       visible="true" />
  </sodipodi:namedview>
  <defs
     id="defs1">
    <rect
       x="19.199999"
       y="386.24011"
       width="57.600002"
       height="31.021284"
       id="rect9" />
    <rect
       x="19.200001"
       y="76.799995"
       width="57.599998"
       height="19.199999"
       id="rect8" />
  </defs>
  <g
     inkscape:label="Layer 1"
     inkscape:groupmode="layer"
     id="layer1"
     style="fill:#ececec">
    <rect
       style="fill:#1a1a1a;stroke-width:0.205267"
       id="rect1"
       width="15.240001"
       height="128.5"
       x="0"
       y="0"
       ry="0" />
    <circle
       style="fill:#f9f9f9;stroke-width:0.264999"
       id="path1"
       cx="7.6200004"
       cy="12.700001"
       r="5.0799999" />
    <circle
       style="fill:#666666;stroke-width:0.264999"
       id="path2"
       cx="7.6200008"
       cy="101.60001"
       r="5.0799999" />
    <circle
       style="fill:#666666;stroke-width:0.264999"
       id="path3"
       cx="7.6200008"
       cy="116.84"
       r="5.0799999" />
    <path
       style="fill:#f9f9f9;font-size:3.175px;text-align:center;text-anchor:middle;stroke-width:0.265"
       d="m 4.6349991,6.5593491 q 0.041403,-0.023537 0.091464,-0.044691 0.051252,-0.025484 0.091842,-0.037601 l 0.096735,0.2408341 q -0.04059,0.012118 -0.087891,0.031703 -0.044541,0.018016 -0.083183,0.039983 -0.1131671,0.064333 -0.1764441,0.1843046 -0.064846,0.1172113 -0.061237,0.2648986 0.0048,0.143358 0.089532,0.2924073 L 5.0445791,8.3205974 4.8016839,8.4586781 3.9606469,6.9792255 4.1593793,6.8662504 l 0.1813734,0.2548059 0.011041,-0.00628 q 0.00272,-0.1622441 0.06568,-0.3149027 0.062956,-0.1526586 0.2175256,-0.2405281 z m 2.550353,0.1701551 Q 7.2712534,7.1429497 7.1070167,7.4137978 6.9458885,7.6840002 6.5883981,7.7582758 6.3676866,7.8041329 6.1729363,7.7408263 5.9806488,7.6737652 5.8411289,7.5016992 5.7009632,7.3265246 5.6434804,7.0498581 5.557579,6.6364127 5.7193531,6.369319 5.8811271,6.1022253 6.2386175,6.0279497 6.4655462,5.9808008 6.6578338,6.0478619 6.852584,6.1111685 6.9889953,6.2838804 7.1278692,6.4528377 7.1853521,6.7295042 Z M 5.9263641,6.9910835 Q 5.9877222,7.2864017 6.1389098,7.4365866 6.2925602,7.583017 6.5474664,7.5300553 6.799264,7.4777394 6.8818682,7.2822225 6.9638265,7.083597 6.9024684,6.7882788 6.8411102,6.4929607 6.6881057,6.3496388 6.5351012,6.206317 6.280195,6.2592788 6.0252888,6.3122405 5.9451474,6.5040029 5.865006,6.6957654 5.9263641,6.9910835 Z m 3.4946489,-3.5e-5 Q 9.3481558,7.4069908 9.0955043,7.5980397 8.8459802,7.7896364 8.4863308,7.7266396 8.2642865,7.6877459 8.1066824,7.5569929 7.9527535,7.4236602 7.8866406,7.2122328 7.8210756,6.9976779 7.8698296,6.7193406 7.9426868,6.3033983 8.1916631,6.114929 8.4406394,5.9264597 8.8002888,5.9894565 q 0.2282991,0.039989 0.382228,0.1733219 0.1576041,0.130753 0.2205895,0.3416327 0.066661,0.2083 0.017907,0.4866374 z M 8.1544217,6.7691902 Q 8.1023809,7.0662919 8.1874175,7.261694 8.2761292,7.4545166 8.5325749,7.499436 8.7858931,7.5438077 8.9348627,7.3926178 9.08438,7.2383005 9.1364209,6.9411988 9.1884617,6.6440972 9.0992021,6.454402 9.0099426,6.2647069 8.7534969,6.2197874 8.4970513,6.174868 8.3517569,6.3234783 8.2064625,6.4720886 8.1544217,6.7691902 Z m 2.1160333,1.3601957 q 0.05646,0.029058 0.120105,0.0511 0.0651,0.019219 0.107607,0.026814 l -0.09734,0.1891453 q -0.04969,-5.792e-4 -0.128905,-0.027062 -0.08066,-0.02366 -0.148418,-0.05853 -0.118568,-0.061022 -0.1998581,-0.1528495 -0.077014,-0.093198 -0.086816,-0.2267919 -0.0098,-0.1335942 0.084636,-0.3170933 l 0.4533065,-0.880796 -0.214553,-0.1104208 0.06102,-0.1185687 0.268228,0.013066 0.264438,-0.2709776 0.1468,0.075551 -0.178708,0.3472369 0.437575,0.2252003 -0.0988,0.1919684 -0.437575,-0.2252004 -0.450401,0.8751499 q -0.07119,0.1383301 -0.04113,0.2395005 0.03434,0.0998 0.13879,0.1535577 z"
       id="text3"
       aria-label="                   root" />
    <path
       style="font-size:3.175px;text-align:center;text-anchor:middle;fill:#f9f9f9;stroke-width:0.265"
       d="m 3.0705067,98.913469 q 0.029504,-0.05623 0.052049,-0.119696 0.019733,-0.06494 0.027665,-0.107392 l 0.1883689,0.09884 q -9.725e-4,0.04969 -0.028082,0.128686 -0.024298,0.08048 -0.059703,0.14795 -0.061958,0.118082 -0.1544265,0.198643 -0.093804,0.07627 -0.2274719,0.08502 -0.1336676,0.0087 -0.3164136,-0.08714 l -0.8771806,-0.460263 -0.1121155,0.213672 -0.118082,-0.06196 0.015189,-0.268116 -0.2688762,-0.266575 0.076711,-0.146197 0.3458117,0.18145 0.2286565,-0.435779 0.1911804,0.100314 -0.2286565,0.435779 0.8715577,0.457313 q 0.1377623,0.07228 0.2391674,0.04303 0.1000689,-0.03355 0.1546514,-0.137571 z m -0.535783,-1.825913 q 0.089448,0.09016 0.1564451,0.180223 l 0.013523,-0.01342 q -0.033083,-0.150551 0.019129,-0.296275 0.054465,-0.147961 0.1716682,-0.264243 0.2208821,-0.219147 0.4364243,-0.222787 0.213306,-0.0059 0.4436339,0.226257 l 0.7804316,0.786611 -0.1960892,0.194549 -0.7670145,-0.773088 q -0.2884689,-0.290753 -0.5589369,-0.02241 -0.2028509,0.201257 -0.1654376,0.392237 0.037431,0.186489 0.2476332,0.398355 L 3.7355598,98.2979 3.5372166,98.494685 1.8377094,96.781721 2.0360525,96.584936 Z M 4.0164644,95.11383 q 0.055495,-0.03086 0.1187208,-0.01516 0.064457,0.01138 0.1092081,0.09185 0.043208,0.07769 0.020416,0.141231 -0.020018,0.06199 -0.075513,0.09286 -0.061045,0.03395 -0.1242704,0.01825 -0.063226,-0.0157 -0.1064333,-0.09339 -0.044751,-0.08047 -0.02319,-0.139687 0.020018,-0.06199 0.081063,-0.09594 z M 4.4459501,95.605204 5.2730716,97.092481 5.0288917,97.228277 4.2017702,95.741 Z m 1.5653717,-0.638669 q 0.04553,-0.01397 0.098993,-0.02373 0.055567,-0.01373 0.09782,-0.01673 l 0.042052,0.256106 q -0.042253,0.003 -0.092681,0.01183 -0.047392,0.0079 -0.089887,0.02094 -0.1244482,0.03819 -0.2122983,0.141528 -0.088782,0.100306 -0.1173725,0.245244 -0.026487,0.140972 0.023807,0.304879 l 0.2663714,0.868102 -0.2671083,0.08196 -0.4992135,-1.626933 0.2185432,-0.06706 0.1216273,0.288148 0.012141,-0.0037 q 0.037938,-0.157769 0.1325825,-0.293086 0.094644,-0.135316 0.2646224,-0.187473 z m 1.5796021,1.35005 q 0.063402,-0.0035 0.1294426,-0.01676 0.065864,-0.01639 0.106368,-0.03137 l 0.011846,0.212395 q -0.043143,0.02467 -0.124858,0.04194 -0.081538,0.02045 -0.1576196,0.02469 -0.1331431,0.0074 -0.2497411,-0.03059 -0.1136047,-0.04136 -0.1897114,-0.151595 -0.076107,-0.110233 -0.087599,-0.316288 l -0.055165,-0.989063 -0.2409255,0.01344 -0.00743,-0.133143 0.2379073,-0.124567 0.090796,-0.367577 0.1648438,-0.0092 0.021748,0.389919 0.4913614,-0.02741 0.012023,0.215565 -0.4913613,0.02741 0.054811,0.982723 q 0.00866,0.155333 0.085819,0.227348 0.080148,0.06867 0.1974411,0.06213 z m 1.6359264,-1.338014 q 0.2131344,0.05067 0.3424595,0.179323 0.1324141,0.129385 0.1723352,0.318369 0.043744,0.186628 -0.00986,0.412118 l -0.038922,0.163712 -1.1336276,-0.269514 q -0.06065,0.282559 0.040012,0.463139 0.1044852,0.178225 0.3515975,0.236975 0.1575341,0.03745 0.2846107,0.03829 0.1308998,-0.0015 0.2738524,-0.02627 l -0.056546,0.237846 q -0.1398637,0.02549 -0.2692948,0.02083 -0.1301655,-0.0016 -0.3000552,-0.04197 -0.2347567,-0.05581 -0.3942365,-0.194896 -0.1563909,-0.13835 -0.2135281,-0.351007 -0.053314,-0.215012 0.012045,-0.489924 0.064625,-0.271824 0.2004682,-0.445128 0.1389324,-0.17257 0.3276129,-0.238671 0.1917694,-0.06537 0.4110815,-0.01323 z m -0.055964,0.221667 q -0.1946009,-0.04627 -0.3389995,0.05321 -0.1405753,0.09712 -0.2150723,0.314379 l 0.8432706,0.200483 q 0.046848,-0.21078 -0.018064,-0.363279 -0.064178,-0.155589 -0.2711346,-0.204791 z m 2.2433223,0.740321 q 0.182532,0.121144 0.259485,0.286535 0.0796,0.167147 0.05182,0.358293 -0.02338,0.190255 -0.15155,0.383369 l -0.09305,0.140206 -0.97086,-0.644346 q -0.154478,0.244242 -0.122355,0.448472 0.03652,0.203341 0.248156,0.343798 0.134915,0.08954 0.253886,0.134205 0.123373,0.04377 0.266083,0.0699 l -0.13519,0.203696 q -0.140064,-0.02437 -0.259925,-0.07343 -0.121617,-0.04642 -0.267114,-0.142984 -0.20105,-0.133434 -0.302701,-0.319028 -0.09901,-0.183838 -0.07921,-0.403145 0.0242,-0.220198 0.18046,-0.455638 0.154502,-0.232794 0.341828,-0.348538 0.189972,-0.113989 0.389872,-0.11088 0.202545,0.0049 0.390368,0.129521 z m -0.129056,0.188712 q -0.16666,-0.11061 -0.336524,-0.06711 -0.165462,0.04261 -0.310391,0.220789 l 0.722192,0.479309 q 0.116743,-0.181643 0.108476,-0.347176 -0.0065,-0.168179 -0.183753,-0.285812 z m 1.960493,1.625195 q 0.175971,0.248872 0.143946,0.462053 -0.02943,0.211348 -0.299044,0.401983 l -0.904752,0.639729 -0.159474,-0.22554 0.889198,-0.628731 q 0.334421,-0.236461 0.114457,-0.547551 -0.163139,-0.230725 -0.355083,-0.227215 -0.191944,0.0035 -0.435631,0.175815 l -0.720691,0.509583 -0.161307,-0.228133 1.389534,-0.982506 0.130145,0.184062 -0.165417,0.167513 0.0092,0.01296 q 0.15654,-0.0096 0.292708,0.07301 0.13876,0.08076 0.232245,0.21297 z"
       id="text4"
       aria-label="                   thirteen" />
    <path
       style="font-size:3.175px;text-align:center;text-anchor:middle;fill:#f9f9f9;stroke-width:0.265"
       d="m 3.7805214,113.21042 q 0.041252,-0.0483 0.077325,-0.10515 0.033659,-0.0589 0.050818,-0.0986 l 0.1617233,0.13819 q -0.01198,0.0482 -0.055952,0.11924 -0.041559,0.0731 -0.091061,0.131 -0.086629,0.10138 -0.194675,0.1594 -0.1083975,0.0536 -0.2406706,0.0324 -0.1322732,-0.0211 -0.289169,-0.15522 l -0.7530998,-0.64353 -0.156757,0.18345 -0.1013788,-0.0866 0.074337,-0.25805 -0.2029804,-0.31962 0.1072547,-0.12552 0.2968952,0.2537 0.3197016,-0.37414 0.1641372,0.14026 -0.3197017,0.37414 0.7482723,0.6394 q 0.1182753,0.10107 0.2236457,0.0951 0.1050191,-0.0105 0.181335,-0.0998 z m 1.0216973,-1.71652 q -0.099106,-0.0939 -0.1868035,-0.18695 -0.086455,-0.0973 -0.1341445,-0.15077 l -0.011114,0.006 q 0.022682,0.0673 0.059122,0.19225 0.034904,0.12219 0.060523,0.2604 l 0.1956455,0.98384 -0.2778622,0.15362 -1.2318556,-1.26352 0.2528546,-0.1398 0.6449686,0.68101 q 0.096621,0.10258 0.1919996,0.20948 0.095379,0.1069 0.1510426,0.18133 l 0.011115,-0.006 q -0.015001,-0.0534 -0.039512,-0.13053 -0.021733,-0.0787 -0.04376,-0.16446 -0.023563,-0.0885 -0.037909,-0.16044 l -0.1999604,-0.98508 0.2667478,-0.14747 0.7195628,0.69781 q 0.082795,0.0776 0.1720292,0.17336 0.092012,0.0943 0.1476765,0.16868 l 0.011114,-0.006 q -0.030069,-0.0741 -0.069875,-0.2117 -0.037027,-0.13915 -0.074349,-0.28541 l -0.2309538,-0.9099 0.250076,-0.13825 0.4093834,1.71823 -0.2861982,0.15823 z m 2.2851477,-1.44668 q 0.2183221,-0.0181 0.3812525,0.0639 0.1660944,0.0818 0.2628259,0.24896 0.099632,0.16376 0.1188316,0.39474 l 0.013939,0.16769 -1.1612204,0.0965 q 0.030261,0.28741 0.1821054,0.42771 0.1547451,0.13688 0.4078722,0.11584 0.1613685,-0.0134 0.2824009,-0.0521 0.1239335,-0.0422 0.2520912,-0.11016 l 0.020251,0.24364 q -0.1249936,0.0677 -0.2494531,0.10357 -0.1241965,0.039 -0.2982213,0.0535 -0.2404707,0.02 -0.435305,-0.0626 -0.1916702,-0.0828 -0.3121282,-0.26716 -0.117557,-0.18776 -0.1409642,-0.46937 -0.023144,-0.27844 0.052045,-0.4854 0.078353,-0.20723 0.2371081,-0.32875 0.1619187,-0.12178 0.386569,-0.14045 z m 0.015772,0.22808 q -0.1993375,0.0166 -0.3056257,0.15602 -0.1033871,0.13604 -0.1065995,0.36569 l 0.8637961,-0.0718 q -0.021048,-0.21489 -0.1301811,-0.33963 -0.1093958,-0.1279 -0.3213898,-0.11028 z m 1.5340798,1.58563 -0.2751796,-0.0484 0.4178227,-2.37655 0.2751796,0.0484 z m 0.8753761,0.262 0.093469,-1.81736 0.2733058,0.1199 -0.071617,1.06418 q -0.0048,0.0742 -0.013074,0.16415 -0.00827,0.09 -0.019808,0.1716 -0.010261,0.0787 -0.023222,0.13197 l 0.01163,0.005 q 0.033314,-0.0443 0.085556,-0.10808 0.055149,-0.0625 0.1157561,-0.12951 0.063515,-0.0657 0.1106539,-0.11788 l 0.734529,-0.77336 0.273306,0.1199 -1.2768254,1.29822 z M 12.279899,111.869 q 0.160527,0.14908 0.209706,0.32475 0.05151,0.17782 -0.0068,0.36195 -0.05386,0.18397 -0.21158,0.3538 l -0.114512,0.1233 -0.853814,-0.79294 q -0.191961,0.21603 -0.193305,0.42277 0.0031,0.20657 0.189261,0.37942 0.11865,0.11019 0.228827,0.17351 0.114665,0.0632 0.251267,0.11203 l -0.166365,0.17914 q -0.134276,-0.0467 -0.24462,-0.11452 -0.112504,-0.0655 -0.24046,-0.18432 -0.176811,-0.1642 -0.247095,-0.3638 -0.06796,-0.19743 -0.01293,-0.41065 0.05951,-0.21338 0.251803,-0.42043 0.190132,-0.20473 0.393717,-0.28864 0.205911,-0.0817 0.402674,-0.0463 0.19909,0.0376 0.364269,0.19097 z m -0.157889,0.16535 q -0.146568,-0.13612 -0.321231,-0.12068 -0.170177,0.0153 -0.342025,0.16766 l 0.635126,0.58984 q 0.144594,-0.16036 0.163219,-0.32505 0.02079,-0.16701 -0.135089,-0.31177 z"
       id="text5"
       aria-label="                   twelve" />
  </g>
  <g
     inkscape:groupmode="layer"
     id="layer3"
     inkscape:label="components"
     style="display:none">
    <circle
       style="fill:#00ff00;stroke-width:0.264999"
       id="root"
       cx="7.6200004"
       cy="12.700001"
       r="5.0799994"
       inkscape:label="root">
      <title
         id="title6">Root</title>
    </circle>
    <circle
       style="fill:#0000ff;stroke-width:0.264999"
       id="thirteen_step"
       cx="7.6200008"
       cy="101.60001"
       r="5.0799994"
       inkscape:label="thirteen_step">
      <title
         id="title7">Thirteen Step</title>
    </circle>
    <circle
       style="fill:#0000ff;stroke-width:0.264999"
       id="twelve_step"
       cx="7.6200008"
       cy="116.84"
       r="5.0799994"
       inkscape:transform-center-x="33.167111"
       inkscape:transform-center-y="-8.786514"
       inkscape:label="twelve_step">
      <title
         id="title8">Twelve Step</title>
    </circle>
  </g>
</svg>
