<?xml version="1.0" encoding="UTF-8" standalone="no"?>
<!-- Created with Inkscape (http://www.inkscape.org/) -->

<svg
   width="15.24mm"
   height="128.5mm"
   viewBox="0 0 15.24 128.5"
   version="1.1"
   id="svg1"
   inkscape:version="1.3 (0e150ed6c4, 2023-07-21)"
   sodipodi:docname="nilyniant.svg"
   xmlns:inkscape="http://www.inkscape.org/namespaces/inkscape"
   xmlns:sodipodi="http://sodipodi.sourceforge.net/DTD/sodipodi-0.dtd"
   xmlns="http://www.w3.org/2000/svg"
   xmlns:svg="http://www.w3.org/2000/svg">
  <sodipodi:namedview
     id="namedview1"
     pagecolor="#ffffff"
     bordercolor="#000000"
     borderopacity="0.25"
     inkscape:showpageshadow="2"
     inkscape:pageopacity="0.0"
     inkscape:pagecheckerboard="0"
     inkscape:deskcolor="#d1d1d1"
     inkscape:document-units="mm"
     showgrid="true"
     inkscape:zoom="3.3424804"
     inkscape:cx="-46.971106"
     inkscape:cy="230.66702"
     inkscape:window-width="3840"
     inkscape:window-height="2126"
     inkscape:window-x="-11"
     inkscape:window-y="-11"
     inkscape:window-maximized="1"
     inkscape:current-layer="layer1">
    <inkscape:grid
       id="grid1"
       units="mm"
       originx="0"
       originy="0"
       spacingx="2.5400001"
       spacingy="2.5400001"
       empcolor="#0099e5"
       empopacity="0.30196078"
       color="#0099e5"
       opacity="0.14901961"
       empspacing="5"
       dotted="false"
       gridanglex="30"
       gridanglez="30"
       visible="true" />
  </sodipodi:namedview>
  <defs
     id="defs1" />
  <g
     inkscape:label="Layer 1"
     inkscape:groupmode="layer"
     id="layer1">
    <rect
       style="fill:#f2f2f2;stroke-width:0.465"
       id="rect1"
       width="15.24"
       height="128.5"
       x="0"
       y="0" />
    <path
       d="m 6.1476602,10.295715 -0.2980541,0.14934 -1.9277683,-1.1399803 -0.011354,0.00569 q 0.055457,0.096507 0.1379324,0.2398477 0.082475,0.1433409 0.160701,0.2994645 l 0.5674944,1.132606 -0.2356047,0.11805 -1.0155162,-2.0267682 0.2952155,-0.1479183 1.922085,1.1357255 0.011355,-0.0057 Q 5.72855,10.012087 5.6773595,9.9240957 5.6290075,9.8346825 5.5692832,9.7296598 5.5123975,9.6232149 5.4668842,9.5323794 L 4.8937007,8.3884192 5.132144,8.2689467 Z M 8.1010215,9.2730363 Q 8.1228749,9.6947455 7.9192589,9.937383 7.7188136,10.179856 7.3541779,10.198752 7.129055,10.210418 6.9462353,10.118156 6.766422,10.022558 6.6547709,9.8312299 6.5429555,9.6367309 6.5283318,9.3545346 6.5064784,8.9328254 6.707088,8.6935229 6.9076975,8.4542204 7.2723333,8.4353247 7.5037977,8.42333 7.6836109,8.5189275 7.8664306,8.6111899 7.974911,8.8026825 8.0863978,8.99084 8.1010215,9.2730363 Z m -1.2841519,0.066546 q 0.01561,0.3012208 0.1421286,0.472703 Q 7.0885236,9.9804325 7.3485247,9.966959 7.6053551,9.9536498 7.7168063,9.773015 7.8280932,9.5892095 7.8124837,9.2879886 7.7968741,8.9867678 7.667513,8.8217914 7.5381519,8.6568149 7.2781508,8.6702884 7.0181497,8.6837619 6.9097049,8.8610617 6.8012601,9.0383615 6.8168696,9.3395823 Z M 9.1121955,10.17159 q 0.061738,0.01486 0.1287911,0.02119 0.067796,0.0033 0.1108966,5.58e-4 l -0.049764,0.206823 q -0.048416,0.01121 -0.1316462,0.0042 -0.083973,-0.0039 -0.1580588,-0.0217 -0.1296498,-0.0312 -0.2303798,-0.101151 -0.0969,-0.0723 -0.1380735,-0.199768 -0.041173,-0.1274686 0.00711,-0.3281172 L 8.8828023,8.7905567 8.6481978,8.7341082 8.679393,8.6044584 8.9430804,8.5536081 9.1357946,8.2276974 9.2963135,8.26632 9.2049561,8.6460089 9.6834257,8.7611341 9.6329192,8.9710433 9.1544495,8.8559181 8.9241991,9.8128574 q -0.036394,0.1512581 0.016779,0.2424266 0.057002,0.08882 0.1712179,0.116306 z M 10.980703,9.3128476 q 0.191074,0.1071657 0.280171,0.2663447 0.09187,0.1607321 0.07844,0.3534189 -0.0091,0.1914708 -0.122479,0.3936218 L 11.134522,10.473 10.118229,9.9030025 q -0.1357964,0.2551025 -0.0885,0.4563615 0.05162,0.200043 0.273152,0.324293 0.141229,0.07921 0.263205,0.114859 0.126299,0.03443 0.270562,0.04982 l -0.119591,0.213227 q -0.141493,-0.01383 -0.264686,-0.0538 -0.124746,-0.0372 -0.277051,-0.122624 Q 9.964859,10.767096 9.8496237,10.589617 9.7371575,10.41369 9.7405149,10.193516 9.7481946,9.9721266 9.8864229,9.7256685 10.023098,9.4819797 10.201252,9.3525613 10.382174,9.224696 10.581748,9.2128592 q 0.202343,-0.010284 0.398955,0.099988 z m -0.114594,0.1978286 q -0.174459,-0.097847 -0.340598,-0.041776 -0.161816,0.054855 -0.293025,0.243365 l 0.755989,0.4240036 q 0.102844,-0.1898581 0.08223,-0.3543111 -0.01906,-0.1672222 -0.204596,-0.2712817 z"
       id="text1"
       style="font-size:3.175px;letter-spacing:-0.0714375px;fill:#1a1a1a;stroke-width:0.465"
       aria-label="                           Note" />
    <path
       d="m 4.6109709,89.101181 q 0.1894238,0.234726 0.1246172,0.50326 -0.064807,0.268533 -0.3538902,0.501824 -0.148248,0.119636 -0.2922042,0.199089 -0.1439562,0.07945 -0.2598663,0.107715 L 3.658149,90.20058 q 0.1208518,-0.03225 0.2777253,-0.105807 0.1593443,-0.07555 0.3001799,-0.189206 0.197664,-0.159515 0.234684,-0.315867 0.039491,-0.158346 -0.066188,-0.289299 -0.069788,-0.08648 -0.1547042,-0.115868 -0.084916,-0.02939 -0.2162146,-0.005 -0.1308215,0.01989 -0.3372839,0.09267 -0.2906426,0.09991 -0.502479,0.07503 Q 2.9845031,89.320325 2.8190066,89.115249 2.7053523,88.974414 2.6972481,88.817757 2.68715,88.658631 2.7692942,88.502582 2.8539092,88.34454 3.0194528,88.210947 3.16523,88.093304 3.3082324,88.02278 3.4512349,87.952256 3.5859577,87.916973 l 0.084351,0.246082 q -0.1233226,0.03424 -0.253971,0.0948 -0.1281777,0.05856 -0.2443053,0.152276 -0.1655435,0.133593 -0.1917266,0.27304 -0.028177,0.136976 0.065538,0.253104 0.071782,0.08895 0.156698,0.118339 0.084916,0.02939 0.2068084,0.0085 0.1218919,-0.02085 0.3090649,-0.08214 0.2015208,-0.06879 0.3616014,-0.08782 0.1605575,-0.02349 0.2886907,0.02406 0.1306039,0.04556 0.2422642,0.183924 z m 0.7343217,-1.543886 q 0.206163,-0.0741 0.3847856,-0.03708 0.1816104,0.03594 0.3183595,0.172353 0.1386631,0.13235 0.2170577,0.350464 l 0.056917,0.158357 -1.0965481,0.394121 q 0.1037005,0.269748 0.286714,0.365915 0.1849274,0.0921 0.4239569,0.0062 0.1523814,-0.05477 0.2592432,-0.123542 0.1087758,-0.07283 0.2149362,-0.17172 l 0.08269,0.230066 q -0.1031725,0.09781 -0.2140961,0.164671 -0.1098497,0.06985 -0.2741825,0.128911 -0.2270781,0.08162 -0.4366533,0.05235 -0.2065873,-0.03034 -0.3706948,-0.177159 -0.1621936,-0.150883 -0.2577707,-0.416803 -0.094503,-0.262933 -0.075511,-0.482312 0.02198,-0.220453 0.143825,-0.378957 0.1248323,-0.159578 0.3369711,-0.235825 z m 0.074333,0.216201 q -0.1882358,0.06766 -0.2547571,0.229892 -0.064607,0.158176 -0.0082,0.380819 L 5.9723551,88.091033 Q 5.8963421,87.888932 5.7586144,87.796732 5.6198127,87.701545 5.4196255,87.773496 Z m 2.6755413,1.165719 q 5.426e-4,-0.05715 0.00444,-0.133314 0.0039,-0.07617 0.013935,-0.130048 l -0.019049,-1.81e-4 q -0.074047,0.107252 -0.2049392,0.182213 -0.1277178,0.07499 -0.3309086,0.07306 -0.3079611,-0.0029 -0.4995474,-0.223828 -0.1883814,-0.224048 -0.1842215,-0.662179 0.00416,-0.43813 0.1999361,-0.658531 0.1989814,-0.223546 0.5101174,-0.220592 0.2000159,0.0019 0.3262868,0.0793 0.1262708,0.0774 0.2014123,0.189245 l 0.012699,1.21e-4 0.043474,-0.231373 0.22224,0.0021 -0.023392,2.463689 -0.2793874,-0.0027 z M 7.6148192,88.699694 q 0.2635131,0.0025 0.3728147,-0.139342 0.1125066,-0.144988 0.118515,-0.443394 l 5.426e-4,-0.05715 q 0.00307,-0.323835 -0.103303,-0.489953 -0.1063475,-0.169292 -0.3825601,-0.171915 -0.2285897,-0.0022 -0.3414278,0.177742 -0.1128081,0.176737 -0.1156718,0.478348 -0.00286,0.301612 0.1066286,0.474109 0.1126972,0.169353 0.3444618,0.171553 z m 2.029863,0.616079 -0.2549214,-0.09783 0.5676601,-1.479137 q 0.048916,-0.127461 0.081458,-0.203392 0.03254,-0.07593 0.07032,-0.156655 -0.06563,0.02923 -0.1166771,0.04704 -0.051048,0.01782 -0.1296714,0.04546 l -0.2958103,0.09732 -0.069235,-0.227217 0.7427311,-0.225075 0.216386,0.08304 z m 1.3611758,-0.401019 q 0.159339,-0.185416 0.343775,-0.336706 0.188913,-0.151629 0.397353,-0.223681 0.212918,-0.07239 0.441526,-0.02664 0.228608,0.04575 0.471816,0.254755 0.05057,0.04346 0.106629,0.100006 0.05847,0.05862 0.08665,0.103768 l -0.155201,0.180599 q -0.03093,-0.0517 -0.0801,-0.106515 -0.04677,-0.05275 -0.102151,-0.100344 -0.166152,-0.142785 -0.324515,-0.182591 -0.158362,-0.03981 -0.306152,6.41e-4 -0.145381,0.04252 -0.281883,0.1429 -0.136502,0.100384 -0.265818,0.236247 l 0.01445,0.01242 q 0.127811,-0.03669 0.276203,-0.0096 0.150462,0.02464 0.304573,0.157082 0.223944,0.192449 0.243246,0.447657 0.02137,0.2528 -0.193839,0.503232 -0.231767,0.269695 -0.513501,0.295507 -0.279326,0.02788 -0.529757,-0.18733 -0.163743,-0.140716 -0.225825,-0.336402 -0.06208,-0.195686 0.0033,-0.432534 0.0678,-0.234778 0.289219,-0.492433 z m 0.08402,1.081108 q 0.151703,0.130369 0.328389,0.114753 0.178755,-0.01802 0.354649,-0.222702 0.140716,-0.163744 0.13921,-0.332491 9.02e-4,-0.166677 -0.16525,-0.309462 -0.113175,-0.09726 -0.238842,-0.121527 -0.123597,-0.02667 -0.233838,0.0042 -0.107832,0.03292 -0.174051,0.109978 -0.08898,0.103544 -0.137028,0.242266 -0.04598,0.136315 -0.02205,0.274096 0.026,0.135374 0.148807,0.240911 z"
       id="text2"
       style="font-size:3.175px;letter-spacing:-0.0714375px;fill:#1a1a1a;stroke-width:0.465"
       aria-label="                          Seq16" />
    <path
       d="m 4.6109709,106.88119 q 0.1894238,0.23472 0.1246172,0.50326 -0.064807,0.26853 -0.3538902,0.50182 -0.148248,0.11964 -0.2922042,0.19909 -0.1439562,0.0795 -0.2598663,0.10772 L 3.658149,107.98059 q 0.1208518,-0.0323 0.2777253,-0.10581 0.1593443,-0.0756 0.3001799,-0.18921 0.197664,-0.15951 0.234684,-0.31586 0.039491,-0.15835 -0.066188,-0.2893 -0.069788,-0.0865 -0.1547042,-0.11587 -0.084916,-0.0294 -0.2162146,-0.005 -0.1308215,0.0199 -0.3372839,0.0927 -0.2906426,0.0999 -0.502479,0.075 -0.2093657,-0.0269 -0.3748622,-0.23195 -0.1136543,-0.14084 -0.1217585,-0.2975 -0.010098,-0.15912 0.072046,-0.31517 0.084615,-0.15804 0.2501586,-0.29164 0.1457772,-0.11764 0.2887796,-0.18816 0.1430025,-0.0705 0.2777253,-0.10581 l 0.084351,0.24608 q -0.1233226,0.0342 -0.253971,0.0948 -0.1281777,0.0586 -0.2443053,0.15227 -0.1655435,0.1336 -0.1917266,0.27304 -0.028177,0.13698 0.065538,0.25311 0.071782,0.0889 0.156698,0.11834 0.084916,0.0294 0.2068084,0.009 0.1218919,-0.0208 0.3090649,-0.0821 0.2015208,-0.0688 0.3616014,-0.0878 0.1605575,-0.0235 0.2886907,0.0241 0.1306039,0.0456 0.2422642,0.18393 z m 0.7343217,-1.54389 q 0.206163,-0.0741 0.3847856,-0.0371 0.1816104,0.0359 0.3183595,0.17235 0.1386631,0.13235 0.2170577,0.35046 l 0.056917,0.15836 -1.0965481,0.39412 q 0.1037005,0.26975 0.286714,0.36592 0.1849274,0.0921 0.4239569,0.006 0.1523814,-0.0548 0.2592432,-0.12354 0.1087758,-0.0728 0.2149362,-0.17172 l 0.08269,0.23006 q -0.1031725,0.0978 -0.2140961,0.16467 -0.1098497,0.0699 -0.2741825,0.12892 -0.2270781,0.0816 -0.4366533,0.0524 -0.2065873,-0.0303 -0.3706948,-0.17716 -0.1621936,-0.15088 -0.2577707,-0.4168 -0.094503,-0.26294 -0.075511,-0.48232 0.02198,-0.22045 0.143825,-0.37895 0.1248323,-0.15958 0.3369711,-0.23583 z m 0.074333,0.2162 q -0.1882358,0.0677 -0.2547571,0.22989 -0.064607,0.15818 -0.0082,0.38082 l 0.8156884,-0.29317 q -0.076013,-0.2021 -0.2137407,-0.2943 -0.1388017,-0.0952 -0.3389889,-0.0232 z m 2.6755413,1.16572 q 5.426e-4,-0.0572 0.00444,-0.13331 0.0039,-0.0762 0.013935,-0.13005 l -0.019049,-1.8e-4 q -0.074047,0.10725 -0.2049392,0.18221 -0.1277178,0.075 -0.3309086,0.0731 -0.3079611,-0.003 -0.4995474,-0.22383 -0.1883814,-0.22404 -0.1842215,-0.66217 0.00416,-0.43813 0.1999361,-0.65854 0.1989814,-0.22354 0.5101174,-0.22059 0.2000159,0.002 0.3262868,0.0793 0.1262708,0.0774 0.2014123,0.18925 l 0.012699,1.2e-4 0.043474,-0.23137 0.22224,0.002 -0.023392,2.46369 -0.2793874,-0.003 z M 7.6148192,106.4797 q 0.2635131,0.003 0.3728147,-0.13934 0.1125066,-0.14499 0.118515,-0.4434 l 5.426e-4,-0.0571 q 0.00307,-0.32384 -0.103303,-0.48996 -0.1063475,-0.16929 -0.3825601,-0.17191 -0.2285897,-0.002 -0.3414278,0.17774 -0.1128081,0.17674 -0.1156718,0.47835 -0.00286,0.30161 0.1066286,0.47411 0.1126972,0.16935 0.3444618,0.17155 z m 3.0611878,-0.84835 q -0.08191,0.21342 -0.249392,0.29538 -0.166347,0.079 -0.383839,0.0431 l -0.0046,0.0119 q 0.243545,0.12747 0.317988,0.30568 0.07444,0.1782 -0.0063,0.38866 -0.07053,0.18378 -0.212235,0.29604 -0.1405668,0.10929 -0.3520983,0.11993 -0.2085673,0.0118 -0.4901666,-0.0963 -0.1659954,-0.0637 -0.2980388,-0.14499 -0.133181,-0.0783 -0.2385788,-0.19359 l 0.093283,-0.24306 q 0.108362,0.1164 0.2477119,0.21409 0.1404874,0.0947 0.2827692,0.14933 0.2845635,0.10921 0.4511511,0.0473 0.1706895,-0.0637 0.2457705,-0.25936 0.07622,-0.1986 -0.04789,-0.34485 -0.1200112,-0.14808 -0.4016105,-0.25615 l -0.2045301,-0.0785 0.08532,-0.22231 0.2074942,0.0796 q 0.2608499,0.10011 0.4363297,0.0416 0.178445,-0.0573 0.247838,-0.23816 0.05916,-0.15414 -0.01274,-0.27695 -0.07076,-0.12578 -0.248609,-0.19404 -0.1719242,-0.066 -0.3127957,-0.0622 -0.1408714,0.004 -0.2890171,0.0353 l -0.062169,-0.22791 q 0.1467676,-0.0457 0.3377901,-0.0472 0.1939869,-3.7e-4 0.4074089,0.0815 0.331991,0.12741 0.435178,0.33705 0.106152,0.21077 0.01856,0.43902 z m 0.818417,2.76009 -1.136573,-0.97673 0.151063,-0.17578 0.841401,-0.0681 q 0.241776,-0.0183 0.417784,-0.0429 0.176009,-0.0246 0.304534,-0.0816 0.130595,-0.0594 0.229924,-0.175 0.122091,-0.14207 0.09989,-0.28674 -0.02013,-0.14707 -0.154978,-0.26295 -0.125215,-0.10761 -0.258783,-0.14704 -0.13116,-0.0374 -0.296107,-0.0451 l 0.0089,-0.23933 q 0.173563,0.003 0.353259,0.0566 0.184173,0.0536 0.347916,0.19433 0.2408,0.20693 0.274927,0.44976 0.0362,0.24042 -0.147976,0.45473 -0.115883,0.13485 -0.272665,0.20525 -0.156782,0.0704 -0.354838,0.10114 -0.195987,0.0283 -0.440172,0.0446 l -0.662984,0.0456 -0.0083,0.01 0.869286,0.74703 z"
       id="text3"
       style="font-size:3.175px;letter-spacing:-0.0714375px;fill:#1a1a1a;stroke-width:0.465"
       aria-label="                          Seq32" />
    <path
       d="m 3.5567934,99.575668 q -0.365125,0 -0.574675,0.244475 -0.20955,0.244477 -0.20955,0.669927 0,0.42227 0.193675,0.66992 0.19685,0.24448 0.587375,0.24448 0.149225,0 0.282575,-0.0254 0.13335,-0.0254 0.26035,-0.0635 v 0.24765 q -0.127,0.0476 -0.263525,0.0699 -0.13335,0.0222 -0.320675,0.0222 -0.346075,0 -0.57785,-0.14287 -0.231775,-0.14288 -0.34925,-0.4064 -0.1143,-0.26353 -0.1143,-0.61913 0,-0.3429 0.123825,-0.603247 0.127,-0.263525 0.371475,-0.409575 0.244475,-0.149225 0.593725,-0.149225 0.358775,0 0.625475,0.13335 l -0.1143,0.2413 q -0.104775,-0.04763 -0.23495,-0.08573 -0.127,-0.0381 -0.2794,-0.0381 z m 2.4082374,1.533522 h -0.3302 v 0.51435 h -0.269875 v -0.51435 h -1.08585 v -0.23812 l 1.0668,-1.527177 h 0.288925 v 1.514477 h 0.3302 z m -0.600075,-0.9652 q 0,-0.165097 0.00635,-0.279397 0.00635,-0.117475 0.00953,-0.22225 h -0.0127 q -0.0254,0.06033 -0.0635,0.130175 -0.0381,0.06985 -0.073025,0.117475 l -0.67945,0.968377 h 0.8128 z m 0.7191391,0.75248 v -0.24765 h 0.76835 v 0.24765 z m 2.9479891,-0.42863 q 0,0.57468 -0.314325,0.86678 -0.31115,0.28892 -0.86995,0.28892 H 7.215984 v -2.266947 h 0.6985 q 0.3429,0 0.593725,0.127 0.250825,0.127 0.38735,0.37465 0.136525,0.244477 0.136525,0.609597 z m -0.301625,0.01 q 0,-0.45403 -0.225425,-0.663577 -0.22225,-0.212725 -0.631825,-0.212725 H 7.501734 v 1.778002 h 0.307975 q 0.92075,0 0.92075,-0.9017 z m 1.947861,-0.23813 -0.09842,0.508 h 0.434975 v 0.21273 h -0.47625 l -0.130175,0.66357 H 10.18302 l 0.130175,-0.66357 H 9.8591702 l -0.123825,0.66357 h -0.22225 l 0.12065,-0.66357 h -0.40005 v -0.21273 h 0.441325 l 0.1016,-0.508 h -0.42545 v -0.20955 h 0.46355 l 0.127,-0.673097 H 10.17032 l -0.127,0.673097 h 0.4572 l 0.127,-0.673097 h 0.219075 l -0.127,0.673097 h 0.403225 v 0.20955 z m -0.7778748,0.508 H 10.35447 l 0.09843,-0.508 H 9.9988702 Z m 2.1066118,-0.51435 q 0.34925,0 0.555625,0.17463 0.206375,0.17462 0.206375,0.49212 0,0.35243 -0.225425,0.55563 -0.22225,0.20002 -0.6223,0.20002 -0.174625,0 -0.3302,-0.0317 -0.1524,-0.0318 -0.257175,-0.0921 v -0.26353 q 0.1143,0.0699 0.276225,0.11113 0.1651,0.0381 0.314325,0.0381 0.250825,0 0.403225,-0.11748 0.155575,-0.12065 0.155575,-0.37147 0,-0.22225 -0.136525,-0.33973 -0.136525,-0.12065 -0.4318,-0.12065 -0.0889,0 -0.2032,0.0159 -0.1143,0.0159 -0.18415,0.0317 l -0.1397,-0.0889 0.08573,-1.069977 h 1.13665 v 0.254 h -0.898525 l -0.05397,0.657227 q 0.05397,-0.01 0.14605,-0.0222 0.09207,-0.0127 0.2032,-0.0127 z"
       id="text5"
       style="font-size:3.175px;letter-spacing:-0.0714375px;fill:#999999;stroke-width:0.465"
       aria-label="C4-D#5" />
    <path
       d="m 4.6271495,117.45087 q -0.365125,0 -0.574675,0.24448 -0.20955,0.24447 -0.20955,0.66992 0,0.42228 0.193675,0.66993 0.19685,0.24447 0.587375,0.24447 0.149225,0 0.282575,-0.0254 0.13335,-0.0254 0.26035,-0.0635 v 0.24765 q -0.127,0.0476 -0.263525,0.0699 -0.13335,0.0222 -0.320675,0.0222 -0.346075,0 -0.57785,-0.14288 -0.231775,-0.14287 -0.34925,-0.4064 -0.1143,-0.26352 -0.1143,-0.61912 0,-0.3429 0.123825,-0.60325 0.127,-0.26353 0.371475,-0.40958 0.244475,-0.14922 0.593725,-0.14922 0.358775,0 0.625475,0.13335 l -0.1143,0.2413 q -0.104775,-0.0476 -0.23495,-0.0857 -0.127,-0.0381 -0.2794,-0.0381 z m 2.4082374,1.53353 h -0.3302 v 0.51435 H 6.4353119 V 118.9844 H 5.349462 v -0.23813 l 1.0667999,-1.52717 h 0.288925 v 1.51447 h 0.3302 z m -0.600075,-0.9652 q 0,-0.1651 0.00635,-0.2794 0.00635,-0.11748 0.00953,-0.22225 h -0.0127 q -0.0254,0.0603 -0.0635,0.13017 -0.0381,0.0698 -0.073025,0.11748 l -0.67945,0.96837 h 0.8127999 z m 0.7191391,0.75247 v -0.24765 h 0.76835 v 0.24765 z m 2.1161392,-0.4699 h 0.7842248 v 1.11125 q -0.1841498,0.0603 -0.3714748,0.0889 -0.187325,0.0286 -0.42545,0.0286 -0.352425,0 -0.593725,-0.1397 -0.2413,-0.14288 -0.3683,-0.40323 -0.123825,-0.26352 -0.123825,-0.6223 0,-0.3556 0.1397,-0.61595 0.1397,-0.26035 0.40005,-0.40322 0.263525,-0.14605 0.635,-0.14605 0.1905,0 0.358775,0.0349 0.17145,0.0349 0.3174998,0.0984 l -0.1079498,0.24765 q -0.12065,-0.054 -0.27305,-0.0921 -0.149225,-0.0381 -0.31115,-0.0381 -0.4064,0 -0.635,0.24448 -0.225425,0.24447 -0.225425,0.66992 0,0.26988 0.085725,0.47943 0.0889,0.20637 0.276225,0.32385 0.187325,0.1143 0.492125,0.1143 0.149225,0 0.254,-0.0159 0.104775,-0.0159 0.1905,-0.0381 v -0.6731 h -0.498475 z m 1.1223648,0.2286 q 0,-0.24447 0.04127,-0.47942 0.04445,-0.23813 0.155575,-0.42863 0.1143,-0.19367 0.3175,-0.30797 0.2032,-0.1143 0.523875,-0.1143 0.06668,0 0.14605,0.006 0.08255,0.006 0.13335,0.0222 v 0.23813 q -0.05715,-0.0191 -0.130175,-0.0286 -0.06985,-0.01 -0.142875,-0.01 -0.219075,0 -0.365125,0.073 -0.14605,0.073 -0.231775,0.20003 -0.08255,0.127 -0.12065,0.2921 -0.0381,0.1651 -0.04763,0.35242 h 0.01905 q 0.07303,-0.11112 0.2032,-0.18732 0.130175,-0.0794 0.333375,-0.0794 0.295275,0 0.47625,0.18098 0.180975,0.1778 0.180975,0.508 0,0.3556 -0.19685,0.5588 -0.193675,0.2032 -0.523875,0.2032 -0.2159,0 -0.390525,-0.10795 -0.174625,-0.10795 -0.2794,-0.3302 -0.1016,-0.22225 -0.1016,-0.56198 z m 0.76835,0.76518 q 0.200025,0 0.32385,-0.127 0.123825,-0.13018 0.123825,-0.40005 0,-0.2159 -0.111125,-0.3429 -0.10795,-0.127 -0.327025,-0.127 -0.149225,0 -0.26035,0.0635 -0.111125,0.0603 -0.174625,0.15557 -0.06033,0.0953 -0.06033,0.19685 0,0.13653 0.05397,0.27305 0.05398,0.13335 0.161925,0.22225 0.10795,0.0857 0.269875,0.0857 z"
       id="text6"
       style="font-size:3.175px;letter-spacing:-0.0714375px;fill:#999999;stroke-width:0.465"
       aria-label="C4-G6" />
  </g>
  <g
     inkscape:groupmode="layer"
     id="layer2"
     inkscape:label="components"
     style="display:none">
    <circle
       style="fill:#00ff00;stroke-width:0.465"
       id="cv"
       cx="7.6200004"
       cy="15.240001"
       r="5.0799999"
       inkscape:label="cv" />
    <circle
       style="fill:#0000ff;stroke-width:0.465"
       id="seq16"
       cx="7.6200004"
       cy="93.980003"
       r="5.0799999"
       inkscape:label="seq16" />
    <circle
       style="fill:#0000ff;stroke-width:0.465"
       id="seq3264"
       cx="7.6200004"
       cy="111.76001"
       r="5.0799999"
       inkscape:label="seq3264" />
  </g>
</svg>
