<?xml version="1.0" encoding="UTF-8" standalone="no"?>
<!-- Created with Inkscape (http://www.inkscape.org/) -->

<svg
   width="25.4mm"
   height="128.5mm"
   viewBox="0 0 25.399999 128.5"
   version="1.1"
   id="svg1"
   inkscape:version="1.3 (0e150ed6c4, 2023-07-21)"
   sodipodi:docname="nodiadau.svg"
   xmlns:inkscape="http://www.inkscape.org/namespaces/inkscape"
   xmlns:sodipodi="http://sodipodi.sourceforge.net/DTD/sodipodi-0.dtd"
   xmlns="http://www.w3.org/2000/svg"
   xmlns:svg="http://www.w3.org/2000/svg">
  <sodipodi:namedview
     id="namedview1"
     pagecolor="#ffffff"
     bordercolor="#000000"
     borderopacity="0.25"
     inkscape:showpageshadow="2"
     inkscape:pageopacity="0.0"
     inkscape:pagecheckerboard="0"
     inkscape:deskcolor="#d1d1d1"
     inkscape:document-units="mm"
     inkscape:zoom="2.3634906"
     inkscape:cx="-39.560133"
     inkscape:cy="240.32252"
     inkscape:window-width="3840"
     inkscape:window-height="2126"
     inkscape:window-x="-11"
     inkscape:window-y="-11"
     inkscape:window-maximized="1"
     inkscape:current-layer="layer1"
     showgrid="true">
    <inkscape:grid
       id="grid1"
       units="mm"
       originx="0"
       originy="0"
       spacingx="2.54"
       spacingy="2.54"
       empcolor="#0099e5"
       empopacity="0.30196078"
       color="#0099e5"
       opacity="0.14901961"
       empspacing="5"
       dotted="false"
       gridanglex="30"
       gridanglez="30"
       visible="true" />
  </sodipodi:namedview>
  <defs
     id="defs1" />
  <g
     inkscape:label="Layer 1"
     inkscape:groupmode="layer"
     id="layer1">
    <rect
       style="fill:#f2f2f2;stroke-width:0.465"
       id="rect23"
       width="25.4"
       height="128.5"
       x="0"
       y="0"
       sodipodi:insensitive="true" />
    <path
       style="font-size:3.175px;font-family:Code2003;-inkscape-font-specification:Code2003;letter-spacing:-0.322792px;fill:#333333;stroke-width:0.465"
       d="m 9.5690834,23.945204 q -0.4712891,0 -0.7255371,-0.282154 -0.2542481,-0.282153 -0.2542481,-0.803051 0,-0.5271 0.2542481,-0.806153 0.254248,-0.279052 0.7255371,-0.279052 0.1674316,0 0.2976562,0.04031 0.1302246,0.04031 0.2170414,0.120923 l 0.136425,-0.136426 0.10542,0.31626 v 0.341065 h -0.10542 Q 10.13339,22.165467 9.969059,22.050746 9.8047279,21.936024 9.5690834,21.936024 q -0.217041,0 -0.3720703,0.108521 -0.1550293,0.10852 -0.232544,0.322461 -0.077515,0.21394 -0.077515,0.492993 0,0.279052 0.077515,0.492993 0.077515,0.21394 0.232544,0.322461 0.1550293,0.10852 0.3720703,0.10852 0.254248,0 0.4340816,-0.09922 0.179834,-0.09922 0.303858,-0.347266 l 0.09922,0.09922 q -0.09922,0.248047 -0.303858,0.378271 -0.2046385,0.130225 -0.5333006,0.130225 z"
       id="text1"
       aria-label="C" />
    <g
       id="text2"
       style="font-size:3.175px;font-family:Code2003;-inkscape-font-specification:Code2003;letter-spacing:-0.322792px;fill:#333333;stroke-width:0.465"
       aria-label="C#">
      <path
         d="m 9.5690834,31.565203 q -0.4712891,0 -0.7255371,-0.282154 -0.2542481,-0.282153 -0.2542481,-0.803051 0,-0.5271 0.2542481,-0.806153 0.254248,-0.279052 0.7255371,-0.279052 0.1674316,0 0.2976562,0.04031 0.1302246,0.04031 0.2170414,0.120923 l 0.136425,-0.136426 0.10542,0.31626 v 0.341064 h -0.10542 Q 10.13339,29.785466 9.969059,29.670745 9.8047279,29.556023 9.5690834,29.556023 q -0.217041,0 -0.3720703,0.108521 -0.1550293,0.10852 -0.232544,0.32246 -0.077515,0.213941 -0.077515,0.492994 0,0.279052 0.077515,0.492993 0.077515,0.21394 0.232544,0.322461 0.1550293,0.10852 0.3720703,0.10852 0.254248,0 0.4340816,-0.09922 0.179834,-0.09922 0.303858,-0.347265 l 0.09922,0.09922 q -0.09922,0.248046 -0.303858,0.378271 -0.2046385,0.130225 -0.5333006,0.130225 z"
         id="path32"
         style="fill:#333333" />
      <path
         style="font-size:65%;baseline-shift:super;fill:#333333"
         d="m 10.526911,30.295203 0.14813,-0.382923 h -0.386953 l 0.05442,-0.141076 h 0.386953 l 0.139061,-0.362769 h -0.386953 l 0.05442,-0.141076 h 0.386953 l 0.148131,-0.382923 h 0.153169 l -0.148131,0.382923 h 0.374861 l 0.14813,-0.382923 h 0.153169 l -0.14813,0.382923 h 0.386953 l -0.05442,0.141076 h -0.386953 l -0.139062,0.362769 h 0.386953 l -0.05542,0.141076 H 11.35624 l -0.14813,0.382923 h -0.153169 l 0.14813,-0.382923 H 10.82821 l -0.14813,0.382923 z m 0.355715,-0.523999 h 0.37486 l 0.139062,-0.362769 h -0.374861 z"
         id="path33" />
    </g>
    <path
       d="m 8.5892982,39.185204 v -0.08062 l 0.2604493,-0.08062 v -1.847949 l -0.2604493,-0.08062 v -0.08062 H 9.519474 q 0.2263428,0 0.4185791,0.09147 0.1922359,0.09147 0.3193599,0.31781 0.08062,0.15813 0.111622,0.339514 0.03101,0.181384 0.03101,0.336413 0,0.15503 -0.03101,0.336414 -0.03101,0.181384 -0.111622,0.339514 -0.127124,0.226343 -0.3193599,0.31781 -0.1922363,0.09147 -0.4185791,0.09147 z M 9.1474037,39.023973 H 9.519474 q 0.1178223,0 0.2216919,-0.05426 0.1038696,-0.05426 0.1658814,-0.130225 0.062012,-0.07596 0.080615,-0.122473 0.062011,-0.130225 0.088366,-0.293005 0.02636,-0.162781 0.02636,-0.324012 0,-0.16123 -0.02636,-0.324011 -0.02636,-0.16278 -0.088366,-0.293005 -0.018604,-0.04651 -0.080615,-0.122473 -0.062012,-0.07597 -0.1658814,-0.130225 -0.1038696,-0.05426 -0.2216919,-0.05426 H 9.1474037 Z"
       id="text3"
       style="font-size:3.175px;font-family:Code2003;-inkscape-font-specification:Code2003;letter-spacing:-0.322792px;fill:#333333;stroke-width:0.465"
       aria-label="D" />
    <g
       id="text4"
       style="font-size:3.175px;font-family:Code2003;-inkscape-font-specification:Code2003;letter-spacing:-0.322792px;fill:#333333;stroke-width:0.465"
       aria-label="D#">
      <path
         d="m 8.5892982,46.98999 v -0.08062 L 8.8497475,46.82876 V 44.980811 L 8.5892982,44.900195 V 44.81958 H 9.519474 q 0.2263428,0 0.4185791,0.09147 0.1922359,0.09147 0.3193599,0.31781 0.08062,0.15813 0.111622,0.339515 0.03101,0.181384 0.03101,0.336413 0,0.155029 -0.03101,0.336414 -0.03101,0.181384 -0.111622,0.339514 -0.127124,0.226343 -0.3193599,0.31781 -0.1922363,0.09147 -0.4185791,0.09147 z M 9.1474037,46.82876 H 9.519474 q 0.1178223,0 0.2216919,-0.05426 0.1038696,-0.05426 0.1658814,-0.130225 0.062012,-0.07596 0.080615,-0.122473 0.062011,-0.130225 0.088366,-0.293006 0.02636,-0.16278 0.02636,-0.324011 0,-0.16123 -0.02636,-0.324011 -0.02636,-0.162781 -0.088366,-0.293005 Q 9.969059,45.24126 9.9070473,45.165295 9.8450355,45.089331 9.7411659,45.035071 9.6372963,44.980811 9.519474,44.980811 H 9.1474037 Z"
         id="path34"
         style="fill:#333333" />
      <path
         style="font-size:65%;baseline-shift:super;fill:#333333"
         d="m 10.52071,45.71999 0.14813,-0.382922 h -0.386953 l 0.05442,-0.141077 h 0.386953 l 0.139062,-0.362768 h -0.386953 l 0.05441,-0.141077 h 0.386953 l 0.14813,-0.382922 h 0.153169 l -0.14813,0.382922 h 0.374861 l 0.14813,-0.382922 h 0.153169 l -0.14813,0.382922 h 0.386953 l -0.05442,0.141077 h -0.386953 l -0.139061,0.362768 h 0.386953 l -0.05542,0.141077 h -0.385945 l -0.148131,0.382922 h -0.153169 l 0.148131,-0.382922 h -0.374861 l -0.14813,0.382922 z m 0.355714,-0.523999 h 0.374861 l 0.139061,-0.362768 h -0.37486 z"
         id="path35" />
    </g>
    <path
       d="m 8.5892982,54.425201 v -0.08062 l 0.2604493,-0.08062 v -1.847949 l -0.2604493,-0.08062 v -0.08062 h 1.6123048 v 0.471289 h -0.08061 L 9.9659584,52.416022 H 9.1474037 v 0.843359 h 0.651123 l 0.086816,-0.260449 h 0.080615 v 0.682129 h -0.080615 l -0.086816,-0.260449 h -0.651123 v 0.843359 h 0.8185547 l 0.1550296,-0.310059 h 0.08061 v 0.471289 z"
       id="text5"
       style="font-size:3.175px;font-family:Code2003;-inkscape-font-specification:Code2003;letter-spacing:-0.322792px;fill:#333333;stroke-width:0.465"
       aria-label="E" />
    <path
       d="m 8.5892982,62.0452 v -0.08062 l 0.2604493,-0.08062 v -1.847949 l -0.2604493,-0.08062 v -0.08062 h 1.6123048 v 0.471289 h -0.08061 L 9.9659584,60.036021 H 9.1474037 v 0.843359 h 0.651123 l 0.086816,-0.260449 h 0.080615 v 0.682129 h -0.080615 l -0.086816,-0.260449 h -0.651123 v 0.843359 l 0.2604492,0.08062 v 0.08062 z"
       id="text6"
       style="font-size:3.175px;font-family:Code2003;-inkscape-font-specification:Code2003;letter-spacing:-0.322792px;fill:#333333;stroke-width:0.465"
       aria-label="F" />
    <g
       id="text7"
       style="font-size:3.175px;font-family:Code2003;-inkscape-font-specification:Code2003;letter-spacing:-0.322792px;fill:#333333;stroke-width:0.465"
       aria-label="F#">
      <path
         d="m 8.5892982,69.665199 v -0.08061 l 0.2604493,-0.08062 V 67.65602 l -0.2604493,-0.08062 v -0.08062 h 1.6123048 v 0.471289 h -0.08061 L 9.9659584,67.65602 H 9.1474037 v 0.843359 h 0.651123 l 0.086816,-0.260449 h 0.080615 v 0.682129 h -0.080615 l -0.086816,-0.26045 h -0.651123 v 0.84336 l 0.2604492,0.08062 v 0.08061 z"
         id="path36"
         style="fill:#333333" />
      <path
         style="font-size:65%;baseline-shift:super;fill:#333333"
         d="m 10.322272,68.395199 0.148131,-0.382922 H 10.08345 l 0.05442,-0.141077 h 0.386953 l 0.139061,-0.362768 h -0.386953 l 0.05442,-0.141077 h 0.386953 l 0.148131,-0.382922 h 0.153169 l -0.148131,0.382922 h 0.374861 l 0.148131,-0.382922 h 0.153169 l -0.148131,0.382922 h 0.386953 l -0.05442,0.141077 H 11.345078 L 11.206017,67.8712 h 0.386953 l -0.05542,0.141077 h -0.385946 l -0.14813,0.382922 h -0.153169 l 0.14813,-0.382922 h -0.37486 l -0.148131,0.382922 z M 10.677987,67.8712 h 0.374861 l 0.139061,-0.362768 h -0.374861 z"
         id="path37" />
    </g>
    <path
       d="m 9.5690834,77.285194 q -0.4712891,0 -0.7255371,-0.282153 -0.2542481,-0.282153 -0.2542481,-0.803052 0,-0.527099 0.2542481,-0.806152 0.254248,-0.279053 0.7255371,-0.279053 0.1674316,0 0.2976562,0.04031 0.1302246,0.04031 0.2170414,0.120923 l 0.136425,-0.136426 0.10542,0.31626 v 0.341064 h -0.10542 Q 10.13339,75.505458 9.969059,75.390736 9.8047279,75.276015 9.5690834,75.276015 q -0.217041,0 -0.3720703,0.10852 -0.1550293,0.108521 -0.232544,0.322461 -0.077515,0.213941 -0.077515,0.492993 0,0.279053 0.077515,0.492993 0.077515,0.213941 0.232544,0.322461 0.1550293,0.108521 0.3720703,0.108521 h 0.05581 q 0.2294434,0 0.3317627,-0.08061 0.1023194,-0.08062 0.1023194,-0.173633 V 76.565858 L 9.9411537,76.398427 H 9.6496986 V 76.237196 H 10.76591 v 0.161231 h -0.291456 l -0.117822,0.167431 v 0.303858 q 0,0.223242 -0.164331,0.31936 -0.164331,0.09612 -0.5674071,0.09612 z"
       id="text8"
       style="font-size:3.175px;font-family:Code2003;-inkscape-font-specification:Code2003;letter-spacing:-0.322792px;fill:#333333;stroke-width:0.465"
       aria-label="G" />
    <g
       id="text9"
       style="font-size:3.175px;font-family:Code2003;-inkscape-font-specification:Code2003;letter-spacing:-0.322792px;fill:#333333;stroke-width:0.465"
       aria-label="G#">
      <path
         d="m 9.5690834,84.905197 q -0.4712891,0 -0.7255371,-0.282153 -0.2542481,-0.282153 -0.2542481,-0.803052 0,-0.5271 0.2542481,-0.806152 0.254248,-0.279053 0.7255371,-0.279053 0.1674316,0 0.2976562,0.04031 0.1302246,0.04031 0.2170414,0.120922 l 0.136425,-0.136425 0.10542,0.316259 v 0.341065 h -0.10542 Q 10.13339,83.125461 9.969059,83.010739 9.8047279,82.896017 9.5690834,82.896017 q -0.217041,0 -0.3720703,0.108521 -0.1550293,0.10852 -0.232544,0.322461 -0.077515,0.21394 -0.077515,0.492993 0,0.279053 0.077515,0.492993 0.077515,0.213941 0.232544,0.322461 0.1550293,0.108521 0.3720703,0.108521 h 0.05581 q 0.2294434,0 0.3317627,-0.08062 0.1023194,-0.08062 0.1023194,-0.173632 V 84.185861 L 9.9411537,84.01843 H 9.6496986 V 83.857199 H 10.76591 v 0.161231 h -0.291456 l -0.117822,0.167431 v 0.303858 q 0,0.223242 -0.164331,0.31936 -0.164331,0.09612 -0.5674071,0.09612 z"
         id="path38"
         style="fill:#333333" />
      <path
         style="font-size:65%;baseline-shift:super;fill:#333333"
         d="m 10.886579,83.635197 0.14813,-0.382922 h -0.386953 l 0.05442,-0.141077 h 0.386953 l 0.139062,-0.362768 h -0.386953 l 0.05441,-0.141077 h 0.386953 l 0.14813,-0.382922 H 11.5839 l -0.14813,0.382922 h 0.374861 l 0.14813,-0.382922 h 0.153169 l -0.14813,0.382922 h 0.386953 l -0.05442,0.141077 h -0.386953 l -0.139061,0.362768 h 0.386953 l -0.05542,0.141077 h -0.385945 l -0.148131,0.382922 h -0.153169 l 0.148131,-0.382922 h -0.374861 l -0.14813,0.382922 z m 0.355714,-0.523999 h 0.374861 l 0.139061,-0.362768 h -0.37486 z"
         id="path39" />
    </g>
    <path
       d="m 8.5892982,92.525192 v -0.08062 l 0.2604493,-0.08061 0.7689453,-2.00918 h 0.031006 l 0.8433594,2.00918 0.260449,0.08061 v 0.08062 h -0.719336 l 0.161231,-0.16123 -0.1984378,-0.471289 H 9.2218178 l -0.179834,0.471289 0.1612305,0.16123 z m 0.703833,-0.818554 H 9.9194496 L 9.5923378,90.92684 Z"
       id="text10"
       style="font-size:3.175px;font-family:Code2003;-inkscape-font-specification:Code2003;letter-spacing:-0.322792px;fill:#333333;stroke-width:0.465"
       aria-label="A" />
    <g
       id="text11"
       style="font-size:3.175px;font-family:Code2003;-inkscape-font-specification:Code2003;letter-spacing:-0.322792px;fill:#333333;stroke-width:0.465"
       aria-label="A#">
      <path
         d="m 8.5892982,100.1452 v -0.0806 l 0.2604493,-0.08062 0.7689453,-2.009179 h 0.031006 l 0.8433594,2.009179 0.260449,0.08062 v 0.0806 H 10.034171 L 10.195402,99.983972 9.9969642,99.512683 H 9.2218178 l -0.179834,0.471289 0.1612305,0.161228 z m 0.703833,-0.818552 H 9.9194496 L 9.5923378,98.546851 Z"
         id="path40"
         style="fill:#333333" />
      <path
         style="font-size:65%;baseline-shift:super;fill:#333333"
         d="m 10.874176,98.875203 0.148131,-0.382923 h -0.386953 l 0.05442,-0.141076 h 0.386953 l 0.139061,-0.362769 H 10.82883 l 0.05442,-0.141076 h 0.386953 l 0.14813,-0.382923 h 0.153169 l -0.14813,0.382923 h 0.37486 l 0.148131,-0.382923 h 0.153169 l -0.148131,0.382923 h 0.386953 l -0.05442,0.141076 h -0.386953 l -0.139061,0.362769 h 0.386953 l -0.05542,0.141076 h -0.385946 l -0.14813,0.382923 h -0.153169 l 0.148131,-0.382923 h -0.374861 l -0.148131,0.382923 z m 0.355715,-0.523999 h 0.374861 l 0.139061,-0.362769 h -0.374861 z"
         id="path41" />
    </g>
    <path
       d="m 8.5892982,107.7652 v -0.0806 l 0.2604493,-0.0806 v -1.84795 l -0.2604493,-0.0806 v -0.0806 h 0.973584 q 0.2232422,0 0.3658692,0.062 0.1426266,0.062 0.2170406,0.19844 0.07441,0.13642 0.07441,0.32246 0,0.16743 -0.05736,0.28215 -0.05736,0.11472 -0.159681,0.16433 0.10232,0.0233 0.189136,0.0806 0.08837,0.0558 0.150379,0.17673 0.06356,0.12092 0.06356,0.30076 0,0.18603 -0.07441,0.32246 -0.07442,0.13642 -0.217041,0.19844 -0.1426274,0.062 -0.4402837,0.062 z m 0.5581055,-0.16123 h 0.5270996 q 0.1612305,0 0.2619995,-0.0527 0.1007692,-0.0527 0.1364262,-0.13953 0.03566,-0.0868 0.03566,-0.22944 0,-0.14263 -0.03566,-0.22945 -0.03566,-0.0868 -0.1364262,-0.13952 -0.100769,-0.0527 -0.2619995,-0.0527 H 9.1474037 Z m 0,-1.00459 h 0.4154785 q 0.1674317,0 0.2356445,-0.0543 0.068213,-0.0543 0.096118,-0.13953 0.027905,-0.0853 0.027905,-0.22789 0,-0.14263 -0.027905,-0.2279 -0.027905,-0.0853 -0.096118,-0.13952 -0.068213,-0.0543 -0.2356445,-0.0543 H 9.1474037 Z"
       id="text12"
       style="font-size:3.175px;font-family:Code2003;-inkscape-font-specification:Code2003;letter-spacing:-0.322792px;fill:#333333;stroke-width:0.465"
       aria-label="B" />
    <path
       d="m 18.391504,32.710316 -0.03845,-0.03755 0.08288,-0.161762 -0.881291,-0.860856 -0.159774,0.08666 -0.03845,-0.03755 0.381319,-0.390371 0.03845,0.03755 -0.08288,0.161763 0.88129,0.860856 0.159774,-0.08666 0.03845,0.03755 z m 0.645887,-0.56443 q -0.111672,0.07093 -0.237562,0.08477 -0.12589,0.01384 -0.233954,-0.05221 -0.108063,-0.06605 -0.178988,-0.177719 -0.07093,-0.111672 -0.08477,-0.237562 -0.01384,-0.125891 0.05221,-0.233954 0.06605,-0.108063 0.17772,-0.178989 0.111672,-0.07092 0.237562,-0.08477 0.12589,-0.01384 0.233954,0.05221 0.108063,0.06605 0.178988,0.177719 0.07093,0.111673 0.08477,0.237563 0.01384,0.12589 -0.05221,0.233953 -0.06605,0.108064 -0.177719,0.178989 z m -0.05763,-0.09073 q 0.06805,-0.04322 0.09974,-0.114771 0.03169,-0.07155 0.01243,-0.159714 -0.01926,-0.08816 -0.07689,-0.178897 -0.05763,-0.09073 -0.129237,-0.145651 -0.07161,-0.05492 -0.149846,-0.05665 -0.07824,-0.0017 -0.146286,0.04149 -0.06805,0.04322 -0.09974,0.114771 -0.03169,0.07155 -0.01243,0.159715 0.01926,0.08816 0.07689,0.178897 0.05763,0.09073 0.129237,0.145651 0.07161,0.05492 0.149846,0.05665 0.07824,0.0017 0.146286,-0.04149 z m 0.313219,-0.130466 -0.01086,-0.05264 0.159196,-0.08771 -0.146983,-0.712605 -0.06349,-0.04178 -0.05264,0.01086 -0.01044,-0.05061 0.299618,-0.0618 0.02881,0.139687 q 0.02147,-0.06986 0.08722,-0.124575 0.06575,-0.05472 0.158874,-0.07393 0.113369,-0.02338 0.204242,-0.01258 0.09188,0.0106 0.154137,0.08218 0.06327,0.07137 0.08331,0.168547 l 0.103557,0.502062 0.18091,0.01756 0.01086,0.05264 -0.469671,0.09688 0.08356,-0.126985 -0.103556,-0.502062 q -0.02493,-0.100387 -0.08074,-0.145861 -0.05581,-0.04547 -0.144887,-0.0271 -0.08503,0.01754 -0.143337,0.06228 -0.05831,0.04474 -0.09608,0.168613 l 0.111073,0.538502 0.126985,0.08356 z m 1.399182,-1.25426 q -0.04533,-0.0037 -0.07184,-0.03485 -0.02651,-0.03118 -0.02284,-0.07651 0.0037,-0.04533 0.03485,-0.07184 0.03118,-0.02651 0.07651,-0.02284 0.04533,0.0037 0.07184,0.03485 0.02651,0.03118 0.02284,0.07651 -0.0037,0.04533 -0.03485,0.07184 -0.03118,0.02651 -0.07651,0.02284 z m -0.36,1.065842 0.0043,-0.05357 0.177403,-0.03956 0.05752,-0.710812 -0.06059,-0.07127 0.0043,-0.05357 0.19161,0.01551 0.06911,0.04292 -0.06419,0.793225 0.168732,0.06757 -0.0043,0.05357 z m 0.713484,0.09665 q -0.166255,-0.05012 -0.216953,-0.154026 -0.0507,-0.103908 -0.02201,-0.21826 0.04523,-0.14185 0.148983,-0.188289 0.103755,-0.04644 0.224064,-0.01603 0.151208,0.05008 0.190123,0.153814 l 0.02922,-0.101289 q 0.02869,-0.114351 0.0044,-0.179434 -0.02425,-0.06508 -0.112477,-0.09484 -0.06413,-0.01635 -0.123519,0.0031 -0.05939,0.01944 -0.09449,0.08891 l -0.14101,-0.04068 q 0.05306,-0.09441 0.162062,-0.140413 0.109007,-0.046 0.226758,-0.01418 0.157738,0.04981 0.234714,0.148392 0.07698,0.09858 0.03419,0.284164 l -0.135225,0.46871 0.04098,0.07421 -0.0149,0.05164 -0.158885,-0.04584 -0.07619,-0.07146 q -0.06623,0.02822 -0.199869,-0.0082 z m 0.0298,-0.103275 q 0.08257,0.01952 0.140667,0.0083 0.05809,-0.01121 0.07983,-0.07163 l 0.0318,-0.110226 q 0.007,-0.06145 -0.03534,-0.112387 -0.04232,-0.05093 -0.14246,-0.08413 -0.06271,-0.01379 -0.119166,0.02155 -0.05645,0.03535 -0.08449,0.117615 -0.0178,0.07662 0.01256,0.139159 0.03036,0.06254 0.116602,0.09173 z m 0.287264,0.133427 0.03088,-0.04399 0.172994,0.05577 0.418021,-0.59554 -0.01311,-0.07486 -0.04399,-0.03088 0.02969,-0.0423 0.250398,0.175759 -0.08194,0.11674 q 0.06558,-0.03226 0.150487,-0.02191 0.08491,0.01036 0.162737,0.06498 0.09474,0.0665 0.149178,0.140067 0.05528,0.07416 0.04584,0.168552 -0.0086,0.09499 -0.06559,0.176199 l -0.294515,0.419585 0.111241,0.143744 -0.03088,0.04399 -0.392515,-0.275514 0.149731,-0.02622 0.294515,-0.419585 q 0.05599,-0.08697 0.05084,-0.158775 -0.0052,-0.07181 -0.0796,-0.12406 -0.07106,-0.04988 -0.143606,-0.06165 -0.07255,-0.01178 -0.188619,0.04565 l -0.315891,0.450039 0.02622,0.14973 z"
       id="text13"
       style="font-size:2.11667px;font-family:Code2003;-inkscape-font-specification:Code2003;letter-spacing:-0.322792px;fill:#333333;stroke-width:0.465"
       aria-label="                   Ionian" />
    <path
       d="m 18.354009,42.82725 -0.03324,-0.04223 0.10321,-0.149615 -0.761896,-0.968121 -0.169684,0.06515 -0.03324,-0.04223 0.48731,-0.383505 q 0.118579,-0.09332 0.257001,-0.124658 0.138422,-0.03134 0.29834,0.03483 0.107429,0.04961 0.198456,0.131848 0.09103,0.08224 0.154945,0.16346 0.06392,0.08122 0.122457,0.189027 0.05854,0.107809 0.0815,0.223889 0.02672,0.170991 -0.03628,0.298167 -0.063,0.127177 -0.181578,0.220496 z m 0.225911,-0.31457 0.194924,-0.153402 q 0.06173,-0.04858 0.09377,-0.119828 0.03205,-0.07125 0.03321,-0.136615 0.0012,-0.06536 -0.0083,-0.0974 -0.0212,-0.09379 -0.07451,-0.189935 -0.05331,-0.09614 -0.11978,-0.180612 -0.06647,-0.08447 -0.147395,-0.158881 -0.08092,-0.07441 -0.167098,-0.117069 -0.02892,-0.0167 -0.09273,-0.03093 -0.06381,-0.01423 -0.140595,1.69e-4 -0.07679,0.0144 -0.138513,0.06298 l -0.194924,0.153402 z m 1.056259,-0.48539 q -0.126183,0.03974 -0.251385,0.02066 -0.125203,-0.01908 -0.212586,-0.110757 -0.08738,-0.09167 -0.127122,-0.217855 -0.03974,-0.126183 -0.02066,-0.251385 0.01908,-0.125203 0.110756,-0.212586 0.09167,-0.08738 0.217856,-0.127122 0.126182,-0.03974 0.251385,-0.02066 0.125203,0.01908 0.212586,0.110756 0.08738,0.09167 0.127122,0.217856 0.03974,0.126182 0.02066,0.251385 -0.01908,0.125203 -0.110757,0.212586 -0.09167,0.08738 -0.217855,0.127122 z m -0.03229,-0.102523 q 0.07689,-0.02422 0.125959,-0.08518 0.04907,-0.06096 0.05318,-0.151112 0.0041,-0.09015 -0.02817,-0.192672 -0.03229,-0.102523 -0.08732,-0.174045 -0.05503,-0.07152 -0.130176,-0.09337 -0.07514,-0.02184 -0.152037,0.0024 -0.07689,0.02422 -0.125958,0.08518 -0.04907,0.06096 -0.05318,0.151112 -0.0041,0.09015 0.02817,0.192672 0.03229,0.102523 0.08732,0.174045 0.05503,0.07152 0.130176,0.09337 0.07514,0.02184 0.152037,-0.0024 z m 0.335219,-0.02149 7.55e-4,-0.05374 0.174371,-0.0513 0.01023,-0.727533 -0.172861,-0.05618 7.27e-4,-0.05167 0.29556,0.0042 0.0754,0.07755 -7.84e-4,0.0558 q 0.07711,-0.0444 0.192447,-0.08722 0.116369,-0.04281 0.235213,-0.04114 0.05787,8.13e-4 0.106182,0.0201 0.04936,0.01827 0.06754,0.0485 0.01923,0.02921 0.01882,0.05815 -6.39e-4,0.04547 -0.02177,0.07825 -0.02113,0.03278 -0.0648,0.05077 -0.04367,0.01799 -0.09947,0.01721 -0.03927,-5.52e-4 -0.07513,-0.02276 -0.03483,-0.0222 -0.053,-0.05346 -0.01712,-0.03228 -0.02884,-0.08103 -0.05994,-8.42e-4 -0.129629,0.03022 -0.06969,0.03106 -0.148971,0.08266 l -0.0084,0.600422 0.17286,0.05618 -7.55e-4,0.05374 z m 1.375923,-0.967298 q -0.044,-0.01147 -0.06471,-0.04677 -0.02071,-0.0353 -0.0092,-0.07931 0.01147,-0.04401 0.04677,-0.06471 0.0353,-0.0207 0.07931,-0.0092 0.044,0.01147 0.06471,0.04677 0.0207,0.0353 0.0092,0.07931 -0.01147,0.04401 -0.04677,0.06471 -0.0353,0.0207 -0.07931,0.0092 z m -0.539295,0.98731 0.01355,-0.05201 0.181575,-0.0082 0.17986,-0.690082 -0.04733,-0.08069 0.01356,-0.05201 0.186022,0.04848 0.06062,0.05425 -0.200713,0.770091 0.154465,0.0958 -0.01355,0.05201 z m 0.685938,0.218838 q -0.155055,-0.07817 -0.186978,-0.189293 -0.03192,-0.111122 0.01615,-0.218771 0.06913,-0.131866 0.179359,-0.159622 0.110234,-0.02776 0.223453,0.02304 0.140241,0.07552 0.16059,0.184435 l 0.04633,-0.09469 q 0.04807,-0.107649 0.03547,-0.17595 -0.0126,-0.0683 -0.09434,-0.112897 -0.06032,-0.02722 -0.122186,-0.01836 -0.06186,0.0089 -0.108473,0.07119 l -0.131827,-0.0645 q 0.06861,-0.08379 0.183944,-0.110204 0.115329,-0.02641 0.225784,0.02533 0.146719,0.07639 0.205446,0.186823 0.05873,0.11043 -0.01557,0.285789 l -0.214406,0.438183 0.0275,0.08019 -0.02362,0.04827 -0.148537,-0.07268 -0.06266,-0.08359 q -0.07012,0.01632 -0.195427,-0.0427 z m 0.04724,-0.09655 q 0.07794,0.03354 0.137099,0.03256 0.05916,-9.7e-4 0.09103,-0.05671 l 0.05042,-0.103048 q 0.01752,-0.05931 -0.01533,-0.116811 -0.03285,-0.0575 -0.125725,-0.107543 -0.05938,-0.02445 -0.121098,5.78e-4 -0.06172,0.02503 -0.103594,0.101193 -0.03081,0.07237 -0.01175,0.139231 0.01906,0.06686 0.09894,0.110546 z m 0.259796,0.181193 0.03803,-0.03797 0.160712,0.0849 0.514903,-0.514086 6e-5,-0.07601 -0.03797,-0.03803 0.03657,-0.03651 0.21615,0.216493 -0.100933,0.100773 q 0.07017,-0.02041 0.152006,0.0045 0.08183,0.02491 0.149014,0.0922 0.08179,0.08192 0.122647,0.1638 0.04159,0.08261 0.01594,0.173947 -0.02492,0.09206 -0.09513,0.162166 l -0.362772,0.362197 0.08465,0.160847 -0.03803,0.03797 -0.33883,-0.339367 0.15201,1.2e-4 0.362772,-0.362197 q 0.07022,-0.07595 0.07758,-0.147563 0.0074,-0.07162 -0.0569,-0.135977 -0.06134,-0.06144 -0.130749,-0.08561 -0.06941,-0.02417 -0.193676,0.01227 l -0.389102,0.388485 -1.21e-4,0.15201 z"
       id="text14"
       style="font-size:2.11667px;font-family:Code2003;-inkscape-font-specification:Code2003;letter-spacing:-0.322792px;fill:#333333;stroke-width:0.465"
       aria-label="                   Dorian" />
    <path
       d="m 17.897256,53.911682 -0.04759,-0.02496 0.03305,-0.17873 -1.091019,-0.572208 -0.128242,0.128806 -0.0476,-0.02496 0.301466,-0.574799 q 0.06913,-0.131801 0.149901,-0.196806 0.08077,-0.065 0.184362,-0.06669 0.103587,-0.0017 0.213421,0.05591 0.109834,0.0576 0.167337,0.143782 0.0575,0.08618 0.04995,0.189585 -0.0076,0.103408 -0.07668,0.235209 l -0.128651,0.245296 0.497915,0.261142 0.128241,-0.128806 0.0476,0.02496 z m -0.51548,-0.690492 0.128651,-0.245297 q 0.05185,-0.09885 0.04093,-0.155924 -0.01091,-0.05707 -0.05261,-0.09995 -0.0417,-0.04288 -0.125906,-0.08704 -0.08421,-0.04416 -0.143187,-0.05409 -0.05898,-0.0099 -0.112139,0.01354 -0.05316,0.02347 -0.105001,0.122322 l -0.128651,0.245296 z m 0.922865,-0.170499 -0.03449,-0.04122 0.09867,-0.152645 -0.79061,-0.944818 -0.07571,-0.0067 -0.04122,0.03449 -0.03449,-0.04122 0.23462,-0.196326 0.416529,0.497773 q -0.01417,-0.07169 0.01782,-0.151025 0.032,-0.07933 0.104917,-0.140351 0.08878,-0.07429 0.173928,-0.107806 0.08594,-0.03418 0.174674,-6.2e-4 0.08952,0.0329 0.153196,0.108993 l 0.328978,0.393146 0.167652,-0.07021 0.03449,0.04122 -0.367782,0.307755 0.01346,-0.151414 -0.328979,-0.393145 q -0.0695,-0.07661 -0.140189,-0.09023 -0.07069,-0.01362 -0.140443,0.04475 -0.06658,0.05571 -0.09675,0.122735 -0.03017,0.06702 -0.0048,0.194006 l 0.352856,0.42168 0.151413,0.01346 z m 0.814423,-0.689939 -0.01714,-0.05094 0.147434,-0.106302 -0.232001,-0.689627 -0.181707,0.0044 -0.01648,-0.04898 0.280161,-0.09425 0.09688,0.0481 0.0178,0.0529 q 0.05799,-0.06749 0.152552,-0.14619 0.09554,-0.07903 0.208195,-0.11693 0.05486,-0.01845 0.106829,-0.01631 0.05262,8.34e-4 0.07981,0.02331 0.02784,0.02117 0.03707,0.0486 0.0145,0.0431 0.0055,0.08104 -0.009,0.03794 -0.04426,0.06941 -0.03521,0.03147 -0.08811,0.04927 -0.03722,0.01252 -0.07843,0.0035 -0.04023,-0.0094 -0.06774,-0.03282 -0.02687,-0.02476 -0.05411,-0.06685 -0.05682,0.01911 -0.112232,0.07156 -0.05542,0.05245 -0.113058,0.127451 l 0.191467,0.569138 0.181706,-0.0044 0.01714,0.05094 z m 1.097394,0.199526 q -0.103178,-0.006 -0.16086,-0.04663 -0.05768,-0.04063 -0.08674,-0.110646 -0.02906,-0.07002 -0.02425,-0.152562 0.0023,-0.03921 0.01932,-0.06513 0.01704,-0.02593 0.04477,-0.03984 0.02773,-0.01392 0.06694,-0.01163 0.03921,0.0023 0.06513,0.01932 0.02593,0.01704 0.03984,0.04476 0.01392,0.02773 0.01163,0.06694 -0.0028,0.04746 -0.0272,0.07606 -0.02444,0.0286 -0.05594,0.03609 0.0023,0.03222 0.02904,0.05242 0.02678,0.02019 0.08456,0.02356 0.07841,0.0046 0.113654,-0.03169 0.03524,-0.03625 0.05403,-0.0745 l 0.126564,-0.253525 -0.379505,-0.879296 -0.170218,-0.06374 0.003,-0.05159 0.460176,0.02678 -0.111366,0.09912 0.291742,0.679557 0.319074,-0.64401 -0.09912,-0.111367 0.402396,0.02342 -0.003,0.05159 -0.176462,0.04357 -0.539469,1.086707 q -0.07226,0.138663 -0.141664,0.175 -0.06941,0.03634 -0.156078,0.03129 z m 1.047381,0.312454 q -0.148041,-0.07368 -0.23973,-0.167808 -0.09169,-0.09412 -0.115913,-0.198539 -0.02423,-0.104415 0.01077,-0.174735 0.03132,-0.06292 0.08299,-0.113392 0.05168,-0.05047 0.118198,-0.07047 0.06652,-0.02 0.159922,-0.0012 -0.03058,-0.04293 -0.03251,-0.08545 -0.0019,-0.04252 0.02016,-0.09618 0.02579,-0.05181 0.06873,-0.07547 0.04294,-0.02365 0.09749,-0.01728 -0.02417,-0.07206 -0.02336,-0.13862 8.04e-4,-0.06656 0.04131,-0.157226 0.04053,-0.08142 0.117645,-0.120389 0.07712,-0.03897 0.168186,-0.03174 0.09107,0.0072 0.198398,0.06065 0.07772,0.03868 0.136059,0.09312 0.05834,0.05444 0.08991,0.13018 l 0.0251,0.07483 q 0.07489,0.0049 0.121539,-0.01224 0.04711,-0.01811 0.08633,-0.05747 l 0.04811,0.02395 -0.02395,0.04811 q -0.02072,0.04164 -0.04933,0.07127 -0.02814,0.02871 -0.06785,0.05051 -0.03971,0.0218 -0.09885,0.03392 -0.0054,0.06657 -0.04409,0.153534 -0.03868,0.07772 -0.103326,0.114816 -0.06464,0.03709 -0.14876,0.0391 -0.08412,0.002 -0.172943,-0.04221 -0.06847,-0.03639 -0.122637,-0.08297 -0.05324,-0.04612 -0.09311,-0.112147 -0.04069,-0.0087 -0.06886,0.0038 -0.02817,0.01253 -0.04107,0.03844 -0.01197,0.02406 -0.0068,0.05779 0.0051,0.03373 0.03107,0.05587 l 0.109214,0.07283 q 0.133253,0.07556 0.211025,0.141977 0.09907,0.08856 0.136169,0.153205 0.03709,0.06464 0.04462,0.137658 0.0075,0.07301 -0.03024,0.148886 -0.07833,0.136494 -0.249792,0.144664 -0.17054,0.0086 -0.389813,-0.09358 z m 0.0479,-0.09623 q 0.125835,0.06263 0.216443,0.07079 0.09061,0.0082 0.155266,-0.0197 0.06466,-0.02785 0.08676,-0.07226 0.01842,-0.03701 0.01649,-0.08184 -0.0019,-0.04483 -0.02234,-0.08501 -0.02041,-0.04017 -0.05654,-0.08125 -0.08893,-0.104297 -0.213852,-0.17109 l -0.103629,-0.05158 q -0.05829,-0.0267 -0.122967,-0.01041 -0.06468,0.01629 -0.105742,0.05705 -0.04106,0.04075 -0.06501,0.08886 -0.01474,0.02961 -0.0049,0.10262 0.0098,0.07301 0.07421,0.143149 0.06437,0.07014 0.145797,0.110666 z m 0.470241,-0.666438 q 0.05182,0.02579 0.09896,0.02386 0.04807,-0.0015 0.08499,-0.03158 0.03785,-0.02965 0.05995,-0.07406 0.02579,-0.05181 0.03355,-0.106832 0.0078,-0.05502 -0.0048,-0.113232 -0.01258,-0.05822 -0.03067,-0.09146 -0.01994,-0.03417 -0.03661,-0.05401 -0.01668,-0.01984 -0.04214,-0.0406 -0.02546,-0.02075 -0.05877,-0.03733 -0.04071,-0.02026 -0.09618,-0.02247 -0.05547,-0.0022 -0.100697,0.03531 -0.04523,0.03752 -0.05997,0.06713 -0.03132,0.06292 -0.03768,0.122092 -0.0064,0.05917 0.0076,0.112303 0.02509,0.07252 0.07418,0.126972 0.04909,0.05445 0.108309,0.08393 z m 1.021978,-0.22112 q -0.03408,-0.03012 -0.03659,-0.07096 -0.0025,-0.04085 0.02759,-0.07492 0.03012,-0.03408 0.07096,-0.03659 0.04085,-0.0025 0.07492,0.02759 0.03407,0.03012 0.03659,0.07096 0.0025,0.04085 -0.02759,0.07492 -0.03012,0.03408 -0.07096,0.0366 -0.04085,0.0025 -0.07492,-0.02759 z m -0.927204,0.637112 0.03559,-0.04027 0.165695,0.07471 0.472254,-0.534359 -0.0058,-0.09337 0.03559,-0.04027 0.144044,0.127303 0.02957,0.07579 -0.527008,0.596312 0.09452,0.155255 -0.03559,0.04027 z m 0.51305,0.505153 q -0.103005,-0.139795 -0.08128,-0.253352 0.02173,-0.113557 0.113253,-0.187871 0.121248,-0.0864 0.232129,-0.06136 0.110881,0.02505 0.188933,0.121518 0.09098,0.130741 0.05993,0.237095 l 0.08412,-0.06354 q 0.09152,-0.07431 0.11114,-0.140941 0.01962,-0.06663 -0.03315,-0.143342 -0.04152,-0.05154 -0.100705,-0.07159 -0.05919,-0.02005 -0.128936,0.0145 l -0.08846,-0.117107 q 0.09907,-0.04375 0.21389,-0.0152 0.11482,0.02855 0.189976,0.124615 0.09637,0.134443 0.09887,0.259493 0.0025,0.125049 -0.14302,0.247918 l -0.389257,0.294029 -0.0117,0.08396 -0.04288,0.03239 -0.09967,-0.131951 -0.01813,-0.102879 q -0.06993,-0.01712 -0.155049,-0.126387 z m 0.08577,-0.06479 q 0.05438,0.06513 0.107593,0.091 0.05321,0.02586 0.106835,-0.0095 l 0.09154,-0.06915 q 0.04243,-0.045 0.0391,-0.111136 -0.0033,-0.06614 -0.06357,-0.152746 -0.04192,-0.04864 -0.108293,-0.0542 -0.06637,-0.0056 -0.138139,0.04347 -0.06019,0.05064 -0.07339,0.118901 -0.0132,0.06826 0.03832,0.143324 z m 0.149898,0.279026 0.05109,-0.01669 0.105011,0.148356 0.691626,-0.225969 0.03439,-0.06778 -0.01669,-0.05109 0.04912,-0.01605 0.09501,0.290797 -0.135574,0.0443 q 0.07182,0.0135 0.13357,0.0727 0.06175,0.0592 0.09128,0.149582 0.03595,0.110031 0.0354,0.201542 -2.25e-4,0.09249 -0.06438,0.162381 -0.06383,0.07087 -0.158142,0.101684 l -0.487282,0.159206 0.0028,0.181738 -0.05109,0.01669 -0.148934,-0.455845 0.135554,0.06879 0.487282,-0.159205 q 0.09696,-0.03603 0.135887,-0.09659 0.03893,-0.06056 0.01068,-0.147013 -0.02696,-0.08252 -0.07796,-0.135449 -0.051,-0.05293 -0.178323,-0.07656 l -0.522649,0.17076 -0.06879,0.135554 z"
       id="text15"
       style="font-size:2.11667px;font-family:Code2003;-inkscape-font-specification:Code2003;letter-spacing:-0.322792px;fill:#333333;stroke-width:0.465"
       aria-label="                 Phrygian" />
    <path
       d="m 18.363292,63.158875 -0.03433,-0.04135 0.09927,-0.152255 -0.786877,-0.947928 -0.167928,0.06955 -0.03433,-0.04135 0.419888,-0.34855 0.03433,0.04135 -0.09927,0.152255 0.786878,0.947929 0.419888,-0.34855 -0.0525,-0.225062 0.04135,-0.03433 0.20068,0.241754 z m 1.15771,-0.25 q -0.09893,0.02992 -0.167076,0.01166 -0.06815,-0.01826 -0.119553,-0.07398 -0.0514,-0.05572 -0.07534,-0.13486 -0.01137,-0.03759 -0.0043,-0.0678 0.0071,-0.03021 0.02829,-0.05283 0.02123,-0.02262 0.05883,-0.03399 0.03759,-0.01137 0.0678,-0.0043 0.03021,0.0071 0.05283,0.02829 0.02262,0.02123 0.03399,0.05883 0.01376,0.04551 6.75e-4,0.08078 -0.01309,0.03527 -0.04007,0.05315 0.01323,0.02947 0.04533,0.0392 0.0321,0.0097 0.08749,-0.007 0.07519,-0.02274 0.09577,-0.06892 0.02059,-0.04618 0.02505,-0.08856 l 0.03145,-0.28161 -0.65927,-0.694658 -0.181756,-0.0012 -0.01496,-0.04946 0.441218,-0.133439 -0.07039,0.131424 0.508051,0.537396 0.0776,-0.714517 -0.131423,-0.07039 0.385818,-0.116685 0.01496,0.04946 -0.15064,0.101707 -0.131941,1.206047 q -0.02005,0.15507 -0.07268,0.213099 -0.05263,0.05803 -0.135734,0.08316 z m 1.038354,-0.67646 q -0.147953,-0.01612 -0.241612,-0.101175 -0.09366,-0.08506 -0.119586,-0.200163 -0.02593,-0.115106 -0.01518,-0.213742 0.01075,-0.09864 0.06085,-0.205458 0.0501,-0.106824 0.159881,-0.169719 0.109777,-0.0629 0.25773,-0.04678 0.09863,0.01075 0.163201,0.04793 0.06457,0.03718 0.110606,0.110816 l 0.05641,-0.517836 -0.05127,-0.0638 -0.05343,-0.0058 0.0058,-0.05343 0.308236,0.03358 -0.145059,1.331578 0.166791,0.07223 -0.0058,0.05343 -0.316455,-0.03447 -0.04179,-0.112676 q -0.03825,0.04574 -0.113307,0.06667 -0.07505,0.02093 -0.18602,0.0088 z m 0.01164,-0.106854 q 0.09453,0.0103 0.176642,-0.01818 0.08212,-0.02848 0.127163,-0.09843 l 0.04432,-0.40687 q -0.01821,-0.081 -0.09342,-0.134935 -0.07522,-0.05394 -0.175907,-0.06491 -0.07809,-0.0085 -0.13825,0.03796 -0.06016,0.04647 -0.09103,0.129396 -0.03087,0.08293 -0.04027,0.169234 -0.0094,0.08631 0.0029,0.173934 0.01229,0.08763 0.06103,0.145962 0.04875,0.05833 0.126833,0.06684 z m 1.137648,-0.742659 q -0.04242,-0.0164 -0.05897,-0.05383 -0.01656,-0.03743 -1.58e-4,-0.07984 0.0164,-0.04242 0.05383,-0.05897 0.03743,-0.01656 0.07984,-1.58e-4 0.04242,0.0164 0.05897,0.05383 0.01656,0.03743 1.58e-4,0.07984 -0.0164,0.04242 -0.05382,0.05897 -0.03743,0.01656 -0.07984,1.58e-4 z m -0.648057,0.919588 0.01938,-0.05013 0.181331,0.01249 0.257157,-0.665157 -0.03784,-0.08555 0.01938,-0.05013 0.179303,0.06932 0.05406,0.06079 -0.286972,0.742275 0.142571,0.11274 -0.01938,0.05013 z m 0.656608,0.29541 q -0.145161,-0.09529 -0.164243,-0.209325 -0.01908,-0.114031 0.04092,-0.215517 0.08367,-0.123151 0.196345,-0.138193 0.112675,-0.01504 0.219385,0.0483 0.130744,0.09098 0.138578,0.201499 l 0.0568,-0.08881 q 0.06,-0.101486 0.05524,-0.170777 -0.0048,-0.06929 -0.08089,-0.122891 -0.05684,-0.0339 -0.119305,-0.03214 -0.06247,0.0018 -0.115865,0.05839 l -0.123637,-0.07907 q 0.0777,-0.07545 0.195281,-0.08857 0.117585,-0.01313 0.221439,0.05084 0.137082,0.09258 0.182872,0.208972 0.04579,0.116391 -0.04797,0.282165 l -0.262838,0.410963 0.0182,0.0828 -0.02896,0.04528 -0.13931,-0.0891 -0.05275,-0.09017 q -0.07152,0.0082 -0.189304,-0.06464 z m 0.05791,-0.09055 q 0.07362,0.04218 0.132507,0.04794 0.05888,0.0058 0.09689,-0.04599 l 0.06181,-0.09665 q 0.02415,-0.05694 -0.002,-0.117797 -0.0261,-0.06086 -0.112682,-0.121141 -0.05621,-0.03104 -0.120378,-0.01319 -0.06417,0.01785 -0.114428,0.08876 -0.03884,0.0684 -0.0275,0.136993 0.01134,0.06859 0.08573,0.121079 z m 0.237508,0.209556 0.0421,-0.0334 0.150016,0.102625 0.570016,-0.452207 0.0087,-0.0755 -0.0334,-0.0421 0.04048,-0.03212 0.190132,0.239666 -0.111736,0.08864 q 0.07204,-0.0123 0.150508,0.02176 0.07847,0.03406 0.137564,0.108546 0.07194,0.09069 0.103227,0.176683 0.03193,0.08681 -0.0039,0.174632 -0.03523,0.08863 -0.112957,0.150297 l -0.401602,0.3186 0.06581,0.169428 -0.0421,0.0334 -0.298045,-0.375693 0.15101,0.0174 0.401602,-0.3186 q 0.0784,-0.06747 0.09386,-0.137785 0.01546,-0.07031 -0.04107,-0.141565 -0.05396,-0.06801 -0.120166,-0.09992 -0.06621,-0.03191 -0.193816,-0.0098 l -0.43075,0.341725 -0.0174,0.15101 z"
       id="text16"
       style="font-size:2.11667px;font-family:Code2003;-inkscape-font-specification:Code2003;letter-spacing:-0.322792px;fill:#333333;stroke-width:0.465"
       aria-label="                   Lydian" />
    <path
       d="m 17.727278,75.238793 -0.05245,-0.01173 -0.01454,-0.181178 -1.202247,-0.268973 -0.09036,0.157711 -0.05245,-0.01173 0.110117,-0.492195 1.196529,-0.122048 -1.030452,-0.620279 0.110116,-0.492196 0.05245,0.01173 0.01454,0.181178 1.202247,0.268973 0.09036,-0.15771 0.05245,0.01173 -0.119143,0.532539 -0.05245,-0.01173 -0.01454,-0.181178 -1.202247,-0.268973 1.197025,0.784636 -0.0036,0.01614 -1.417258,0.199755 1.202247,0.268973 0.09036,-0.157711 0.05245,0.01173 z m -0.295517,-2.402058 q -0.02621,0.03716 -0.06654,0.04413 -0.04033,0.007 -0.07749,-0.01925 -0.03716,-0.02621 -0.04413,-0.06654 -0.007,-0.04033 0.01925,-0.07749 0.02621,-0.03716 0.06654,-0.04413 0.04033,-0.007 0.07749,0.01925 0.03716,0.02621 0.04413,0.06654 0.007,0.04033 -0.01925,0.07749 z m 0.734561,0.852079 -0.04392,-0.03098 0.05617,-0.172863 -0.582737,-0.411072 -0.09218,0.01592 -0.04392,-0.03098 0.110811,-0.157086 0.07211,-0.03767 0.650301,0.458733 0.144004,-0.110904 0.04392,0.03098 z m 0.186367,-0.357847 -0.03452,-0.04119 0.04119,-0.03452 0.0072,-0.08154 0.01932,-0.485441 -0.481333,-0.06592 -0.08154,-0.0072 -0.04119,0.03452 -0.03319,-0.03961 0.315287,-0.264195 -0.01309,0.14851 0.347896,0.04828 0.01334,-0.350976 -0.148511,-0.01309 0.315287,-0.264195 0.03319,0.03961 -0.04119,0.03452 -0.0072,0.08153 -0.01932,0.485441 0.481333,0.06591 0.08153,0.0072 0.04119,-0.03452 0.03452,0.04119 -0.316872,0.265523 0.01335,-0.151423 -0.347896,-0.04828 -0.01334,0.350977 0.151422,0.01335 z m 1.15111,-0.777937 q -0.1238,0.04663 -0.249864,0.03448 -0.126064,-0.01215 -0.218368,-0.09887 -0.0923,-0.08672 -0.138937,-0.210518 -0.04663,-0.1238 -0.03448,-0.249864 0.01215,-0.126064 0.09887,-0.218368 0.08672,-0.0923 0.210517,-0.138937 0.1238,-0.04663 0.249864,-0.03448 0.126065,0.01215 0.218368,0.09887 0.0923,0.08672 0.138937,0.210517 0.04663,0.123801 0.03448,0.249865 -0.01215,0.126064 -0.09887,0.218368 -0.08672,0.0923 -0.210518,0.138937 z m -0.03789,-0.100588 q 0.07544,-0.02842 0.121072,-0.09199 0.04563,-0.06358 0.04477,-0.153814 -8.59e-4,-0.09024 -0.03875,-0.190827 -0.03789,-0.100587 -0.09678,-0.168967 -0.05889,-0.06838 -0.135124,-0.08605 -0.07624,-0.01767 -0.151675,0.01075 -0.07544,0.02842 -0.121072,0.09199 -0.04563,0.06358 -0.04477,0.153814 8.59e-4,0.09024 0.03875,0.190827 0.03789,0.100587 0.09678,0.168967 0.05889,0.06838 0.135124,0.08605 0.07624,0.01767 0.151676,-0.01075 z m 0.336007,-0.0063 -0.0069,-0.0533 0.165279,-0.07563 -0.15738,-1.213537 -0.06947,-0.05352 -0.0533,0.0069 -0.0069,-0.0533 0.311584,-0.04041 0.172268,1.328331 0.179103,0.03097 0.0069,0.0533 z m 0.635359,0.426305 q -0.101938,-0.01704 -0.154928,-0.06362 -0.05299,-0.04658 -0.07436,-0.119314 -0.02137,-0.07273 -0.0077,-0.154283 0.0065,-0.03874 0.0262,-0.06269 0.01972,-0.02395 0.04878,-0.03481 0.02906,-0.01086 0.0678,-0.0044 0.03874,0.0065 0.06269,0.0262 0.02395,0.01972 0.03481,0.04878 0.01086,0.02906 0.0044,0.0678 -0.0078,0.04689 -0.03521,0.0727 -0.02737,0.02581 -0.05948,0.02988 -0.0012,0.03228 0.02325,0.05523 0.02446,0.02295 0.08154,0.03249 0.07747,0.01295 0.116399,-0.01931 0.03892,-0.03226 0.06171,-0.06827 l 0.153034,-0.238482 -0.282974,-0.914938 -0.162396,-0.08163 0.0085,-0.05097 0.454646,0.076 -0.121358,0.0866 0.217148,0.706935 0.386329,-0.606059 -0.0866,-0.121358 0.397561,0.06646 -0.0085,0.05097 -0.180118,0.02438 -0.652949,1.022554 q -0.08672,0.130111 -0.159622,0.158791 -0.07291,0.02868 -0.158535,0.01437 z m 1.229891,-0.146384 q -0.125488,-0.08002 -0.171753,-0.197772 -0.04627,-0.117755 -0.0185,-0.232431 0.02777,-0.114676 0.08111,-0.198335 0.05334,-0.08366 0.1456,-0.157215 0.09226,-0.07356 0.218537,-0.08129 0.126281,-0.0077 0.251769,0.07228 0.08366,0.05334 0.12506,0.11529 0.0414,0.06195 0.05004,0.148356 l 0.280057,-0.439208 -0.01768,-0.07992 -0.04531,-0.0289 0.02889,-0.04532 0.261434,0.166701 -0.720148,1.129392 0.117508,0.138668 -0.0289,0.04531 -0.268405,-0.171146 0.01247,-0.119525 q -0.05456,0.02405 -0.131118,0.0096 -0.07656,-0.0145 -0.170676,-0.07451 z m 0.05779,-0.09063 q 0.08017,0.05112 0.166407,0.06198 0.08623,0.01086 0.157614,-0.03188 l 0.220045,-0.345093 q 0.01957,-0.08068 -0.02395,-0.162363 -0.04352,-0.08168 -0.128924,-0.136141 -0.06623,-0.04223 -0.140756,-0.02724 -0.07453,0.01499 -0.138947,0.07565 -0.06442,0.06066 -0.111097,0.133862 -0.04668,0.0732 -0.0745,0.1572 -0.02782,0.084 -0.01,0.157893 0.01785,0.07389 0.08408,0.116125 z m 1.348929,-0.161682 q -0.03076,-0.0335 -0.02902,-0.07438 0.0017,-0.04089 0.03524,-0.07165 0.0335,-0.03076 0.07438,-0.02902 0.04089,0.0017 0.07165,0.03524 0.03076,0.03349 0.02902,0.07438 -0.0017,0.04089 -0.03524,0.07165 -0.0335,0.03076 -0.07438,0.02902 -0.04089,-0.0017 -0.07165,-0.03524 z m -0.988433,0.537234 0.03958,-0.03635 0.157027,0.09154 0.525263,-0.48235 0.004,-0.09346 0.03958,-0.03635 0.130024,0.141593 0.02153,0.07845 -0.586163,0.538275 0.07786,0.164241 -0.03959,0.03635 z m 0.457737,0.555768 q -0.08791,-0.149749 -0.05449,-0.26043 0.03342,-0.110681 0.132176,-0.175075 0.129577,-0.07333 0.237252,-0.03689 0.107675,0.03644 0.175271,0.140507 0.0769,0.139494 0.03495,0.242041 l 0.09027,-0.05445 q 0.09876,-0.06439 0.125194,-0.12862 0.02644,-0.06423 -0.01806,-0.146011 -0.03593,-0.05557 -0.09271,-0.08167 -0.05678,-0.0261 -0.129745,0.001 l -0.0758,-0.125671 q 0.103082,-0.03321 0.214311,0.0071 0.111229,0.04033 0.175988,0.143695 0.08187,0.143737 0.07135,0.268368 -0.01052,0.12463 -0.168027,0.2317 l -0.417723,0.251955 -0.02037,0.08229 -0.04602,0.02776 -0.08541,-0.141601 -0.0073,-0.104206 q -0.06777,-0.0243 -0.141065,-0.141827 z m 0.09204,-0.05551 q 0.04731,0.07044 0.09755,0.101692 0.05023,0.03126 0.107239,0.0017 l 0.09824,-0.05925 q 0.04688,-0.04034 0.05045,-0.106467 0.0036,-0.06612 -0.04734,-0.158529 -0.03664,-0.05273 -0.102069,-0.06517 -0.06543,-0.01243 -0.14191,0.02887 -0.06513,0.04411 -0.08535,0.110624 -0.02023,0.06652 0.02321,0.146532 z m 0.120066,0.2931 0.05254,-0.01129 0.08901,0.158473 0.711376,-0.15282 0.04126,-0.06383 -0.01129,-0.05254 0.05052,-0.01085 0.06425,0.299101 -0.139446,0.02996 q 0.07003,0.0209 0.125285,0.0862 0.05525,0.0653 0.07523,0.158263 0.02431,0.113173 0.01425,0.204131 -0.0098,0.09197 -0.08091,0.154806 -0.07085,0.06385 -0.167859,0.08469 l -0.501197,0.107669 -0.01608,0.181047 -0.05254,0.01129 -0.100722,-0.468861 0.127665,0.08251 0.501197,-0.107668 q 0.100179,-0.02575 0.145194,-0.08193 0.04501,-0.05618 0.02591,-0.145105 -0.01823,-0.08488 -0.06345,-0.142821 -0.04522,-0.05794 -0.169394,-0.09469 l -0.537574,0.115483 -0.08251,0.127666 z"
       id="text17"
       style="font-size:2.11667px;font-family:Code2003;-inkscape-font-specification:Code2003;letter-spacing:-0.322792px;fill:#333333;stroke-width:0.465"
       aria-label="               Mixolydian" />
    <path
       d="m 18.051099,83.882246 -0.03926,-0.0367 0.07933,-0.163537 -0.628317,-1.289243 0.01412,-0.0151 1.362405,0.50409 0.157841,-0.09013 0.03926,0.0367 -0.327516,0.350298 -0.0051,-0.151924 -0.319856,-0.117945 -0.352926,0.377477 0.147627,0.302154 0.151924,-0.0051 z m -0.07816,-0.71544 0.285164,-0.305001 -0.528677,-0.195749 z m 1.392623,-0.397185 q -0.0526,0.02415 -0.141491,0.04108 -0.08933,0.01599 -0.165719,-0.0092 -0.07589,-0.02657 -0.137148,-0.07577 -0.06032,-0.04964 -0.106324,-0.112673 -0.04643,-0.06397 -0.06757,-0.109997 -0.03968,-0.08641 -0.04312,-0.205379 -0.0039,-0.119907 0.07689,-0.226366 0.08034,-0.107399 0.191167,-0.158289 0.07232,-0.03321 0.185223,-0.03501 0.11384,-0.0022 0.202559,0.06962 0.08872,0.07185 0.14651,0.197713 l 0.0017,0.0038 -0.582335,0.267388 q 0.06383,0.139009 0.126507,0.201211 0.06362,0.06177 0.131666,0.07374 0.06805,0.01197 0.136612,-0.01951 0.06011,-0.0276 0.110583,-0.07125 0.05141,-0.04408 0.08237,-0.112881 l 0.04064,-0.109641 0.07675,0.02845 -0.04064,0.109641 q -0.01742,0.05122 -0.05152,0.103268 -0.03316,0.05162 -0.07929,0.08986 -0.04519,0.03781 -0.09403,0.06024 z m -0.476976,-0.454256 0.439568,-0.201835 q -0.0388,-0.05725 -0.0876,-0.0917 -0.0488,-0.03446 -0.112182,-0.03379 -0.06244,2.39e-4 -0.111281,0.02267 -0.04884,0.02243 -0.09,0.06407 -0.04021,0.04121 -0.04937,0.107964 -0.0096,0.06581 0.01086,0.132625 z m 1.154873,0.259653 q -0.130987,0.01853 -0.251373,-0.0208 -0.120385,-0.03933 -0.191571,-0.144084 -0.07119,-0.104749 -0.08972,-0.235737 -0.01853,-0.130987 0.0208,-0.251373 0.03934,-0.120385 0.144084,-0.191571 0.10475,-0.07119 0.235737,-0.08972 0.130988,-0.01853 0.251373,0.0208 0.120385,0.03933 0.191571,0.144084 0.07119,0.10475 0.08972,0.235737 0.01853,0.130987 -0.0208,0.251373 -0.03933,0.120385 -0.144084,0.191571 -0.104749,0.07119 -0.235737,0.08972 z m -0.01506,-0.106428 q 0.07982,-0.01129 0.138211,-0.06339 0.05839,-0.0521 0.07722,-0.140358 0.01883,-0.08826 0.0038,-0.194685 -0.01506,-0.106427 -0.05763,-0.185998 -0.04257,-0.07957 -0.113124,-0.113429 -0.07055,-0.03386 -0.150371,-0.02257 -0.07982,0.01129 -0.13821,0.06339 -0.05839,0.0521 -0.07722,0.140358 -0.01883,0.08826 -0.0038,0.194685 0.01506,0.106427 0.05763,0.185998 0.04257,0.07957 0.113123,0.11343 0.07055,0.03386 0.150371,0.02257 z m 0.329038,0.06713 0.0049,-0.05352 0.177786,-0.0378 0.110781,-1.218675 -0.05614,-0.06737 -0.05352,-0.0049 0.0049,-0.05352 0.312903,0.02844 -0.12126,1.333955 0.168054,0.06924 -0.0049,0.05352 z m 0.917491,-0.969957 q -0.04413,-0.01097 -0.06524,-0.04603 -0.02111,-0.03506 -0.01014,-0.0792 0.01097,-0.04413 0.04603,-0.06524 0.03506,-0.02111 0.0792,-0.01014 0.04413,0.01097 0.06524,0.04603 0.02111,0.03506 0.01014,0.0792 -0.01097,0.04413 -0.04603,0.06524 -0.03506,0.02111 -0.0792,0.01014 z m -0.52801,0.99339 0.01296,-0.05216 0.18147,-0.01028 0.171985,-0.692087 -0.04824,-0.08015 0.01296,-0.05216 0.186562,0.04636 0.06124,0.05356 -0.191926,0.772328 0.155547,0.09403 -0.01296,0.05216 z m 0.688387,0.211009 q -0.155936,-0.0764 -0.189124,-0.18715 -0.03319,-0.110751 0.01365,-0.218941 0.06762,-0.132645 0.177528,-0.161656 0.10991,-0.02901 0.223701,0.02049 0.141093,0.07392 0.162682,0.182594 l 0.04525,-0.09521 q 0.04684,-0.10819 0.03346,-0.176343 -0.01338,-0.06815 -0.09562,-0.111815 -0.06063,-0.02653 -0.122387,-0.01697 -0.06176,0.0096 -0.107656,0.07242 l -0.132552,-0.063 q 0.06765,-0.08457 0.182676,-0.112292 0.115021,-0.02773 0.226058,0.02276 0.14758,0.07472 0.207561,0.18447 0.05998,0.109753 -0.01231,0.285948 l -0.209399,0.440598 0.02841,0.07987 -0.02307,0.04854 -0.149355,-0.07098 -0.06361,-0.08287 q -0.06993,0.01712 -0.195899,-0.04047 z m 0.04614,-0.09708 q 0.07832,0.03264 0.137461,0.031 0.05914,-0.0016 0.09038,-0.05774 l 0.04924,-0.103615 q 0.01684,-0.05951 -0.01666,-0.116629 -0.0335,-0.05712 -0.126942,-0.106104 -0.05965,-0.02377 -0.121083,0.002 -0.06143,0.02573 -0.102434,0.102367 -0.02998,0.07272 -0.01016,0.139355 0.01982,0.06664 0.100194,0.109412 z m 0.261844,0.178224 0.0376,-0.0384 0.161669,0.08306 0.509012,-0.51992 -8.06e-4,-0.076 -0.0384,-0.0376 0.03615,-0.03693 0.218603,0.214016 -0.09978,0.101916 q 0.06994,-0.0212 0.152048,0.0028 0.08211,0.02398 0.150054,0.0905 0.08272,0.08098 0.124506,0.162392 0.04253,0.08214 0.01792,0.173754 -0.02387,0.09234 -0.09328,0.163239 l -0.358622,0.366307 0.08648,0.159872 -0.0376,0.0384 -0.342674,-0.335485 0.152001,-0.0016 0.358622,-0.366307 q 0.06935,-0.07675 0.0759,-0.148438 0.0065,-0.07169 -0.05844,-0.13532 -0.06204,-0.06073 -0.131715,-0.08411 -0.06968,-0.02338 -0.193524,0.01448 l -0.38465,0.392894 0.0016,0.152002 z"
       id="text18"
       style="font-size:2.11667px;font-family:Code2003;-inkscape-font-specification:Code2003;letter-spacing:-0.322792px;fill:#333333;stroke-width:0.465"
       aria-label="                  Aeolian" />
    <path
       d="m 18.085336,94.07242 -0.04181,-0.03376 0.06727,-0.168855 -0.958504,-0.773961 -0.150896,0.101328 -0.04181,-0.03376 0.342829,-0.424572 0.04181,0.03376 -0.06727,0.168854 0.958503,0.773961 0.342829,-0.424572 -0.09589,-0.21027 0.03376,-0.04181 0.244451,0.197386 z m 0.973366,-0.979923 q -0.11237,0.06982 -0.238391,0.08241 -0.126021,0.01259 -0.233425,-0.05452 -0.107403,-0.06711 -0.177219,-0.179484 -0.06981,-0.11237 -0.08241,-0.238391 -0.01259,-0.126021 0.05452,-0.233424 0.06711,-0.107404 0.179484,-0.177219 0.11237,-0.06982 0.238391,-0.08241 0.126021,-0.01259 0.233425,0.05452 0.107403,0.06711 0.177219,0.179484 0.06981,0.112369 0.08241,0.23839 0.01259,0.126021 -0.05452,0.233425 -0.06711,0.107404 -0.179484,0.177219 z m -0.05673,-0.0913 q 0.06847,-0.04254 0.100874,-0.113778 0.0324,-0.07123 0.01401,-0.159583 -0.01839,-0.08835 -0.07511,-0.17965 -0.05673,-0.0913 -0.127787,-0.146924 -0.07106,-0.05562 -0.149277,-0.05813 -0.07822,-0.0025 -0.146691,0.04003 -0.06847,0.04254 -0.100874,0.113777 -0.0324,0.07123 -0.01401,0.159584 0.01839,0.08835 0.07511,0.17965 0.05673,0.0913 0.127787,0.146924 0.07106,0.05562 0.149277,0.05813 0.07822,0.0025 0.146691,-0.04003 z m 0.777432,-0.21478 q -0.127752,0.03436 -0.252034,0.01 -0.124282,-0.02437 -0.207704,-0.119661 -0.08342,-0.09529 -0.11778,-0.223045 -0.03436,-0.127753 -0.01,-0.252035 0.02437,-0.124282 0.119661,-0.207703 0.09529,-0.08342 0.223045,-0.11778 0.187636,-0.05046 0.297628,0.01628 0.109992,0.06674 0.137907,0.170541 0.0102,0.03793 0.0022,0.0679 -0.008,0.02998 -0.02991,0.05193 -0.02192,0.02195 -0.05985,0.03215 -0.03793,0.0102 -0.0679,0.0022 -0.02998,-0.008 -0.05193,-0.02992 -0.02195,-0.02192 -0.03215,-0.05985 -0.01235,-0.04591 0.0018,-0.08076 0.01417,-0.03485 0.0417,-0.05188 -0.03561,-0.02895 -0.09553,-0.02889 -0.06019,-9.38e-4 -0.116078,0.01409 -0.07785,0.02094 -0.129454,0.07977 -0.0516,0.05883 -0.05954,0.148723 -0.0079,0.08989 0.01998,0.193693 0.02792,0.103799 0.07987,0.177587 0.05195,0.07379 0.126104,0.0988 0.07415,0.02501 0.152001,0.0041 0.06388,-0.01718 0.120925,-0.05179 0.05805,-0.03488 0.100056,-0.09755 l 0.05837,-0.101319 0.07092,0.04086 -0.05837,0.101319 q -0.02573,0.04759 -0.06804,0.09322 -0.04131,0.04536 -0.09318,0.07536 -0.05087,0.02973 -0.102767,0.04369 z m 0.226181,-0.09427 0.0022,-0.0537 0.175648,-0.04674 0.02918,-0.72702 -0.171338,-0.06066 0.0021,-0.05163 0.295352,0.01185 0.07335,0.07949 -0.0022,0.05576 q 0.07824,-0.04237 0.194655,-0.08218 0.117444,-0.03976 0.236205,-0.035 0.05783,0.0023 0.105622,0.02286 0.04886,0.01955 0.06625,0.05024 0.01846,0.0297 0.0173,0.05862 -0.0018,0.04544 -0.0238,0.07766 -0.02198,0.03222 -0.0661,0.04906 -0.04412,0.01685 -0.09989,0.01461 -0.03924,-0.0016 -0.07452,-0.02471 -0.03424,-0.0231 -0.05159,-0.05482 -0.01627,-0.03272 -0.02671,-0.08175 -0.0599,-0.0024 -0.130372,0.02683 -0.07048,0.02924 -0.151075,0.07875 l -0.02408,0.599998 0.171338,0.06066 -0.0022,0.0537 z m 1.400646,-0.93113 q -0.04369,-0.01261 -0.06347,-0.04844 -0.01978,-0.03583 -0.0072,-0.07952 0.01261,-0.04369 0.04844,-0.06347 0.03583,-0.01978 0.07952,-0.0072 0.04369,0.01261 0.06347,0.04844 0.01978,0.03583 0.0072,0.07952 -0.01261,0.04369 -0.04844,0.06347 -0.03583,0.01978 -0.07952,0.0072 z m -0.564824,0.97293 0.0149,-0.05164 0.181727,-0.0035 0.197771,-0.685164 -0.04521,-0.0819 0.01491,-0.05164 0.184696,0.05331 0.05919,0.05581 -0.220701,0.764603 0.151919,0.09979 -0.0149,0.05164 z m 0.680007,0.236627 q -0.152967,-0.08218 -0.181986,-0.194098 -0.02902,-0.111916 0.02184,-0.218277 0.07254,-0.130021 0.183455,-0.154897 0.110919,-0.02487 0.222777,0.02885 0.138227,0.07915 0.155732,0.188555 l 0.04878,-0.09345 q 0.05086,-0.106361 0.04004,-0.174967 -0.01082,-0.06861 -0.09137,-0.115316 -0.05959,-0.02878 -0.121666,-0.02154 -0.06207,0.0072 -0.110291,0.06834 l -0.130102,-0.06791 q 0.07077,-0.08197 0.186751,-0.105376 0.115979,-0.0234 0.225048,0.0312 0.14468,0.08019 0.200511,0.19211 0.05583,0.111922 -0.02301,0.285287 l -0.225744,0.432451 0.0254,0.08088 -0.02487,0.04764 -0.146594,-0.07652 -0.06046,-0.08519 q -0.07052,0.01449 -0.194248,-0.04777 z m 0.04974,-0.09529 q 0.07704,0.03555 0.136204,0.03612 0.05916,5.7e-4 0.09248,-0.05432 l 0.05309,-0.101699 q 0.01906,-0.05884 -0.01229,-0.117171 -0.03134,-0.05833 -0.122881,-0.110781 -0.05872,-0.02599 -0.121073,-0.0026 -0.06235,0.02341 -0.106194,0.09846 -0.03268,0.07155 -0.01537,0.138878 0.01732,0.06733 0.09603,0.113086 z m 0.254988,0.187894 0.03901,-0.03697 0.158446,0.08906 0.528117,-0.500503 0.002,-0.07598 -0.03697,-0.03901 0.03751,-0.03555 0.210438,0.222049 -0.103523,0.09811 q 0.07068,-0.01857 0.151838,0.0085 0.08115,0.02703 0.146561,0.09605 0.07963,0.08402 0.11834,0.166939 0.03943,0.08367 0.0114,0.174303 -0.02731,0.09138 -0.09933,0.159633 l -0.372082,0.352627 0.08043,0.162996 -0.03901,0.03697 -0.329877,-0.348076 0.151955,0.0041 0.372082,-0.352627 q 0.07217,-0.07409 0.0814,-0.145492 0.0092,-0.0714 -0.05334,-0.137413 -0.05972,-0.06301 -0.128474,-0.08898 -0.06876,-0.02597 -0.19393,0.0072 l -0.399088,0.378221 -0.0041,0.151955 z"
       id="text19"
       style="font-size:2.11667px;font-family:Code2003;-inkscape-font-specification:Code2003;letter-spacing:-0.322792px;fill:#333333;stroke-width:0.465"
       aria-label="                  Locrian" />
    <path
       d="M 3.4736751,8.7323846 3.4310856,8.6639379 3.6096318,8.4578945 2.6333505,6.8888849 2.3696254,6.9580349 2.327036,6.8895882 3.1536618,6.3752386 q 0.1895448,-0.11794 0.343404,-0.1406392 0.1538591,-0.022699 0.2891152,0.05382 0.135256,0.07652 0.2335394,0.2344736 0.073713,0.1184654 0.09568,0.2271321 0.021968,0.1086667 0.0014,0.2018013 -0.020563,0.093135 -0.07924,0.1807704 L 4.8943242,7.6585232 5.1580492,7.5893732 5.2006386,7.65782 4.5740878,8.0476773 4.6258024,7.8256049 3.8222222,7.3323225 3.4168069,7.5845831 3.8623581,8.3006411 4.0844305,8.3523557 Z M 3.331628,7.4476896 3.6843919,7.2281901 Q 3.8265505,7.1397351 3.855801,7.057628 3.8850515,6.9755208 3.863698,6.8883828 3.8423446,6.8012447 3.766994,6.6801466 3.6916435,6.5590486 3.6229038,6.5013955 3.5541642,6.4437424 3.4675817,6.4337097 3.3809993,6.4236771 3.2388407,6.5121321 L 2.8860768,6.7316316 Z M 5.8811157,7.6489617 Q 5.6841875,7.6733899 5.5046468,7.6113037 5.325106,7.5492176 5.221034,7.3902881 5.116962,7.2313585 5.0925339,7.0344303 5.0681057,6.8375022 5.1301919,6.6579614 5.192278,6.4784206 5.3512075,6.3743486 5.5101371,6.2702766 5.7070652,6.2458485 5.9039934,6.2214204 6.0835342,6.2835065 6.263075,6.3455926 6.367147,6.5045222 6.471219,6.6634517 6.4956471,6.8603799 6.5200752,7.0573081 6.4579891,7.2368488 6.395903,7.4163896 6.2369734,7.5204616 6.0780439,7.6245336 5.8811157,7.6489617 Z M 5.8612679,7.4889576 Q 5.981271,7.4740717 6.0701811,7.3974314 6.1590912,7.3207911 6.1895969,7.1889087 6.2201027,7.0570262 6.2002548,6.8970221 6.180407,6.7370179 6.1186027,6.6165862 6.0567984,6.4961544 5.9518573,6.4435606 5.8469162,6.3909667 5.7269131,6.4058526 5.60691,6.4207385 5.5179999,6.4973788 q -0.08891,0.07664 -0.1194159,0.2085227 -0.030506,0.1318825 -0.010658,0.2918866 0.019848,0.1600042 0.081652,0.280436 0.061804,0.1204317 0.1667454,0.1730256 0.104941,0.052594 0.2249442,0.037708 z M 7.2119992,7.7187923 Q 7.0187072,7.6738966 6.8715373,7.5537692 6.7243673,7.4336418 6.6814046,7.2485911 6.6384418,7.0635403 6.6833376,6.8702483 6.7282333,6.6769562 6.8483607,6.5297863 6.9684881,6.3826164 7.1535389,6.3396536 q 0.1850507,-0.042963 0.3783427,0.00193 0.1932921,0.044896 0.340462,0.1650232 0.1471699,0.1201274 0.1901327,0.3051781 0.042963,0.1850508 -0.00193,0.3783428 -0.044896,0.193292 -0.1650232,0.3404619 -0.1201274,0.14717 -0.3051781,0.1901328 -0.1850507,0.042963 -0.3783428,-0.00193 z M 7.248477,7.5617426 Q 7.3662644,7.5891009 7.4761317,7.5477741 7.5859991,7.5064473 7.6600632,7.3931421 7.7341274,7.2798368 7.7706052,7.122787 7.8070831,6.9657372 7.7905416,6.8313871 7.7740001,6.6970369 7.6935956,6.6115158 7.6131911,6.5259948 7.4954038,6.4986364 7.3776165,6.471278 7.2677491,6.5126048 7.1578818,6.5539316 7.0838176,6.6672369 q -0.074064,0.1133053 -0.110542,0.270355 -0.036478,0.1570498 -0.019936,0.2914 0.016541,0.1343501 0.096946,0.2198712 0.080404,0.085521 0.1981918,0.1128795 z M 8.6186142,8.3557738 Q 8.3849607,8.2089554 8.3534375,8.0609812 8.3219142,7.9130071 8.4208929,7.7554879 L 8.8728957,7.0361504 8.505351,6.8052 8.5894829,6.6713087 8.9570277,6.9022591 9.1483865,6.597722 9.1171649,6.4609231 9.1600557,6.3926648 9.4042104,6.5460818 9.466403,6.6510752 9.2090583,7.060625 9.6658639,7.3476633 9.581732,7.4815546 9.1249264,7.1945163 8.6729236,7.9138539 q -0.056088,0.089261 -0.053,0.1717626 0.00309,0.082502 0.084472,0.1336407 0.063008,0.039592 0.1471591,0.033879 0.084151,-0.00571 0.1640983,-0.039701 0.012674,-0.00851 0.023849,-0.00882 0.012,-0.00161 0.021189,0.00416 0.014439,0.00907 0.025056,0.035885 0.00518,0.03255 -0.012141,0.060116 -0.00956,0.012302 -0.029658,0.03263 -0.1073169,0.071718 -0.2190694,0.074735 -0.1117525,0.00302 -0.206264,-0.05637 z"
       id="text21"
       style="font-size:3.175px;font-family:Code2003;-inkscape-font-specification:Code2003;letter-spacing:-0.322792px;fill:#333333;stroke-width:0.465"
       aria-label="                Root" />
    <path
       d="m 15.951248,8.7316726 -0.03861,-0.070766 0.190018,-0.1955148 -0.88512,-1.6221834 -0.267243,0.053982 -0.03861,-0.070766 0.664115,-0.3623645 1.320584,1.2291663 -0.318967,-1.7756833 0.664115,-0.3623646 0.03861,0.070766 -0.190018,0.1955149 0.88512,1.6221834 0.267243,-0.053982 0.03861,0.070766 -0.718551,0.3920665 -0.03861,-0.070766 0.190017,-0.1955148 -0.88512,-1.6221834 0.29823,2.1260807 -0.02177,0.011881 -1.626461,-1.4013516 0.88512,1.6221834 0.267242,-0.053982 0.03861,0.070766 z m 3.046213,-1.1116654 q -0.198437,-3.819e-4 -0.368808,-0.084426 -0.17037,-0.084044 -0.253758,-0.2547369 -0.08339,-0.1706931 -0.08301,-0.3691302 3.82e-4,-0.1984371 0.08443,-0.3688079 0.08404,-0.1703708 0.254737,-0.2537582 0.170693,-0.083387 0.36913,-0.083005 0.198437,3.82e-4 0.368808,0.084426 0.170371,0.084044 0.253758,0.254737 0.08339,0.170693 0.08301,0.3691301 -3.82e-4,0.1984372 -0.08443,0.3688079 -0.08404,0.1703708 -0.254737,0.2537582 -0.170693,0.083387 -0.36913,0.083005 z m 3.11e-4,-0.1612301 q 0.120922,2.327e-4 0.218716,-0.064691 0.09779,-0.064924 0.144547,-0.1919585 0.04675,-0.1270342 0.04706,-0.2882644 3.1e-4,-0.1612302 -0.04595,-0.2884435 -0.04626,-0.1272133 -0.143807,-0.1925135 -0.09754,-0.0653 -0.218466,-0.065533 -0.120922,-2.328e-4 -0.218716,0.064691 -0.09779,0.064924 -0.144547,0.1919584 -0.04675,0.1270343 -0.04706,0.2882644 -3.1e-4,0.1612302 0.04595,0.2884435 0.04626,0.1272133 0.143807,0.1925135 0.09754,0.0653 0.218466,0.065533 z M 20.25327,7.8246723 Q 20.045307,7.743503 19.942917,7.5837176 19.840527,7.4239323 19.847969,7.247104 q 0.0074,-0.1768283 0.06156,-0.3154703 0.05411,-0.138642 0.168425,-0.2737583 0.114312,-0.1351163 0.297871,-0.1832939 0.183559,-0.048178 0.391522,0.032992 0.138642,0.054113 0.217612,0.1331969 0.07897,0.079084 0.116865,0.2037116 l 0.284092,-0.7278706 -0.04931,-0.1124404 -0.0751,-0.029311 0.02931,-0.075098 0.433256,0.1691027 -0.730523,1.8716672 0.213312,0.1697953 -0.02931,0.075098 -0.44481,-0.1736121 -0.01647,-0.1795067 q -0.07327,0.051283 -0.190147,0.052263 -0.116876,9.8e-4 -0.272848,-0.059897 z m 0.05862,-0.1501955 q 0.132866,0.051858 0.262916,0.042707 0.130051,-0.00915 0.222626,-0.092841 L 21.02065,7.0524446 q 0.0053,-0.1244138 -0.08255,-0.2319248 -0.08785,-0.1075109 -0.229375,-0.1627511 -0.109758,-0.042839 -0.215048,9.394e-4 -0.105289,0.043779 -0.182402,0.1518091 -0.07711,0.1080304 -0.124462,0.2293422 -0.04735,0.1213118 -0.06381,0.2530165 -0.01646,0.1317048 0.03134,0.2352332 0.04779,0.1035284 0.157552,0.1463677 z m 1.303793,0.9564072 q -0.06488,-0.057692 -0.141711,-0.1695873 -0.07581,-0.1130541 -0.08724,-0.2331755 -0.0092,-0.1202496 0.02142,-0.2340535 0.03182,-0.1127737 0.09068,-0.2139545 0.05989,-0.1023393 0.110369,-0.159105 0.09478,-0.1065805 0.256112,-0.1830204 0.162364,-0.077598 0.357274,-0.030822 0.19594,0.045618 0.332641,0.1671819 0.0892,0.079326 0.159722,0.2333197 0.07168,0.1550241 0.02645,0.3201941 -0.04523,0.1651699 -0.183272,0.3204067 l -0.0041,0.00463 -0.71826,-0.6387279 q -0.15247,0.1714555 -0.200132,0.2950403 -0.0465,0.1246151 -0.02193,0.2252988 0.02457,0.1006837 0.109138,0.1758887 0.07414,0.065933 0.164512,0.1089533 0.09153,0.04405 0.204695,0.045104 l 0.175095,-0.010262 0.0072,0.1225666 -0.175095,0.010262 q -0.08085,0.00693 -0.172903,-0.00853 -0.09089,-0.014439 -0.171219,-0.054753 -0.07917,-0.039284 -0.139411,-0.092855 z m 0.336481,-0.9289507 0.54217,0.4821365 q 0.05525,-0.087792 0.07316,-0.1755923 0.01792,-0.0878 -0.0212,-0.1744537 -0.03796,-0.085623 -0.0982,-0.1391942 -0.06024,-0.053571 -0.142245,-0.085002 -0.08085,-0.030401 -0.178053,-0.00274 -0.09618,0.026501 -0.175628,0.094847 z"
       id="text22"
       style="font-size:3.175px;font-family:Code2003;-inkscape-font-specification:Code2003;letter-spacing:-0.322792px;fill:#333333;stroke-width:0.465"
       aria-label="                Mode" />
  </g>
  <g
     inkscape:groupmode="layer"
     id="layer2"
     inkscape:label="components"
     style="display:none">
    <ellipse
       style="fill:#ff00ff;stroke-width:0.465"
       id="locrian"
       cx="20.399157"
       cy="95.249992"
       rx="2.54"
       ry="2.5399997"
       inkscape:label="locrian" />
    <ellipse
       style="fill:#ff00ff;stroke-width:0.465"
       id="aeolian"
       cx="20.399157"
       cy="85.089989"
       rx="2.54"
       ry="2.5399997"
       inkscape:label="aeolian" />
    <ellipse
       style="fill:#ff00ff;stroke-width:0.465"
       id="mixolydian"
       cx="20.399157"
       cy="74.929985"
       rx="2.54"
       ry="2.5399997"
       inkscape:label="mixolydian" />
    <ellipse
       style="fill:#ff00ff;stroke-width:0.465"
       id="lydian"
       cx="20.399157"
       cy="64.769989"
       rx="2.54"
       ry="2.5399997"
       inkscape:label="lydian" />
    <ellipse
       style="fill:#ff00ff;stroke-width:0.465"
       id="phrygian"
       cx="20.399157"
       cy="54.609989"
       rx="2.54"
       ry="2.5399997"
       inkscape:label="phrygian" />
    <ellipse
       style="fill:#ff00ff;stroke-width:0.465"
       id="dorian"
       cx="20.399157"
       cy="44.449989"
       rx="2.54"
       ry="2.5399997"
       inkscape:label="dorian" />
    <ellipse
       style="fill:#ff00ff;stroke-width:0.465"
       id="ionian"
       cx="20.399157"
       cy="34.289993"
       rx="2.54"
       ry="2.5399997"
       inkscape:label="ionian" />
    <ellipse
       style="fill:#ff00ff;stroke-width:0.465"
       id="b"
       cx="5.0799999"
       cy="106.67999"
       rx="2.54"
       ry="2.5399997"
       inkscape:label="b" />
    <ellipse
       style="fill:#ff00ff;stroke-width:0.465"
       id="as"
       cx="5.0799999"
       cy="99.05999"
       rx="2.54"
       ry="2.5399997"
       inkscape:label="as" />
    <ellipse
       style="fill:#ff00ff;stroke-width:0.465"
       id="a"
       cx="5.0799999"
       cy="91.439987"
       rx="2.54"
       ry="2.5399997"
       inkscape:label="a" />
    <ellipse
       style="fill:#ff00ff;stroke-width:0.465"
       id="gs"
       cx="5.0799999"
       cy="83.819992"
       rx="2.54"
       ry="2.5399997"
       inkscape:label="gs" />
    <ellipse
       style="fill:#ff00ff;stroke-width:0.465"
       id="g"
       cx="5.0799999"
       cy="76.199989"
       rx="2.54"
       ry="2.5399997"
       inkscape:label="g" />
    <ellipse
       style="fill:#ff00ff;stroke-width:0.465"
       id="fs"
       cx="5.0799999"
       cy="68.579994"
       rx="2.54"
       ry="2.5399997"
       inkscape:label="fs" />
    <ellipse
       style="fill:#ff00ff;stroke-width:0.465"
       id="f"
       cx="5.0799999"
       cy="60.959995"
       rx="2.54"
       ry="2.5399997"
       inkscape:label="f" />
    <ellipse
       style="fill:#ff00ff;stroke-width:0.465"
       id="e"
       cx="5.0799999"
       cy="53.339996"
       rx="2.54"
       ry="2.5399997"
       inkscape:label="e" />
    <ellipse
       style="fill:#ff00ff;stroke-width:0.465"
       id="ds"
       cx="5.0799999"
       cy="45.869236"
       rx="2.54"
       ry="2.3907614"
       inkscape:label="ds" />
    <ellipse
       style="fill:#ff00ff;stroke-width:0.465"
       id="d"
       cx="5.0799999"
       cy="38.099998"
       rx="2.54"
       ry="2.5399997"
       inkscape:label="d" />
    <ellipse
       style="fill:#ff00ff;stroke-width:0.465"
       id="cs"
       cx="5.0799999"
       cy="30.479998"
       rx="2.54"
       ry="2.5399997"
       inkscape:label="cs" />
    <ellipse
       style="fill:#ff00ff;stroke-width:0.465"
       id="c"
       cx="5.0799999"
       cy="22.859999"
       rx="2.54"
       ry="2.5399997"
       inkscape:label="c" />
    <ellipse
       style="fill:#0000ff;stroke-width:0.465"
       id="notes"
       cx="19.050001"
       cy="118.10999"
       rx="3.8100002"
       ry="3.8099999"
       inkscape:label="notes" />
    <ellipse
       style="fill:#00ff00;stroke-width:0.465"
       id="cvs"
       cx="6.3500004"
       cy="118.10999"
       rx="3.8100002"
       ry="3.8099999"
       inkscape:label="cvs" />
    <ellipse
       style="fill:#00ff00;stroke-width:0.465"
       id="mode"
       cx="18.989569"
       cy="11.429999"
       rx="3.8704319"
       ry="3.8099999"
       inkscape:label="mode" />
    <ellipse
       style="fill:#00ff00;stroke-width:0.465"
       id="scale"
       cx="6.3500004"
       cy="11.429999"
       rx="3.8100002"
       ry="3.8099999"
       inkscape:label="scale" />
  </g>
</svg>
