<?xml version="1.0" encoding="UTF-8" standalone="no"?>
<!-- Created with Inkscape (http://www.inkscape.org/) -->

<svg
   width="15.24mm"
   height="128.5mm"
   viewBox="0 0 15.24 128.5"
   version="1.1"
   id="svg1"
   inkscape:version="1.3 (0e150ed6c4, 2023-07-21)"
   sodipodi:docname="patrwm-dark.svg"
   xmlns:inkscape="http://www.inkscape.org/namespaces/inkscape"
   xmlns:sodipodi="http://sodipodi.sourceforge.net/DTD/sodipodi-0.dtd"
   xmlns="http://www.w3.org/2000/svg"
   xmlns:svg="http://www.w3.org/2000/svg"
   xmlns:rdf="http://www.w3.org/1999/02/22-rdf-syntax-ns#"
   xmlns:cc="http://creativecommons.org/ns#">
  <sodipodi:namedview
     id="namedview1"
     pagecolor="#ffffff"
     bordercolor="#000000"
     borderopacity="0.25"
     inkscape:showpageshadow="2"
     inkscape:pageopacity="0.0"
     inkscape:pagecheckerboard="0"
     inkscape:deskcolor="#d1d1d1"
     inkscape:document-units="mm"
     showgrid="true"
     inkscape:zoom="2.731349"
     inkscape:cx="28.923437"
     inkscape:cy="228.09242"
     inkscape:window-width="3840"
     inkscape:window-height="2126"
     inkscape:window-x="-11"
     inkscape:window-y="-11"
     inkscape:window-maximized="1"
     inkscape:current-layer="layer1">
    <inkscape:grid
       id="grid1"
       units="mm"
       originx="0"
       originy="0"
       spacingx="2.5400001"
       spacingy="2.5400001"
       empcolor="#0099e5"
       empopacity="0.30196078"
       color="#0099e5"
       opacity="0.14901961"
       empspacing="5"
       dotted="false"
       gridanglex="30"
       gridanglez="30"
       visible="true" />
  </sodipodi:namedview>
  <defs
     id="defs1" />
  <g
     inkscape:label="Layer 1"
     inkscape:groupmode="layer"
     id="layer1">
    <rect
       style="fill:#1a1a1a;stroke-width:0.465"
       id="rect1"
       width="15.24"
       height="128.5"
       x="0"
       y="0" />
    <path
       d="M 2.9523511,7.3059349 Q 2.6857066,7.5553682 2.6996877,7.8770571 2.7136688,8.198746 3.0043128,8.5094448 3.2927878,8.817825 3.6034062,8.8663714 3.9141742,8.9104303 4.1993679,8.6436451 4.3083443,8.5417028 4.3883757,8.4320562 4.468407,8.3224097 4.5351251,8.2078265 L 4.7043059,8.388681 Q 4.6440948,8.5102201 4.5595758,8.619717 4.4773755,8.7270449 4.3405753,8.8550151 4.0878427,9.0914345 3.820977,9.1454312 3.5541114,9.199428 3.2882957,9.0872326 3.0247986,8.9728683 2.7818722,8.7131798 2.5476218,8.4627658 2.4601923,8.1880462 2.3729125,7.9088391 2.451675,7.6351694 2.5282686,7.3591811 2.7833199,7.1205927 3.0453271,6.8754974 3.3311909,6.7906859 l 0.081372,0.2543007 Q 3.3035123,7.0817834 3.1824199,7.142888 3.0636462,7.2018236 2.9523511,7.3059349 Z M 5.6583667,8.0089041 5.4112269,8.1249998 4.737602,6.6910141 Q 4.6795541,6.5674442 4.6473292,6.4913775 4.6151042,6.4153109 4.583053,6.3321468 q -0.02438,0.067579 -0.046889,0.116739 -0.022509,0.04916 -0.057034,0.1250125 L 4.3444239,6.854665 4.1325858,6.7472133 4.4847211,6.0556152 4.6945026,5.9570688 Z M 5.9599669,7.1220085 5.9051499,6.8805015 6.6544408,6.7104284 6.7092578,6.9519354 Z M 8.8470459,6.5104599 Q 8.8228592,7.0846257 8.4965189,7.3632377 8.1734844,7.6388111 7.6151796,7.6152925 l -0.6312652,-0.026592 0.095411,-2.2649413 0.697881,0.029398 Q 8.1198024,5.3675893 8.36506,5.5050334 8.6103176,5.6424775 8.7362986,5.8956541 8.8624132,6.1456585 8.8470459,6.5104599 Z M 8.5452873,6.5072818 Q 8.5643962,6.0536591 8.3479904,5.8348072 8.1348905,5.6129167 7.7256784,5.5956786 L 7.3545326,5.5800441 7.2797006,7.3564686 7.5874027,7.3694305 Q 8.5073368,7.4081828 8.5452873,6.5072818 Z M 10.646065,6.966016 10.353887,7.3930797 10.753048,7.5659198 10.66852,7.7611299 10.231483,7.5718889 9.8483498,8.1291021 9.6414853,8.039528 10.024618,7.4823148 9.6079756,7.301905 9.2306699,7.8616414 9.026719,7.7733289 9.4011111,7.2123309 9.0339995,7.0533684 9.1185271,6.8581583 9.5235153,7.0335217 9.8186071,6.6077196 9.4281869,6.4386643 9.5114529,6.2463677 9.9368362,6.4305624 10.32084,5.8633468 l 0.209778,0.090836 -0.384004,0.5672156 0.419556,0.1816714 0.384004,-0.5672156 0.201038,0.087051 -0.384004,0.5672155 0.370025,0.1602241 -0.08327,0.1922966 z M 9.7303798,7.1230958 10.147022,7.3035056 10.439201,6.8764419 10.022558,6.6960321 Z m 2.6787452,1.2987665 q -0.162255,0.1828694 -0.353545,0.3314878 -0.186808,0.1483508 -0.400846,0.2173615 -0.209555,0.068743 -0.439785,0.017271 -0.227855,-0.049364 -0.467722,-0.262193 -0.0475,-0.042144 -0.1053,-0.1061638 -0.05753,-0.059537 -0.08737,-0.1072347 l 0.158041,-0.1781194 q 0.06523,0.1130554 0.181599,0.2163088 0.166245,0.147505 0.321583,0.1877064 0.157712,0.042308 0.304017,0.00658 0.148411,-0.038102 0.286485,-0.1363119 0.140182,-0.1005845 0.26715,-0.2341158 l -0.01425,-0.012643 q -0.123894,0.034389 -0.276321,0.00526 -0.147945,-0.029398 -0.302316,-0.1663665 -0.218493,-0.1938637 -0.23586,-0.4469707 -0.01288,-0.2533748 0.204159,-0.4979922 0.158041,-0.1781194 0.338328,-0.2473634 0.182663,-0.067137 0.364893,-0.028542 0.182231,0.038595 0.3461,0.1839928 0.161495,0.1432906 0.218364,0.3423098 0.05898,0.1966442 -0.01253,0.4303199 -0.0694,0.2313008 -0.294872,0.4854178 z m -0.06689,-1.0823029 q -0.147246,-0.1306473 -0.328639,-0.1175639 -0.179017,0.015191 -0.356023,0.2146844 -0.145398,0.1638699 -0.151314,0.328405 -0.0014,0.1642674 0.164811,0.3117724 0.113996,0.1011463 0.237156,0.1297752 0.125266,0.026254 0.233606,-0.00496 0.110715,-0.029103 0.178146,-0.1051011 0.09061,-0.1021218 0.13874,-0.2376914 0.04813,-0.1355695 0.02638,-0.2737127 -0.02175,-0.1381432 -0.142866,-0.2456111 z"
       id="text1"
       style="font-size:3.175px;letter-spacing:-0.322792px;fill:#f2f2f2;stroke-width:0.465"
       aria-label="                                      C1-D#9" />
    <path
       d="m 2.2625188,111.81229 q 0.3064782,-0.32195 0.5730626,-0.34872 0.2665844,-0.0268 0.4965482,0.19214 0.1356786,0.12916 0.1961532,0.30508 0.060364,0.17144 -0.00396,0.38637 -0.062138,0.21263 -0.2963747,0.45869 l -0.1795087,0.18857 0.6392993,0.60858 -0.1970217,0.20696 -1.6419413,-1.56304 z m 0.159559,0.18696 -0.1992109,0.20927 0.6484978,0.61733 0.1576174,-0.16557 q 0.2232913,-0.23456 0.2568598,-0.42179 0.033569,-0.18722 -0.1481029,-0.36016 -0.158675,-0.15105 -0.3331844,-0.1243 -0.1745094,0.0268 -0.3824768,0.24522 z m 2.1989477,-1.27382 q 0.2788777,-0.13799 0.4731723,-0.0818 0.1942946,0.0562 0.3266534,0.32368 l 0.5139466,1.03868 -0.1821242,0.0901 -0.1553903,-0.19234 -0.011383,0.006 q -0.037644,0.1745 -0.1190563,0.28917 -0.078567,0.11327 -0.2720737,0.20902 -0.2077354,0.10278 -0.3978354,0.0622 -0.191508,-0.0434 -0.3069699,-0.27675 -0.1126459,-0.22765 0.00609,-0.43872 0.1173233,-0.21392 0.4844765,-0.40976 l 0.2547337,-0.13667 -0.045058,-0.0911 q -0.094341,-0.19066 -0.2134758,-0.22381 -0.1191349,-0.0332 -0.2699565,0.0415 -0.119519,0.0591 -0.2093503,0.14964 -0.091239,0.0877 -0.162618,0.17965 l -0.1697665,-0.14979 q 0.072846,-0.10335 0.191134,-0.20794 0.1168802,-0.10742 0.2648561,-0.18064 z m 0.4766968,0.77726 q -0.2789368,0.15219 -0.3504927,0.28678 -0.06871,0.13319 0.0031,0.27832 0.063363,0.12805 0.1697665,0.14979 0.1092488,0.0203 0.2316135,-0.0402 0.193507,-0.0957 0.2694644,-0.2644 0.074549,-0.1715 -0.03528,-0.39347 l -0.067588,-0.13659 z m 1.8108651,0.10192 q 0.062413,-0.0117 0.1261931,-0.0333 0.063195,-0.0248 0.1014242,-0.0448 l 0.039184,0.20908 q -0.039596,0.03 -0.1183938,0.0577 -0.078213,0.0308 -0.1531095,0.0448 -0.1310682,0.0246 -0.2516001,0.002 -0.117996,-0.0264 -0.2077047,-0.12582 -0.089709,-0.0995 -0.1277227,-0.30233 l -0.1824672,-0.97365 -0.2371711,0.0445 -0.024563,-0.13107 0.2198227,-0.15425 0.042553,-0.37623 0.162275,-0.0304 0.071934,0.38384 0.4837042,-0.0906 0.039769,0.2122 -0.4837042,0.0906 0.1812975,0.96741 q 0.028657,0.15291 0.1144681,0.21436 0.088347,0.0577 0.2038122,0.0361 z m 1.1158293,-0.0326 q 0.063478,0.002 0.1303811,-0.006 0.066987,-0.0109 0.1085828,-0.0225 l -0.00561,0.21265 q -0.045021,0.021 -0.1278776,0.0316 -0.08294,0.0137 -0.1591137,0.0117 -0.1333036,-0.004 -0.2463905,-0.051 -0.1098293,-0.0505 -0.1766381,-0.16665 -0.066809,-0.1161 -0.061362,-0.3224 l 0.026146,-0.99026 -0.2412159,-0.006 0.00352,-0.1333 0.2473229,-0.10464 0.1206397,-0.35889 0.1650425,0.004 -0.010308,0.39039 0.4919535,0.013 -0.0057,0.21582 -0.4919536,-0.013 -0.025978,0.9839 q -0.00411,0.15552 0.066882,0.23362 0.074246,0.075 0.1916801,0.0781 z m 1.648815,-1.22889 q 0.2091969,0.065 0.3294773,0.20218 0.123313,0.13809 0.150296,0.32935 0.03096,0.18917 -0.03786,0.4105 l -0.04996,0.16068 -1.1126845,-0.34595 q -0.079717,0.27779 0.00844,0.46479 0.092128,0.18492 0.3346757,0.26033 0.1546237,0.0481 0.2813493,0.0576 0.1307,0.007 0.2750048,-0.008 l -0.072584,0.23345 q -0.141273,0.0159 -0.2700877,0.002 -0.1297574,-0.0104 -0.2965085,-0.0623 -0.2304198,-0.0716 -0.3800764,-0.22124 -0.1466247,-0.14866 -0.1891742,-0.36471 -0.038575,-0.21814 0.04532,-0.48797 0.082953,-0.2668 0.2302625,-0.43047 0.1503417,-0.16273 0.343079,-0.21585 0.1957692,-0.0522 0.4110298,0.0148 z m -0.070902,0.21735 q -0.1910058,-0.0594 -0.3418323,0.03 -0.1468519,0.0873 -0.2359451,0.29903 l 0.8276921,0.25734 q 0.061068,-0.20711 0.00667,-0.36367 -0.053453,-0.15959 -0.2565866,-0.22274 z m 2.1621915,0.85609 q 0.0395,0.0266 0.08072,0.062 0.04563,0.0346 0.07454,0.0655 l -0.172629,0.1938 q -0.02891,-0.031 -0.0675,-0.0646 -0.03595,-0.0319 -0.07282,-0.0567 -0.107971,-0.0727 -0.243567,-0.076 -0.133823,-0.006 -0.264476,0.063 -0.126246,0.0681 -0.22202,0.21029 l -0.507246,0.75317 -0.231743,-0.15608 0.950644,-1.41152 0.189608,0.1277 -0.147478,0.27581 0.01053,0.007 q 0.146507,-0.0697 0.311233,-0.0813 0.164726,-0.0115 0.312199,0.0878 z m 1.263376,1.27728 q 0.189262,0.23892 0.168893,0.45353 -0.01788,0.21263 -0.276711,0.41767 l -0.868575,0.68804 -0.171519,-0.21652 0.853643,-0.67621 q 0.321049,-0.25433 0.08447,-0.55298 -0.175462,-0.2215 -0.36693,-0.20754 -0.191468,0.014 -0.425411,0.19928 l -0.691873,0.54807 -0.173491,-0.21901 1.333973,-1.05672 0.139975,0.17671 -0.15605,0.17627 0.0099,0.0124 q 0.155786,-0.0181 0.296249,0.057 0.142952,0.0731 0.243498,0.20001 z"
       id="text2"
       style="font-size:3.175px;letter-spacing:-0.0714375px;fill:#f2f2f2;stroke-width:0.465"
       aria-label="                         Pattern" />
  </g>
  <g
     inkscape:groupmode="layer"
     id="layer2"
     inkscape:label="components"
     style="display:none">
    <circle
       style="fill:#00ff00;stroke-width:0.465"
       id="cv"
       cx="7.6200004"
       cy="12.700001"
       r="5.0799999"
       inkscape:label="cv" />
    <circle
       style="fill:#0000ff;stroke-width:0.465"
       id="pattern"
       cx="7.6200004"
       cy="116.84"
       r="5.0799999"
       inkscape:label="pattern" />
  </g>
  <metadata
     id="metadata1">
    <rdf:RDF>
      <cc:Work
         rdf:about="">
        <cc:license
           rdf:resource="https://www.gnu.org/licenses/gpl-3.0-standalone.html" />
      </cc:Work>
    </rdf:RDF>
  </metadata>
</svg>
