<?xml version="1.0" encoding="UTF-8" standalone="no"?>
<!-- Created with Inkscape (http://www.inkscape.org/) -->

<svg
   width="66.040001mm"
   height="128.5mm"
   viewBox="0 0 66.04 128.5"
   version="1.1"
   id="svg1"
   inkscape:version="1.3 (0e150ed6c4, 2023-07-21)"
   sodipodi:docname="penodol4-dark.svg"
   xmlns:inkscape="http://www.inkscape.org/namespaces/inkscape"
   xmlns:sodipodi="http://sodipodi.sourceforge.net/DTD/sodipodi-0.dtd"
   xmlns="http://www.w3.org/2000/svg"
   xmlns:svg="http://www.w3.org/2000/svg">
  <sodipodi:namedview
     id="namedview1"
     pagecolor="#ffffff"
     bordercolor="#000000"
     borderopacity="0.25"
     inkscape:showpageshadow="2"
     inkscape:pageopacity="0.0"
     inkscape:pagecheckerboard="0"
     inkscape:deskcolor="#d1d1d1"
     inkscape:document-units="mm"
     showgrid="true"
     inkscape:zoom="2.3634905"
     inkscape:cx="115.71868"
     inkscape:cy="156.12502"
     inkscape:window-width="3840"
     inkscape:window-height="2126"
     inkscape:window-x="-11"
     inkscape:window-y="-11"
     inkscape:window-maximized="1"
     inkscape:current-layer="layer1">
    <inkscape:grid
       id="grid1"
       units="mm"
       originx="0"
       originy="0"
       spacingx="2.54"
       spacingy="2.54"
       empcolor="#0099e5"
       empopacity="0.30196078"
       color="#0099e5"
       opacity="0.14901961"
       empspacing="5"
       dotted="false"
       gridanglex="30"
       gridanglez="30"
       visible="true" />
  </sodipodi:namedview>
  <defs
     id="defs1" />
  <g
     inkscape:label="Layer 1"
     inkscape:groupmode="layer"
     id="layer1"
     style="fill:#f2f2f2"
     sodipodi:insensitive="true">
    <rect
       style="fill:#1a1a1a;stroke-width:0.741951"
       id="rect246"
       width="66.040001"
       height="128.5"
       x="0"
       y="0" />
    <path
       d="m 13.699943,9.9190843 q -0.196887,0 -0.378271,-0.077515 Q 13.141838,9.764055 13.002311,9.6183275 12.864335,9.4725999 12.78217,9.2633104 12.7,9.0524705 12.7,8.7889207 q 0,-0.2635498 0.08062,-0.4774902 0.08061,-0.2154907 0.223242,-0.37052 0.141076,-0.153479 0.333313,-0.2371948 0.192236,-0.083716 0.410827,-0.083716 0.162781,0 0.294556,0.040308 0.131775,0.040308 0.251147,0.1131714 l 0.06356,-0.10542 h 0.124024 l 0.01395,0.7844483 h -0.127125 q -0.0248,-0.1147217 -0.07441,-0.2480469 -0.04961,-0.1348755 -0.116272,-0.2278931 -0.07441,-0.1054199 -0.176733,-0.164331 -0.102319,-0.060461 -0.234094,-0.060461 -0.150379,0 -0.280603,0.066663 -0.128675,0.066663 -0.223242,0.1968872 -0.08992,0.1255737 -0.141077,0.3193603 -0.05116,0.1937866 -0.05116,0.4325317 0,0.2108399 0.05271,0.3875733 0.05426,0.1751831 0.153479,0.3085083 0.09922,0.1317749 0.234094,0.2061889 0.136426,0.074414 0.303858,0.074414 0.125574,0 0.230994,-0.038757 0.105419,-0.040308 0.182934,-0.1054199 0.07752,-0.068213 0.136426,-0.1550293 0.05891,-0.086816 0.09612,-0.1891358 l 0.116272,0.055811 q -0.133326,0.3271102 -0.353468,0.4681868 -0.220141,0.1395264 -0.523999,0.1395264 z"
       id="text247"
       style="font-size:3.175px;font-family:Georgia;-inkscape-font-specification:'Georgia, Normal';letter-spacing:-0.322792px;fill:#ececec;stroke-width:0.465"
       inkscape:transform-center-x="0.4749467"
       inkscape:transform-center-y="-1.7018923"
       aria-label="C" />
    <path
       d="m 13.699943,18.943278 q -0.196887,0 -0.378271,-0.07752 -0.179834,-0.07751 -0.319361,-0.223242 Q 12.864335,18.496788 12.78217,18.287499 12.7,18.076659 12.7,17.813109 q 0,-0.26355 0.08062,-0.47749 0.08061,-0.215491 0.223242,-0.37052 0.141076,-0.153479 0.333313,-0.237195 0.192236,-0.08372 0.410827,-0.08372 0.162781,0 0.294556,0.04031 0.131775,0.04031 0.251147,0.113171 l 0.06356,-0.10542 h 0.124024 l 0.01395,0.784449 h -0.127125 q -0.0248,-0.114722 -0.07441,-0.248047 -0.04961,-0.134876 -0.116272,-0.227893 -0.07441,-0.10542 -0.176733,-0.164331 -0.102319,-0.06046 -0.234094,-0.06046 -0.150379,0 -0.280603,0.06666 -0.128675,0.06666 -0.223242,0.196887 -0.08992,0.125574 -0.141077,0.31936 -0.05116,0.193787 -0.05116,0.432532 0,0.21084 0.05271,0.387573 0.05426,0.175183 0.153479,0.308509 0.09922,0.131774 0.234094,0.206189 0.136426,0.07441 0.303858,0.07441 0.125574,0 0.230994,-0.03876 0.105419,-0.04031 0.182934,-0.10542 0.07752,-0.06821 0.136426,-0.155029 0.05891,-0.08682 0.09612,-0.189136 l 0.116272,0.05581 q -0.133325,0.327112 -0.353467,0.468188 -0.220141,0.139527 -0.523999,0.139527 z m 2.397972,-1.206128 h -0.386023 l -0.111621,0.389123 h 0.404627 v 0.190686 h -0.458887 l -0.165881,0.575159 h -0.172083 l 0.165882,-0.575159 h -0.336414 l -0.165881,0.575159 h -0.172083 l 0.165881,-0.575159 H 14.53367 v -0.190686 h 0.386023 l 0.113171,-0.389123 h -0.406177 v -0.190686 h 0.458887 l 0.162781,-0.561206 h 0.172082 l -0.16278,0.561206 h 0.336413 l 0.162781,-0.561206 h 0.172082 l -0.16278,0.561206 h 0.331762 z m -0.551904,-0.0031 h -0.344165 l -0.114722,0.395325 h 0.342615 z"
       id="text248"
       style="font-size:3.175px;font-family:Georgia;-inkscape-font-specification:'Georgia, Normal';letter-spacing:-0.322792px;fill:#ececec;stroke-width:0.465"
       aria-label="C#" />
    <path
       d="m 14.860084,26.813682 q 0,0.280604 -0.10542,0.486792 -0.10542,0.206189 -0.274402,0.337964 -0.170532,0.131775 -0.382923,0.196888 -0.21239,0.06511 -0.438732,0.06511 h -0.911573 v -0.110071 q 0.04496,0 0.116272,-0.0078 0.07286,-0.0093 0.09612,-0.02015 0.04651,-0.02015 0.06666,-0.05891 0.0217,-0.04031 0.0217,-0.09612 v -1.587499 q 0,-0.05271 -0.0186,-0.09457 -0.01705,-0.04186 -0.06976,-0.06666 -0.04806,-0.02325 -0.103869,-0.03411 -0.05581,-0.01085 -0.09612,-0.01395 v -0.110071 h 0.961181 q 0.198438,0 0.390674,0.06201 0.192236,0.06046 0.334863,0.164331 0.193787,0.137976 0.303858,0.361218 0.110071,0.223242 0.110071,0.525549 z m -0.379822,-0.0016 q 0,-0.221692 -0.05891,-0.399975 -0.05891,-0.179834 -0.172083,-0.31316 -0.10697,-0.127124 -0.26355,-0.199987 -0.155029,-0.07286 -0.345715,-0.07286 -0.06356,0 -0.144177,0.0031 -0.07906,0.0016 -0.117822,0.0031 v 1.69137 q 0,0.141076 0.08216,0.195337 0.08217,0.05426 0.252698,0.05426 0.196887,0 0.344165,-0.06976 0.147278,-0.06976 0.238745,-0.193787 0.09612,-0.130225 0.139526,-0.300757 0.04496,-0.172082 0.04496,-0.396875 z"
       id="text249"
       style="font-size:3.175px;font-family:Georgia;-inkscape-font-specification:'Georgia, Normal';letter-spacing:-0.322792px;fill:#ececec;stroke-width:0.465"
       aria-label="D" />
    <path
       d="m 14.860084,35.812479 q 0,0.280603 -0.10542,0.486792 -0.10542,0.206189 -0.274402,0.337964 -0.170532,0.131775 -0.382923,0.196887 -0.21239,0.06511 -0.438732,0.06511 h -0.911573 v -0.11007 q 0.04496,0 0.116272,-0.0078 0.07286,-0.0093 0.09612,-0.02015 0.04651,-0.02015 0.06666,-0.05891 0.0217,-0.04031 0.0217,-0.09612 v -1.5875 q 0,-0.05271 -0.0186,-0.09457 -0.01705,-0.04186 -0.06976,-0.06666 -0.04806,-0.02325 -0.103869,-0.03411 -0.05581,-0.01085 -0.09612,-0.01395 v -0.11007 h 0.961181 q 0.198438,0 0.390674,0.06201 0.192236,0.06046 0.334863,0.164331 0.193787,0.137976 0.303858,0.361219 0.110071,0.223242 0.110071,0.525549 z m -0.379822,-0.0016 q 0,-0.221692 -0.05891,-0.399976 -0.05891,-0.179834 -0.172083,-0.313159 -0.10697,-0.127124 -0.26355,-0.199988 -0.155029,-0.07286 -0.345715,-0.07286 -0.06356,0 -0.144177,0.0031 -0.07906,0.0016 -0.117822,0.0031 v 1.691369 q 0,0.141077 0.08216,0.195337 0.08217,0.05426 0.252698,0.05426 0.196887,0 0.344165,-0.06976 0.147278,-0.06976 0.238745,-0.193787 0.09612,-0.130224 0.139526,-0.300756 0.04496,-0.172083 0.04496,-0.396875 z m 1.979393,-0.06666 h -0.386023 l -0.111621,0.389171 h 0.404626 v 0.190686 H 15.90775 l -0.165881,0.575158 h -0.172082 l 0.165881,-0.575158 h -0.336414 l -0.165881,0.575158 H 15.06129 l 0.165882,-0.575158 H 14.895409 V 36.13339 h 0.386023 l 0.113171,-0.389124 H 14.988427 V 35.55358 h 0.458886 l 0.162781,-0.561206 h 0.172083 l -0.162781,0.561206 h 0.336414 l 0.16278,-0.561206 h 0.172083 l -0.162781,0.561206 h 0.331763 z m -0.551905,-0.0031 h -0.344165 l -0.114721,0.395371 h 0.342614 z"
       id="text250"
       style="font-size:3.175px;font-family:Georgia;-inkscape-font-specification:'Georgia, Normal';letter-spacing:-0.322792px;fill:#ececec;stroke-width:0.465"
       aria-label="D#" />
    <path
       d="m 14.602735,45.256354 -0.04186,0.648023 H 12.73463 v -0.110071 q 0.04651,-0.0031 0.124023,-0.0124 0.07752,-0.01085 0.100769,-0.0217 0.04961,-0.02325 0.06821,-0.06046 0.02015,-0.03721 0.02015,-0.09457 v -1.581299 q 0,-0.05116 -0.01705,-0.08992 -0.01705,-0.04031 -0.07131,-0.06511 -0.04186,-0.02015 -0.113171,-0.03566 -0.06976,-0.0155 -0.111621,-0.0186 v -0.110071 h 1.702222 v 0.5302 H 14.32058 q -0.03101,-0.117822 -0.134876,-0.249597 -0.102319,-0.133325 -0.195337,-0.145728 -0.04806,-0.0062 -0.114721,-0.0093 -0.06666,-0.0031 -0.151929,-0.0031 h -0.345715 v 0.874365 h 0.248046 q 0.119373,0 0.173633,-0.0217 0.05581,-0.02325 0.09767,-0.07596 0.03411,-0.04496 0.05736,-0.119373 0.0248,-0.07596 0.03256,-0.142627 h 0.116272 v 0.860413 h -0.116272 q -0.0062,-0.07441 -0.03411,-0.15658 -0.02636,-0.08372 -0.05581,-0.120923 -0.04806,-0.06046 -0.110071,-0.07906 -0.06046,-0.0186 -0.161231,-0.0186 h -0.248046 v 0.660425 q 0,0.09922 0.01395,0.156579 0.01395,0.05736 0.05426,0.08682 0.04031,0.02945 0.110071,0.03876 0.06976,0.0078 0.198438,0.0078 0.05116,0 0.134875,0 0.08372,0 0.141077,-0.0062 0.05891,-0.0062 0.120923,-0.0217 0.06356,-0.01705 0.08992,-0.04496 0.07131,-0.07441 0.148828,-0.224793 0.07906,-0.151928 0.100769,-0.223242 z"
       id="text251"
       style="font-size:3.175px;font-family:Georgia;-inkscape-font-specification:'Georgia, Normal';letter-spacing:-0.322792px;fill:#ececec;stroke-width:0.465"
       aria-label="E" />
    <path
       d="m 14.460108,53.263185 h -0.116272 q -0.03256,-0.122473 -0.136426,-0.262 -0.102319,-0.139526 -0.196887,-0.153479 -0.04806,-0.0062 -0.114722,-0.0093 -0.06511,-0.0031 -0.148828,-0.0031 h -0.368969 v 0.883667 h 0.252697 q 0.114722,0 0.178284,-0.02325 0.06356,-0.0248 0.108521,-0.07441 0.031,-0.03411 0.05581,-0.10542 0.02636,-0.07286 0.03411,-0.155029 h 0.117822 v 0.863513 h -0.117822 q -0.0047,-0.06821 -0.03256,-0.155029 -0.02636,-0.08682 -0.05736,-0.125574 -0.04651,-0.05736 -0.117823,-0.07751 -0.06976,-0.0217 -0.168982,-0.0217 h -0.252697 v 0.758093 q 0,0.05116 0.02015,0.09147 0.02015,0.04031 0.07131,0.06511 0.02325,0.01085 0.100769,0.02636 0.07752,0.0155 0.117822,0.01705 v 0.11007 h -0.95343 v -0.11007 q 0.04651,-0.0031 0.124023,-0.0093 0.07752,-0.0078 0.100769,-0.0186 0.04651,-0.02015 0.06666,-0.05891 0.0217,-0.04031 0.0217,-0.09612 v -1.5875 q 0,-0.05116 -0.01705,-0.08992 -0.01705,-0.04031 -0.07131,-0.06511 -0.04186,-0.02015 -0.113171,-0.03566 -0.06976,-0.0155 -0.111621,-0.0186 v -0.11007 h 1.725476 z"
       id="text252"
       style="font-size:3.175px;font-family:Georgia;-inkscape-font-specification:'Georgia, Normal';letter-spacing:-0.322792px;fill:#ececec;stroke-width:0.465"
       aria-label="F" />
    <path
       d="m 14.460108,62.268331 h -0.116272 q -0.03256,-0.122473 -0.136426,-0.262 -0.102319,-0.139526 -0.196887,-0.153479 -0.04806,-0.0062 -0.114722,-0.0093 -0.06511,-0.0031 -0.148828,-0.0031 h -0.368969 v 0.883667 h 0.252697 q 0.114722,0 0.178284,-0.02325 0.06356,-0.0248 0.108521,-0.07441 0.031,-0.03411 0.05581,-0.10542 0.02636,-0.07286 0.03411,-0.155029 h 0.117822 v 0.863513 h -0.117822 q -0.0047,-0.06821 -0.03256,-0.155029 -0.02636,-0.08682 -0.05736,-0.125574 -0.04651,-0.05736 -0.117823,-0.07751 -0.06976,-0.0217 -0.168982,-0.0217 h -0.252697 v 0.758093 q 0,0.05116 0.02015,0.09147 0.02015,0.04031 0.07131,0.06511 0.02325,0.01085 0.100769,0.02636 0.07752,0.0155 0.117822,0.01705 v 0.11007 h -0.95343 v -0.11007 q 0.04651,-0.0031 0.124023,-0.0093 0.07752,-0.0078 0.100769,-0.0186 0.04651,-0.02015 0.06666,-0.05891 0.0217,-0.04031 0.0217,-0.09612 v -1.5875 q 0,-0.05116 -0.01705,-0.08992 -0.01705,-0.04031 -0.07131,-0.06511 -0.04186,-0.02015 -0.113171,-0.03566 -0.06976,-0.0155 -0.111621,-0.0186 v -0.110071 h 1.725476 z m 1.523607,0.494543 h -0.386023 l -0.111621,0.389124 h 0.404626 v 0.190686 h -0.458886 l -0.165882,0.575158 h -0.172082 l 0.165881,-0.575158 h -0.336413 l -0.165882,0.575158 h -0.172082 l 0.165881,-0.575158 h -0.331763 v -0.190686 h 0.386023 l 0.113172,-0.389124 h -0.406177 v -0.190686 h 0.458887 l 0.16278,-0.561206 h 0.172083 l -0.162781,0.561206 h 0.336414 l 0.162781,-0.561206 h 0.172082 l -0.162781,0.561206 h 0.331763 z m -0.551904,-0.0031 h -0.344165 l -0.114722,0.395324 h 0.342615 z"
       id="text253"
       style="font-size:3.175px;font-family:Georgia;-inkscape-font-specification:'Georgia, Normal';letter-spacing:-0.322792px;fill:#ececec;stroke-width:0.465"
       aria-label="F#" />
    <path
       d="m 14.859562,72.053494 q -0.03721,0.0047 -0.100769,0.0155 -0.06201,0.0093 -0.100769,0.02791 -0.04651,0.02325 -0.06666,0.06666 -0.0186,0.04186 -0.0186,0.09922 v 0.170533 q 0,0.186035 0.0015,0.251147 0.0031,0.06511 0.0062,0.10697 -0.206189,0.09302 -0.410828,0.142627 -0.204639,0.04961 -0.401526,0.04961 -0.21084,0 -0.406177,-0.07906 -0.195337,-0.07906 -0.341064,-0.224793 -0.147278,-0.147278 -0.234094,-0.358117 -0.08682,-0.21084 -0.08682,-0.47129 0,-0.251147 0.08217,-0.465087 0.08372,-0.215491 0.235644,-0.373621 0.147278,-0.155029 0.350367,-0.240295 0.204638,-0.08682 0.437182,-0.08682 0.186035,0 0.324011,0.04496 0.137976,0.04496 0.243396,0.10852 l 0.06356,-0.10542 h 0.124024 l 0.01395,0.768946 h -0.127124 q -0.03256,-0.127124 -0.08061,-0.249598 -0.04806,-0.124023 -0.124023,-0.221692 -0.07597,-0.09767 -0.186035,-0.155029 -0.108521,-0.05891 -0.26045,-0.05891 -0.165881,0 -0.296106,0.06821 -0.130224,0.06666 -0.226342,0.199988 -0.09457,0.128674 -0.145728,0.32091 -0.05116,0.192237 -0.05116,0.429432 0,0.209289 0.04961,0.395324 0.05116,0.184485 0.147278,0.319361 0.09612,0.137976 0.240295,0.217041 0.144177,0.07906 0.327112,0.07906 0.136426,0 0.248047,-0.04186 0.113171,-0.04186 0.15968,-0.08837 0.0124,-0.08062 0.0124,-0.162781 0.0016,-0.08216 0.0016,-0.139526 v -0.120923 q 0,-0.06511 -0.0186,-0.114722 -0.01705,-0.05116 -0.07286,-0.07441 -0.05116,-0.02325 -0.139526,-0.03411 -0.08682,-0.0124 -0.136426,-0.0155 v -0.113172 h 0.964282 z"
       id="text254"
       style="font-size:3.175px;font-family:Georgia;-inkscape-font-specification:'Georgia, Normal';letter-spacing:-0.322792px;fill:#ececec;stroke-width:0.465"
       aria-label="G" />
    <path
       d="m 14.859562,81.077687 q -0.03721,0.0047 -0.100769,0.0155 -0.06201,0.0093 -0.100769,0.02791 -0.04651,0.02325 -0.06666,0.06666 -0.0186,0.04186 -0.0186,0.09922 v 0.170532 q 0,0.186036 0.0015,0.251148 0.0031,0.06511 0.0062,0.10697 -0.206189,0.09302 -0.410828,0.142627 -0.204639,0.04961 -0.401526,0.04961 -0.21084,0 -0.406177,-0.07906 -0.195337,-0.07906 -0.341064,-0.224792 -0.147278,-0.147278 -0.234094,-0.358118 -0.08682,-0.21084 -0.08682,-0.471289 0,-0.251147 0.08217,-0.465088 0.08372,-0.21549 0.235644,-0.37362 0.147278,-0.15503 0.350367,-0.240296 0.204638,-0.08682 0.437182,-0.08682 0.186035,0 0.324011,0.04496 0.137976,0.04496 0.243396,0.108521 l 0.06356,-0.10542 h 0.124024 l 0.01395,0.768945 h -0.127124 q -0.03256,-0.127124 -0.08061,-0.249597 -0.04806,-0.124023 -0.124023,-0.221692 -0.07597,-0.09767 -0.186035,-0.155029 -0.108521,-0.05891 -0.26045,-0.05891 -0.165881,0 -0.296106,0.06821 -0.130224,0.06666 -0.226342,0.199988 -0.09457,0.128674 -0.145728,0.32091 -0.05116,0.192237 -0.05116,0.429431 0,0.20929 0.04961,0.395325 0.05116,0.184485 0.147278,0.31936 0.09612,0.137976 0.240295,0.217041 0.144177,0.07906 0.327112,0.07906 0.136426,0 0.248047,-0.04186 0.113171,-0.04186 0.15968,-0.08837 0.0124,-0.08062 0.0124,-0.162781 0.0016,-0.08217 0.0016,-0.139526 v -0.120923 q 0,-0.06511 -0.0186,-0.114722 -0.01705,-0.05116 -0.07286,-0.07441 -0.05116,-0.02325 -0.139526,-0.03411 -0.08682,-0.0124 -0.136426,-0.0155 V 80.96451 h 0.964282 z m 1.501903,-0.275953 h -0.386023 l -0.111621,0.389124 h 0.404627 v 0.190686 h -0.458887 l -0.165882,0.575159 h -0.172082 l 0.165881,-0.575159 h -0.336413 l -0.165882,0.575159 h -0.172082 l 0.165881,-0.575159 H 14.79722 v -0.190686 h 0.386022 l 0.113172,-0.389124 h -0.406177 v -0.190686 h 0.458887 l 0.162781,-0.561206 h 0.172082 l -0.162781,0.561206 h 0.336414 l 0.162781,-0.561206 h 0.172082 l -0.162781,0.561206 h 0.331763 z m -0.551904,-0.0031 h -0.344165 l -0.114722,0.395325 h 0.342615 z"
       id="text255"
       style="font-size:3.175px;font-family:Georgia;-inkscape-font-specification:'Georgia, Normal';letter-spacing:-0.322792px;fill:#ececec;stroke-width:0.465"
       aria-label="G#" />
    <path
       d="M 14.975723,90.9682 H 14.0595 v -0.110071 q 0.120922,-0.0078 0.199987,-0.031 0.08062,-0.02326 0.08062,-0.05736 0,-0.01395 -0.0031,-0.03411 -0.0031,-0.02015 -0.0093,-0.03566 l -0.182934,-0.492994 h -0.770496 q -0.04341,0.108521 -0.07131,0.189136 -0.02636,0.08061 -0.04806,0.148828 -0.02015,0.06666 -0.02791,0.108521 -0.0078,0.04186 -0.0078,0.06821 0,0.06201 0.09767,0.09612 0.09767,0.03411 0.220142,0.04031 v 0.110071 H 12.709152 V 90.85813 q 0.04031,-0.0031 0.100769,-0.01705 0.06046,-0.0155 0.09922,-0.04031 0.06201,-0.04186 0.09612,-0.08682 0.03411,-0.04651 0.06666,-0.127124 0.165881,-0.413928 0.365869,-0.930176 0.199988,-0.516247 0.356568,-0.919323 h 0.124023 l 0.733289,1.897558 q 0.02325,0.06046 0.05271,0.09767 0.02946,0.03721 0.08217,0.07286 0.03566,0.0217 0.09302,0.03721 0.05736,0.01395 0.09612,0.0155 z M 14.088955,90.06903 13.755642,89.216369 13.42853,90.06903 Z"
       id="text256"
       style="font-size:3.175px;font-family:Georgia;-inkscape-font-specification:'Georgia, Normal';letter-spacing:-0.322792px;fill:#ececec;stroke-width:0.465"
       aria-label="A" />
    <path
       d="M 14.975723,99.97017 H 14.0595 v -0.110072 q 0.120922,-0.0078 0.199987,-0.03101 0.08062,-0.02325 0.08062,-0.05736 0,-0.01395 -0.0031,-0.03411 -0.0031,-0.02015 -0.0093,-0.03566 l -0.182934,-0.492993 h -0.770496 q -0.04341,0.10852 -0.07131,0.189136 -0.02636,0.08061 -0.04806,0.148828 -0.02015,0.06666 -0.02791,0.10852 -0.0078,0.04186 -0.0078,0.06821 0,0.06201 0.09767,0.09612 0.09767,0.03411 0.220142,0.04031 v 0.110072 h -0.827857 v -0.110072 q 0.04031,-0.0031 0.100769,-0.01705 0.06046,-0.0155 0.09922,-0.04031 0.06201,-0.04186 0.09612,-0.08682 0.03411,-0.04651 0.06666,-0.127124 0.165881,-0.413929 0.365869,-0.930176 0.199988,-0.516248 0.356568,-0.919324 h 0.124023 l 0.733289,1.897559 q 0.02325,0.06046 0.05271,0.09767 0.02946,0.03721 0.08217,0.07286 0.03566,0.0217 0.09302,0.03721 0.05736,0.01395 0.09612,0.0155 z M 14.088955,99.070999 13.755642,98.218338 13.42853,99.070999 Z M 16.383058,98.8152 h -0.386023 l -0.111622,0.389124 h 0.404627 v 0.190686 h -0.458887 l -0.165881,0.57516 h -0.172083 l 0.165882,-0.57516 h -0.336414 l -0.165881,0.57516 h -0.172083 l 0.165882,-0.57516 h -0.331763 v -0.190686 h 0.386023 L 15.318006,98.8152 H 14.91183 v -0.190686 h 0.458886 l 0.162781,-0.561206 h 0.172082 l -0.16278,0.561206 h 0.336413 l 0.162781,-0.561206 h 0.172083 l -0.162781,0.561206 h 0.331763 z m -0.551905,-0.0031 h -0.344165 l -0.114721,0.395324 h 0.342614 z"
       id="text257"
       style="font-size:3.175px;font-family:Georgia;-inkscape-font-specification:'Georgia, Normal';letter-spacing:-0.322792px;fill:#ececec;stroke-width:0.465"
       aria-label="A#" />
    <path
       d="m 14.31283,107.94422 q 0.09612,0.0651 0.15968,0.17053 0.06356,0.10542 0.06356,0.2558 0,0.15348 -0.06666,0.26665 -0.06666,0.11317 -0.173633,0.18604 -0.10387,0.0713 -0.235645,0.10852 -0.130224,0.0372 -0.269751,0.0372 h -1.041796 v -0.11007 q 0.03721,-0.003 0.10852,-0.0124 0.07131,-0.0108 0.102319,-0.0248 0.04806,-0.0217 0.06821,-0.0574 0.02015,-0.0372 0.02015,-0.0946 v -1.5813 q 0,-0.0527 -0.0186,-0.093 -0.01705,-0.0403 -0.06976,-0.0651 -0.04651,-0.0233 -0.103869,-0.0357 -0.05736,-0.0124 -0.09612,-0.0155 v -0.11007 h 1.015442 q 0.117822,0 0.224792,0.0233 0.108521,0.0233 0.206189,0.0822 0.09147,0.0543 0.150378,0.14728 0.05891,0.093 0.05891,0.22634 0,0.11627 -0.04186,0.20774 -0.04186,0.0899 -0.117823,0.15503 -0.07131,0.062 -0.164331,0.10542 -0.09147,0.0418 -0.198437,0.0651 v 0.014 q 0.09457,0.0109 0.21084,0.0481 0.117822,0.0357 0.209289,0.10077 z m -0.37362,-0.33176 q 0.05736,-0.0667 0.07906,-0.14573 0.02325,-0.0791 0.02325,-0.18759 0,-0.18138 -0.09922,-0.2837 -0.09922,-0.10387 -0.313159,-0.10387 -0.04961,0 -0.125574,0.003 -0.07441,0.002 -0.125573,0.003 v 0.84491 h 0.196887 q 0.127124,0 0.217041,-0.0326 0.09147,-0.0326 0.147278,-0.0977 z m 0.21394,0.70228 q 0,-0.19534 -0.131775,-0.32091 -0.130224,-0.12557 -0.37362,-0.12557 -0.09922,0 -0.167432,0.003 -0.06821,0.002 -0.102319,0.003 v 0.77514 q 0,0.0977 0.07906,0.14728 0.07906,0.0496 0.220141,0.0496 0.230994,0 0.353467,-0.13488 0.122473,-0.13487 0.122473,-0.39687 z"
       id="text258"
       style="font-size:3.175px;font-family:Georgia;-inkscape-font-specification:'Georgia, Normal';letter-spacing:-0.322792px;fill:#ececec;stroke-width:0.465"
       aria-label="B" />
  </g>
  <g
     inkscape:groupmode="layer"
     id="layer2"
     inkscape:label="components"
     style="display:none"
     sodipodi:insensitive="true">
    <circle
       style="fill:#ff0000;stroke-width:0.465"
       id="D_b"
       cx="56.424286"
       cy="107.95"
       r="3.8099999"
       inkscape:label="D_b" />
    <circle
       style="fill:#ff0000;stroke-width:0.465"
       id="D_as"
       cx="56.424286"
       cy="98.944542"
       r="3.8099999"
       inkscape:label="D_as" />
    <circle
       style="fill:#ff0000;stroke-width:0.465"
       id="D_a"
       cx="56.424286"
       cy="89.939087"
       r="3.8099999"
       inkscape:label="D_a" />
    <circle
       style="fill:#ff0000;stroke-width:0.465"
       id="D_gs"
       cx="56.424286"
       cy="80.933632"
       r="3.8099999"
       inkscape:label="D_gs" />
    <circle
       style="fill:#ff0000;stroke-width:0.465"
       id="D_g"
       cx="56.424286"
       cy="71.928177"
       r="3.8099999"
       inkscape:label="D_g" />
    <circle
       style="fill:#ff0000;stroke-width:0.465"
       id="D_fs"
       cx="56.424286"
       cy="62.922726"
       r="3.8099999"
       inkscape:label="D_fs" />
    <circle
       style="fill:#ff0000;stroke-width:0.465"
       id="D_f"
       cx="56.424286"
       cy="53.917271"
       r="3.8099999"
       inkscape:label="D_f" />
    <circle
       style="fill:#ff0000;stroke-width:0.465"
       id="D_e"
       cx="56.424286"
       cy="44.911816"
       r="3.8099999"
       inkscape:label="D_e" />
    <circle
       style="fill:#ff0000;stroke-width:0.465"
       id="D_ds"
       cx="56.424286"
       cy="35.906361"
       r="3.8099999"
       inkscape:label="D_ds" />
    <circle
       style="fill:#ff0000;stroke-width:0.465"
       id="D_d"
       cx="56.424286"
       cy="26.900908"
       r="3.8099999"
       inkscape:label="D_d" />
    <circle
       style="fill:#ff0000;stroke-width:0.465"
       id="D_cs"
       cx="56.424286"
       cy="17.895454"
       r="3.8099999"
       inkscape:label="D_cs" />
    <circle
       style="fill:#ff0000;stroke-width:0.465"
       id="D_c"
       cx="56.424286"
       cy="8.8899994"
       r="3.8099999"
       inkscape:label="D_c" />
    <circle
       style="fill:#ff0000;stroke-width:0.465"
       id="C_b"
       cx="44.812855"
       cy="107.95"
       r="3.8099999"
       inkscape:label="C_b" />
    <circle
       style="fill:#ff0000;stroke-width:0.465"
       id="C_as"
       cx="44.812855"
       cy="98.944542"
       r="3.8099999"
       inkscape:label="C_as" />
    <circle
       style="fill:#ff0000;stroke-width:0.465"
       id="C_a"
       cx="44.812855"
       cy="89.939087"
       r="3.8099999"
       inkscape:label="C_a" />
    <circle
       style="fill:#ff0000;stroke-width:0.465"
       id="C_gs"
       cx="44.812855"
       cy="80.933632"
       r="3.8099999"
       inkscape:label="C_gs" />
    <circle
       style="fill:#ff0000;stroke-width:0.465"
       id="C_g"
       cx="44.812855"
       cy="71.928177"
       r="3.8099999"
       inkscape:label="C_g" />
    <circle
       style="fill:#ff0000;stroke-width:0.465"
       id="C_fs"
       cx="44.812855"
       cy="62.922726"
       r="3.8099999"
       inkscape:label="C_fs" />
    <circle
       style="fill:#ff0000;stroke-width:0.465"
       id="C_f"
       cx="44.812855"
       cy="53.917271"
       r="3.8099999"
       inkscape:label="C_f" />
    <circle
       style="fill:#ff0000;stroke-width:0.465"
       id="C_e"
       cx="44.812855"
       cy="44.911816"
       r="3.8099999"
       inkscape:label="C_e" />
    <circle
       style="fill:#ff0000;stroke-width:0.465"
       id="C_ds"
       cx="44.812855"
       cy="35.906361"
       r="3.8099999"
       inkscape:label="C_ds" />
    <circle
       style="fill:#ff0000;stroke-width:0.465"
       id="C_d"
       cx="44.812855"
       cy="26.900908"
       r="3.8099999"
       inkscape:label="C_d" />
    <circle
       style="fill:#ff0000;stroke-width:0.465"
       id="C_cs"
       cx="44.812855"
       cy="17.895454"
       r="3.8099999"
       inkscape:label="C_cs" />
    <circle
       style="fill:#ff0000;stroke-width:0.465"
       id="C_c"
       cx="44.812855"
       cy="8.8899994"
       r="3.8099999"
       inkscape:label="C_c" />
    <circle
       style="fill:#ff0000;stroke-width:0.465"
       id="B_b"
       cx="33.201427"
       cy="107.95"
       r="3.8099999"
       inkscape:label="B_b" />
    <circle
       style="fill:#ff0000;stroke-width:0.465"
       id="B_as"
       cx="33.201427"
       cy="98.944542"
       r="3.8099999"
       inkscape:label="B_as" />
    <circle
       style="fill:#ff0000;stroke-width:0.465"
       id="B_a"
       cx="33.201427"
       cy="89.939087"
       r="3.8099999"
       inkscape:label="B_a" />
    <circle
       style="fill:#ff0000;stroke-width:0.465"
       id="B_gs"
       cx="33.201427"
       cy="80.933632"
       r="3.8099999"
       inkscape:label="B_gs" />
    <circle
       style="fill:#ff0000;stroke-width:0.465"
       id="B_g"
       cx="33.201427"
       cy="71.928177"
       r="3.8099999"
       inkscape:label="B_g" />
    <circle
       style="fill:#ff0000;stroke-width:0.465"
       id="B_fs"
       cx="33.201427"
       cy="62.922726"
       r="3.8099999"
       inkscape:label="B_fs" />
    <circle
       style="fill:#ff0000;stroke-width:0.465"
       id="B_f"
       cx="33.201427"
       cy="53.917271"
       r="3.8099999"
       inkscape:label="B_f" />
    <circle
       style="fill:#ff0000;stroke-width:0.465"
       id="B_e"
       cx="33.201427"
       cy="44.911816"
       r="3.8099999"
       inkscape:label="B_e" />
    <circle
       style="fill:#ff0000;stroke-width:0.465"
       id="B_ds"
       cx="33.201427"
       cy="35.906361"
       r="3.8099999"
       inkscape:label="B_ds" />
    <circle
       style="fill:#ff0000;stroke-width:0.465"
       id="B_d"
       cx="33.201427"
       cy="26.900908"
       r="3.8099999"
       inkscape:label="B_d" />
    <circle
       style="fill:#ff0000;stroke-width:0.465"
       id="B_cs"
       cx="33.201427"
       cy="17.895454"
       r="3.8099999"
       inkscape:label="B_cs" />
    <circle
       style="fill:#ff0000;stroke-width:0.465"
       id="B_c"
       cx="33.201427"
       cy="8.8899994"
       r="3.8099999"
       inkscape:label="B_c" />
    <circle
       style="fill:#ff0000;stroke-width:0.465"
       id="A_b"
       cx="21.59"
       cy="107.95"
       r="3.8099999"
       inkscape:label="A_b" />
    <circle
       style="fill:#ff0000;stroke-width:0.465"
       id="A_as"
       cx="21.59"
       cy="98.944542"
       r="3.8099999"
       inkscape:label="A_as" />
    <circle
       style="fill:#ff0000;stroke-width:0.465"
       id="A_a"
       cx="21.59"
       cy="89.939087"
       r="3.8099999"
       inkscape:label="A_a" />
    <circle
       style="fill:#ff0000;stroke-width:0.465"
       id="A_gs"
       cx="21.59"
       cy="80.933632"
       r="3.8099999"
       inkscape:label="A_gs" />
    <circle
       style="fill:#ff0000;stroke-width:0.465"
       id="A_g"
       cx="21.59"
       cy="71.928177"
       r="3.8099999"
       inkscape:label="A_g" />
    <circle
       style="fill:#ff0000;stroke-width:0.465"
       id="A_fs"
       cx="21.59"
       cy="62.922726"
       r="3.8099999"
       inkscape:label="A_fs" />
    <circle
       style="fill:#ff0000;stroke-width:0.465"
       id="A_f"
       cx="21.59"
       cy="53.917271"
       r="3.8099999"
       inkscape:label="A_f" />
    <circle
       style="fill:#ff0000;stroke-width:0.465"
       id="A_e"
       cx="21.59"
       cy="44.911816"
       r="3.8099999"
       inkscape:label="A_e" />
    <circle
       style="fill:#ff0000;stroke-width:0.465"
       id="A_ds"
       cx="21.59"
       cy="35.906361"
       r="3.8099999"
       inkscape:label="A_ds" />
    <circle
       style="fill:#ff0000;stroke-width:0.465"
       id="A_d"
       cx="21.59"
       cy="26.900908"
       r="3.8099999"
       inkscape:label="A_d" />
    <circle
       style="fill:#ff0000;stroke-width:0.465"
       id="A_cs"
       cx="21.59"
       cy="17.895454"
       r="3.8099999"
       inkscape:label="A_cs" />
    <circle
       style="fill:#ff0000;stroke-width:0.465"
       id="A_c"
       cx="21.59"
       cy="8.8899994"
       r="3.8099999"
       inkscape:label="A_c" />
    <circle
       style="fill:#ff00ff;stroke-width:0.465"
       id="note_b"
       cx="8.8340263"
       cy="107.95"
       r="3.8099999"
       inkscape:label="note_b" />
    <circle
       style="fill:#ff00ff;stroke-width:0.465"
       id="note_as"
       cx="8.8340263"
       cy="98.944542"
       r="3.8099999"
       inkscape:label="note_as" />
    <circle
       style="fill:#ff00ff;stroke-width:0.465"
       id="note_a"
       cx="8.8340263"
       cy="89.939087"
       r="3.8099999"
       inkscape:label="note_a" />
    <circle
       style="fill:#ff00ff;stroke-width:0.465"
       id="note_gs"
       cx="8.8340263"
       cy="80.933632"
       r="3.8099999"
       inkscape:label="note_gs" />
    <circle
       style="fill:#ff00ff;stroke-width:0.465"
       id="note_g"
       cx="8.8340263"
       cy="71.928177"
       r="3.8099999"
       inkscape:label="note_g" />
    <circle
       style="fill:#ff00ff;stroke-width:0.465"
       id="note_fs"
       cx="8.8340263"
       cy="62.922726"
       r="3.8099999"
       inkscape:label="note_fs" />
    <circle
       style="fill:#ff00ff;stroke-width:0.465"
       id="note_f"
       cx="8.8340263"
       cy="53.917271"
       r="3.8099999"
       inkscape:label="note_f" />
    <circle
       style="fill:#ff00ff;stroke-width:0.465"
       id="note_e"
       cx="8.8340263"
       cy="44.911816"
       r="3.8099999"
       inkscape:label="note_e" />
    <circle
       style="fill:#ff00ff;stroke-width:0.465"
       id="note_ds"
       cx="8.8340263"
       cy="35.906361"
       r="3.8099999"
       inkscape:label="note_ds" />
    <circle
       style="fill:#ff00ff;stroke-width:0.465"
       id="note_d"
       cx="8.8340263"
       cy="26.900908"
       r="3.8099999"
       inkscape:label="note_d" />
    <circle
       style="fill:#ff00ff;stroke-width:0.465"
       id="note_cs"
       cx="8.8340263"
       cy="17.895454"
       r="3.8099999"
       inkscape:label="note_cs" />
    <circle
       style="fill:#ff00ff;stroke-width:0.465"
       id="note_c"
       cx="8.8340263"
       cy="8.8899994"
       r="3.8099999"
       inkscape:label="note_c" />
    <circle
       style="fill:#0000ff;stroke-width:0.465"
       id="D"
       cx="56.424286"
       cy="120.64999"
       r="3.8099999"
       inkscape:label="D" />
    <circle
       style="fill:#0000ff;stroke-width:0.465"
       id="C"
       cx="44.812855"
       cy="120.64999"
       r="3.8099999"
       inkscape:label="C" />
    <circle
       style="fill:#0000ff;stroke-width:0.465"
       id="B"
       cx="33.201427"
       cy="120.64999"
       r="3.8099999"
       inkscape:label="B" />
    <circle
       style="fill:#0000ff;stroke-width:0.465"
       id="A"
       cx="21.59"
       cy="120.64999"
       r="3.8099999"
       inkscape:label="A" />
    <circle
       style="fill:#00ff00;stroke-width:0.465"
       id="CV"
       cx="8.8899994"
       cy="120.64999"
       r="3.8099999"
       inkscape:label="CV" />
  </g>
</svg>
