<?xml version="1.0" encoding="UTF-8" standalone="no"?>
<!-- Created with Inkscape (http://www.inkscape.org/) -->

<svg
   width="30.48mm"
   height="128.5mm"
   viewBox="0 0 30.48 128.5"
   version="1.1"
   id="svg1"
   inkscape:version="1.3 (0e150ed6c4, 2023-07-21)"
   sodipodi:docname="pysgota-dark.svg"
   xmlns:inkscape="http://www.inkscape.org/namespaces/inkscape"
   xmlns:sodipodi="http://sodipodi.sourceforge.net/DTD/sodipodi-0.dtd"
   xmlns="http://www.w3.org/2000/svg"
   xmlns:svg="http://www.w3.org/2000/svg"
   xmlns:rdf="http://www.w3.org/1999/02/22-rdf-syntax-ns#"
   xmlns:cc="http://creativecommons.org/ns#">
  <sodipodi:namedview
     id="namedview1"
     pagecolor="#ffffff"
     bordercolor="#000000"
     borderopacity="0.25"
     inkscape:showpageshadow="2"
     inkscape:pageopacity="0.0"
     inkscape:pagecheckerboard="0"
     inkscape:deskcolor="#d1d1d1"
     inkscape:document-units="mm"
     showgrid="true"
     inkscape:zoom="3.3424805"
     inkscape:cx="52.356326"
     inkscape:cy="232.16291"
     inkscape:window-width="3840"
     inkscape:window-height="2126"
     inkscape:window-x="-11"
     inkscape:window-y="-11"
     inkscape:window-maximized="1"
     inkscape:current-layer="layer1">
    <inkscape:grid
       id="grid1"
       units="mm"
       originx="0"
       originy="0"
       spacingx="2.5400001"
       spacingy="2.5400001"
       empcolor="#0099e5"
       empopacity="0.30196078"
       color="#0099e5"
       opacity="0.14901961"
       empspacing="5"
       dotted="false"
       gridanglex="30"
       gridanglez="30"
       visible="true" />
  </sodipodi:namedview>
  <defs
     id="defs1">
    <rect
       x="134.39999"
       y="403.19998"
       width="57.599998"
       height="19.199999"
       id="rect43" />
    <rect
       x="115.4831"
       y="287.99997"
       width="76.516891"
       height="19.200008"
       id="rect42" />
    <rect
       x="19.199999"
       y="288"
       width="76.799995"
       height="19.199999"
       id="rect41" />
    <rect
       x="115.4831"
       y="172.79997"
       width="76.516891"
       height="19.200012"
       id="rect40" />
    <rect
       x="19.199999"
       y="172.79999"
       width="76.799995"
       height="19.199999"
       id="rect39" />
    <rect
       x="115.19999"
       y="57.599998"
       width="76.799995"
       height="19.199999"
       id="rect38" />
    <rect
       x="19.446636"
       y="57.599995"
       width="76.55336"
       height="19.200003"
       id="rect37" />
  </defs>
  <g
     inkscape:label="Layer 1"
     inkscape:groupmode="layer"
     id="layer1">
    <rect
       style="fill:#1a1a1a;stroke-width:0.195715"
       id="rect1"
       width="30.48"
       height="128.5"
       x="0"
       y="0"
       ry="0" />
    <path
       style="font-size:3.175px;font-family:'Noto Sans';-inkscape-font-specification:'Noto Sans';text-align:center;text-anchor:middle;display:inline;fill:#f9f9f9;stroke-width:0.265;stroke:#f9f9f9"
       d="M 5.0035061,8.0167991 Q 5.2412985,8.0859747 5.3118051,8.2982694 5.3823117,8.5105641 5.2953988,8.809329 5.2457343,8.9800518 5.1819352,9.0970635 5.1190229,9.2110266 5.0427521,9.291344 L 4.7988624,9.2203946 Q 4.8760201,9.1370286 4.9586098,9.0122568 5.0390377,8.8835495 5.0807204,8.7402643 5.1401405,8.5360066 5.1027254,8.4259238 5.0622618,8.3149541 4.9525114,8.2830269 4.891539,8.2652896 4.8330055,8.2846345 4.774472,8.3039795 4.6999749,8.3781997 4.6263647,8.4493712 4.5183884,8.5932108 4.4112989,8.7340018 4.3175124,8.8290634 4.2237259,8.9241251 4.1206272,8.9602653 4.0175284,8.9964054 3.8833891,8.9573833 3.6760828,8.8970764 3.6120615,8.6965881 3.5489271,8.4930513 3.628745,8.2186753 3.6722015,8.0692929 3.7399361,7.9501195 3.805509,7.8270105 3.8901496,7.7292883 l 0.1867975,0.1535393 q -0.072834,0.091237 -0.1361344,0.1951673 -0.0633,0.1039303 -0.097888,0.2228266 -0.047891,0.1646255 -0.018735,0.2689991 0.026994,0.1004382 0.118453,0.1270442 0.06707,0.019511 0.1273769,-0.00593 0.057259,-0.026329 0.1295939,-0.1044847 0.070174,-0.082091 0.1763762,-0.2198335 0.103154,-0.1386292 0.1960536,-0.2306423 0.0929,-0.092013 0.1981601,-0.1242177 0.1022119,-0.033092 0.2333026,0.00504 z M 5.7872959,7.1943813 q 0.03296,-0.054276 0.059428,-0.1162094 0.023753,-0.063582 0.034323,-0.1054529 l 0.1818238,0.1104176 q -0.00408,0.049529 -0.036069,0.1266798 -0.02928,0.078799 -0.068832,0.1439295 -0.069217,0.113979 -0.166539,0.188603 -0.098388,0.070262 -0.2323405,0.070637 -0.1339529,3.744e-4 -0.310349,-0.1067471 L 4.4020381,6.9920547 4.2767883,7.1983025 4.1628092,7.1290855 4.1947245,6.862443 3.9430337,6.5795857 4.0287309,6.4384688 4.3625268,6.6411758 4.6179705,6.2205388 4.8025081,6.3326045 4.5470643,6.7532415 5.3883382,7.264129 Q 5.5213138,7.3448822 5.6243493,7.3220177 5.726319,7.2947914 5.7872959,7.1943813 Z M 5.6018953,5.0998164 q 0.230457,-0.2090549 0.4327104,-0.208197 0.2022534,8.579e-4 0.4027754,0.2219084 l 0.7786226,0.8583344 -0.1505025,0.1365256 -0.2021014,-0.142457 -0.00941,0.00853 Q 6.8655487,6.1525965 6.8186338,6.2851754 6.7740704,6.4156211 6.6141615,6.5606796 6.4424946,6.7164041 6.2485557,6.7294375 6.0524835,6.7401192 5.8775601,6.5472879 5.7069031,6.3591598 5.7633258,6.1236486 5.8176153,5.8857857 6.1171422,5.5969285 L 6.3247383,5.3957513 6.2564755,5.3205001 Q 6.1135502,5.1629428 5.9898903,5.1636643 5.8662303,5.1643859 5.7415954,5.2774461 5.6428282,5.3670411 5.5811991,5.478674 5.5174368,5.5879553 5.4739654,5.6959769 L 5.2696801,5.598368 Q 5.3114551,5.4790251 5.3966002,5.3460601 5.4796121,5.2107434 5.6018953,5.0998164 Z M 6.2731358,5.7169108 Q 6.0465085,5.9396385 6.014526,6.0886786 5.9848952,6.2355855 6.093689,6.3555172 6.1896836,6.4613392 6.2979743,6.4531261 6.4086166,6.4427798 6.5097354,6.3510517 6.6696443,6.2059932 6.6965375,6.0229894 6.7212975,5.837634 6.5549069,5.6542091 L 6.4525127,5.5413322 Z m 1.4034683,-1.914872 q 0.043246,-0.019948 0.094918,-0.036789 0.053225,-0.021054 0.094695,-0.029693 l 0.076004,0.2481573 q -0.041469,0.00864 -0.090258,0.02415 -0.045906,0.014182 -0.086269,0.0328 -0.118206,0.054524 -0.1914099,0.1687095 -0.074534,0.1113024 -0.083437,0.2587652 -0.00735,0.1432499 0.064462,0.2989358 L 7.9356475,5.5916331 7.6819371,5.7086605 6.9691345,4.1633335 7.1767157,4.0675839 7.3358723,4.3368264 7.3474046,4.331507 Q 7.3638508,4.1700755 7.4395014,4.0232931 7.515152,3.8765107 7.6766041,3.8020388 Z m 1.7463266,1.1261194 q 0.062355,-0.012002 0.1260281,-0.033958 0.063073,-0.025074 0.1012032,-0.045346 L 9.69037,5.0577446 q -0.039448,0.030226 -0.1181094,0.0583 -0.078061,0.031192 -0.1528878,0.045595 -0.1309462,0.025205 -0.2515876,0.00316 Q 9.0496616,5.1390378 8.9594663,5.0400008 8.869271,4.9409639 8.8302631,4.7383089 L 8.6430252,3.7655652 8.4060748,3.8111745 8.3808697,3.6802282 8.5999336,3.524897 l 0.040708,-0.3764299 0.162124,-0.031206 0.073815,0.3834855 0.4832541,-0.093019 0.040808,0.2120082 -0.4832541,0.093019 0.1860377,0.9665082 q 0.029406,0.1527706 0.1155175,0.2137943 0.088629,0.057306 0.2039869,0.035101 z"
       id="text1"
       aria-label="          start" />
    <path
       style="font-size:3.175px;font-family:'Noto Sans';-inkscape-font-specification:'Noto Sans';text-align:center;text-anchor:middle;display:inline;fill:#f9f9f9;stroke-width:0.265;stroke:#f9f9f9"
       d="m 23.511418,4.1400065 q 0.194034,0.1017089 0.287605,0.2582996 0.09638,0.1580647 0.08843,0.3510545 -0.0037,0.1916518 -0.111277,0.3969339 L 23.698046,5.295335 22.666011,4.7543612 q -0.128514,0.2588478 -0.07554,0.4586858 0.05726,0.1984999 0.282231,0.3164233 0.143416,0.075176 0.266354,0.1073552 0.127223,0.030841 0.271864,0.042133 L 23.297422,5.8954892 Q 23.155594,5.8856709 23.031318,5.8492059 22.905569,5.8155529 22.750904,5.7344805 22.537186,5.6224533 22.416968,5.4483101 22.299562,5.2756409 22.29668,5.0554603 22.29808,4.8339417 22.429274,4.5836661 22.55899,4.3362027 22.733405,4.2017886 22.910632,4.0688485 23.10979,4.0513619 q 0.20197,-0.016012 0.401628,0.088645 z m -0.108943,0.200996 q -0.177161,-0.092865 -0.341644,-0.032109 -0.160197,0.059418 -0.286013,0.2515696 l 0.7677,0.4024138 q 0.09742,-0.1926958 0.07216,-0.3564987 -0.02379,-0.166615 -0.212201,-0.2653759 z m 2.117385,1.4147311 q 0.200658,0.2294335 0.19075,0.4447786 -0.0075,0.2132549 -0.256072,0.4306335 L 24.620452,7.3606181 24.438606,7.1526939 25.258353,6.4357626 q 0.308302,-0.269633 0.05748,-0.5564249 -0.186026,-0.212704 -0.376588,-0.1894528 -0.190563,0.023251 -0.415217,0.219728 l -0.664401,0.5810697 -0.183936,-0.2103141 1.281004,-1.1203357 0.148403,0.1696852 -0.147293,0.1836521 0.01045,0.01195 q 0.154722,-0.025649 0.298669,0.042484 0.146336,0.066043 0.252935,0.1879297 z m -0.463097,2.6553919 q -0.103859,-0.3000325 0.04085,-0.5517149 0.147707,-0.252721 0.561752,-0.3960469 0.414044,-0.1433258 0.686383,-0.036008 0.276377,0.1092797 0.380236,0.4093122 0.06439,0.1860202 0.03589,0.3269205 -0.02746,0.1439006 -0.10051,0.2531823 l 0.0062,0.018002 q 0.03796,-0.016502 0.109858,-0.051468 0.07593,-0.033004 0.120936,-0.048583 l 0.642069,-0.2222589 0.0914,0.2640286 -2.280247,0.7893308 -0.07374,-0.2130231 0.202521,-0.1137829 -0.0042,-0.012001 Q 25.349298,8.7903194 25.235746,8.6952327 25.122195,8.6001459 25.056763,8.4111255 Z m 0.233564,-0.033813 q 0.08828,0.2550276 0.261608,0.3092634 0.177366,0.056197 0.459396,-0.04143 l 0.048,-0.016618 q 0.300033,-0.1038593 0.424777,-0.2579154 0.127744,-0.1550948 0.03531,-0.4221237 -0.07374,-0.213023 -0.282148,-0.2618349 -0.204369,-0.04685 -0.4894,0.051816 -0.288031,0.099705 -0.410698,0.2597617 -0.121628,0.1630571 -0.04685,0.3790805 z"
       id="text2"
       inkscape:label="text2"
       aria-label="                              end" />
    <path
       style="font-size:3.175px;font-family:'Noto Sans';-inkscape-font-specification:'Noto Sans';text-align:center;text-anchor:middle;display:inline;fill:#f9f9f9;stroke-width:0.265;stroke:#f9f9f9"
       d="m 9.3147272,32.685942 -0.1567549,0.398933 1.3829667,0.543417 -0.102181,0.260045 -1.3829666,-0.543417 -0.1091478,0.277775 -0.1211573,-0.04761 0.020496,-0.31261 -0.091607,-0.03599 q -0.3073259,-0.120759 -0.3868908,-0.308944 -0.08252,-0.189345 0.012694,-0.43166 0.037157,-0.09456 0.085077,-0.164426 0.046126,-0.07398 0.088873,-0.121999 l 0.1771926,0.148085 q -0.033354,0.04148 -0.072513,0.09773 -0.039159,0.05625 -0.064705,0.121262 -0.05109,0.130022 0.012016,0.229868 0.061313,0.09573 0.2474812,0.168882 l 0.103427,0.04064 0.1567548,-0.398933 z m 0.5706041,-1.362136 q 0.027082,-0.03918 0.062997,-0.07996 0.03511,-0.0452 0.066415,-0.07374 l 0.191689,0.17497 q -0.03131,0.02853 -0.06542,0.06671 -0.03231,0.03557 -0.05758,0.07213 -0.07402,0.10708 -0.07895,0.242626 -0.00754,0.133741 0.05982,0.265222 0.06655,0.127063 0.207586,0.224557 l 0.746948,0.516356 -0.158878,0.22983 -1.3998749,-0.967716 0.1299917,-0.188043 0.2740017,0.150816 0.00722,-0.01045 q -0.067974,-0.147344 -0.077525,-0.312198 -0.00955,-0.164854 0.091553,-0.31111 z m 1.1661607,-1.137989 q 0.172164,-0.135475 0.353328,-0.156828 0.183658,-0.02332 0.356519,0.06287 0.173392,0.08172 0.31672,0.263869 l 0.104061,0.132242 -0.915713,0.720569 q 0.18366,0.22313 0.387689,0.256507 0.204561,0.02892 0.404171,-0.128155 0.127252,-0.100133 0.206891,-0.199162 0.08017,-0.103488 0.149626,-0.230863 l 0.151182,0.192125 q -0.06696,0.125412 -0.151057,0.223909 -0.08213,0.100993 -0.219367,0.20898 -0.18963,0.149218 -0.397708,0.18771 -0.205583,0.03653 -0.40769,-0.05088 -0.201575,-0.09187 -0.376318,-0.313936 -0.17278,-0.219572 -0.224115,-0.433703 -0.04884,-0.216096 0.01665,-0.40499 0.06798,-0.190859 0.245135,-0.33026 z m 0.13887,0.181613 q -0.157193,0.123694 -0.169013,0.29864 -0.01129,0.170488 0.11261,0.363881 l 0.681171,-0.536009 q -0.136007,-0.167705 -0.295819,-0.211635 -0.161775,-0.04642 -0.328949,0.08512 z m 2.976397,0.244513 q -0.01678,-0.05463 -0.03612,-0.128404 -0.01934,-0.07377 -0.02609,-0.128165 l -0.01821,0.0056 q -0.03811,0.124634 -0.140167,0.2357 -0.09903,0.110133 -0.293268,0.169802 -0.294398,0.09043 -0.543865,-0.06211 -0.247364,-0.156513 -0.376024,-0.575347 -0.12866,-0.418834 -0.0088,-0.688158 0.121977,-0.273291 0.41941,-0.364658 0.191207,-0.05874 0.334984,-0.02319 0.143777,0.03555 0.249248,0.119398 l 0.01214,-0.0037 -0.0286,-0.233677 0.212452,-0.06526 0.723479,2.355183 -0.267082,0.08204 z m -0.530317,-0.08288 q 0.251908,-0.07738 0.313145,-0.245657 0.06334,-0.172243 -0.02126,-0.458468 l -0.01678,-0.05463 q -0.0951,-0.309573 -0.246768,-0.435695 -0.152604,-0.129158 -0.416651,-0.04805 -0.218523,0.06713 -0.271606,0.272754 -0.05402,0.202593 0.03455,0.490921 0.08857,0.288328 0.245141,0.419588 0.158674,0.127293 0.380231,0.05923 z m 4.546914,-1.14861 q 0.271502,0.09881 0.354727,0.287902 0.08431,0.186106 -0.02862,0.496395 l -0.378962,1.041258 -0.259568,-0.09447 0.374618,-1.029323 q 0.137903,-0.378911 -0.187304,-0.497269 -0.232716,-0.0847 -0.38302,0.01264 -0.14732,0.09843 -0.240704,0.355011 l -0.321411,0.88313 -0.259569,-0.09447 0.374618,-1.029323 q 0.137903,-0.378911 -0.190287,-0.498354 -0.241667,-0.08795 -0.38845,0.02756 -0.146782,0.115516 -0.248852,0.395969 l -0.301866,0.829426 -0.262552,-0.09555 0.582015,-1.599182 0.211832,0.0771 -0.04048,0.231915 0.01492,0.0054 q 0.120194,-0.09816 0.26722,-0.112228 0.151096,-0.01596 0.294306,0.03616 0.375927,0.136817 0.391575,0.446598 l 0.01492,0.0054 q 0.130505,-0.107926 0.291637,-0.123615 0.164115,-0.0146 0.31926,0.04186 z m 2.558861,2.151619 -1.260843,1.142977 -0.153535,-0.169367 0.139294,-0.181982 -0.0085,-0.0094 q -0.15424,0.0284 -0.299378,-0.03716 -0.142786,-0.06769 -0.253671,-0.190012 -0.206845,-0.228175 -0.203127,-0.44153 0.0061,-0.215487 0.246007,-0.432994 l 0.825664,-0.74848 0.189785,0.209357 -0.81155,0.735685 q -0.301097,0.27295 -0.04734,0.552876 0.189786,0.209356 0.379904,0.182714 0.192251,-0.02429 0.413369,-0.224737 l 0.656297,-0.594946 z m -0.893881,1.885698 -0.124699,-0.250029 2.159344,-1.076942 0.124698,0.250029 z m 0.548992,0.994445 q 0.01689,0.06121 0.0438,0.122954 0.02997,0.0609 0.05319,0.09731 l -0.205065,0.05657 q -0.03325,-0.03694 -0.06744,-0.113139 -0.03726,-0.07535 -0.05752,-0.148811 -0.03546,-0.128548 -0.02301,-0.250553 0.01636,-0.119789 0.107964,-0.217521 0.09161,-0.09773 0.290551,-0.152616 l 0.954926,-0.263446 -0.06417,-0.23261 0.128548,-0.03546 0.17214,0.206118 0.378468,0.01086 0.04391,0.159155 -0.376462,0.103858 0.130879,0.474403 -0.208125,0.05742 -0.130879,-0.474402 -0.948805,0.261756 q -0.149972,0.04138 -0.204008,0.132035 -0.05013,0.09288 -0.01889,0.206121 z"
       id="text3"
       aria-label="                    freq mult" />
    <path
       style="font-size:3.175px;font-family:'Noto Sans';-inkscape-font-specification:'Noto Sans';text-align:center;text-anchor:middle;display:inline;fill:#f9f9f9;stroke-width:0.265;stroke:#f9f9f9"
       d="m 9.809945,110.85093 q 0.230149,-0.21409 0.518843,-0.18343 0.291018,0.0285 0.5916,0.35164 0.296256,0.31849 0.307981,0.61545 0.01405,0.29481 -0.218424,0.51105 -0.144134,0.13408 -0.289184,0.16927 -0.144889,0.0307 -0.265394,0.008 l -0.01395,0.013 q 0.04141,0.0352 0.102284,0.0913 0.06087,0.0561 0.10196,0.10029 l 0.47574,0.51144 -0.204577,0.1903 -1.678065,-1.804 0.1673813,-0.1557 0.1857561,0.14376 0.0093,-0.009 q -0.019892,-0.13327 0.018874,-0.27339 0.038766,-0.14013 0.189874,-0.28069 z m 0.1228259,0.20663 q -0.1906287,0.17732 -0.1701969,0.35778 0.022757,0.1783 0.2213779,0.40115 l 0.036762,0.0395 q 0.214083,0.23015 0.405247,0.28649 0.191326,0.0519 0.395903,-0.13845 0.113913,-0.10596 0.127593,-0.23576 0.01601,-0.13197 -0.0486,-0.27135 -0.06444,-0.14386 -0.194187,-0.28334 -0.198946,-0.21388 -0.401572,-0.26389 -0.2003,-0.0522 -0.3723315,0.10785 z m 2.9245701,-1.06184 q 0.181424,0.38131 0.08604,0.68336 -0.09251,0.30069 -0.422221,0.45756 -0.20356,0.0969 -0.407765,0.0815 -0.202702,-0.0196 -0.37902,-0.1537 -0.177683,-0.13697 -0.299087,-0.39213 -0.181424,-0.38132 -0.08755,-0.67914 0.09388,-0.29782 0.423586,-0.45469 0.209294,-0.0996 0.411995,-0.08 0.204205,0.0153 0.377657,0.15082 0.174954,0.13124 0.296358,0.38641 z m -1.161149,0.55245 q 0.129589,0.27237 0.312058,0.38245 0.183972,0.10586 0.419069,-0.006 0.23223,-0.11049 0.266152,-0.32001 0.03256,-0.21239 -0.09703,-0.48476 -0.129588,-0.27237 -0.312196,-0.37535 -0.182609,-0.10299 -0.417705,0.009 -0.235097,0.11185 -0.267517,0.31714 -0.03242,0.20529 0.09717,0.47766 z m 2.243208,0.0749 -0.272155,0.0632 -0.545938,-2.35043 0.272155,-0.0632 z m 0.203837,-1.80045 0.298255,-0.0108 0.403055,0.95443 q 0.05218,0.1252 0.0945,0.24122 0.04221,0.11285 0.06503,0.21687 l 0.01269,-4.6e-4 q 0.01617,-0.08 0.05283,-0.20842 0.03654,-0.13158 0.07626,-0.26328 l 0.310969,-0.97708 0.301428,-0.0109 -0.662956,1.96199 q -0.08012,0.24436 -0.217741,0.3923 -0.134445,0.14783 -0.381934,0.15678 -0.07615,0.003 -0.133607,-0.005 -0.05734,-0.004 -0.09893,-0.0123 l -0.008,-0.22211 q 0.03513,0.005 0.08296,0.01 0.051,0.005 0.104936,0.003 0.145955,-0.005 0.231814,-0.091 0.08903,-0.0858 0.134864,-0.22409 l 0.0807,-0.22849 z m 4.454601,1.59508 q -0.153751,0.39329 -0.439221,0.53055 -0.282512,0.13841 -0.622575,0.005 -0.209952,-0.0821 -0.338555,-0.24144 -0.12449,-0.16117 -0.147443,-0.3815 -0.0218,-0.22329 0.08109,-0.48647 0.153751,-0.39329 0.435107,-0.52874 0.281357,-0.13546 0.62142,-0.003 0.215866,0.0844 0.340356,0.24556 0.128603,0.15936 0.148599,0.37854 0.02411,0.21737 -0.07878,0.48055 z m -1.197613,-0.46819 q -0.109821,0.28092 -0.06515,0.48929 0.04879,0.20657 0.291267,0.30136 0.239523,0.0936 0.415472,-0.0251 0.177106,-0.12167 0.286928,-0.40259 0.109821,-0.28092 0.05988,-0.48453 -0.04994,-0.20361 -0.292424,-0.2984 -0.242479,-0.0948 -0.414315,0.0221 -0.171837,0.11691 -0.281659,0.39783 z m 3.446591,1.06806 -1.068007,1.32494 -0.177978,-0.14346 0.109336,-0.20141 -0.0099,-0.008 q -0.147957,0.052 -0.301516,0.01 -0.151567,-0.0447 -0.280107,-0.14831 -0.239776,-0.19328 -0.269242,-0.40462 -0.02747,-0.21381 0.175766,-0.46595 l 0.699385,-0.86764 0.22,0.17734 -0.687429,0.85281 q -0.255047,0.3164 0.03911,0.55352 0.220001,0.17733 0.403674,0.12148 0.186144,-0.0538 0.373444,-0.28621 l 0.555921,-0.68967 z m -0.225536,2.08435 q 0.03831,0.0507 0.08613,0.0981 0.05035,0.0455 0.08538,0.0708 l -0.169656,0.12833 q -0.04454,-0.022 -0.10447,-0.0802 -0.06246,-0.0563 -0.10843,-0.11703 -0.08045,-0.10635 -0.11395,-0.22433 -0.02906,-0.11735 0.01996,-0.24202 0.04902,-0.12466 0.213611,-0.24916 l 0.790038,-0.5976 -0.14557,-0.19245 0.106352,-0.0804 0.236111,0.12794 0.355706,-0.12973 0.0996,0.13167 -0.311458,0.23559 0.296886,0.39249 -0.172188,0.13025 -0.296886,-0.39249 -0.784974,0.59377 q -0.124076,0.0939 -0.140794,0.19807 -0.01227,0.10482 0.0586,0.19851 z"
       id="text7"
       aria-label="                         poly out" />
    <path
       style="font-size:3.175px;font-family:'Noto Sans';-inkscape-font-specification:'Noto Sans';text-align:center;text-anchor:middle;fill:#f9f9f9;stroke-width:0.265;stroke:#f9f9f9"
       d="m 9.7587326,82.260512 q 0.1502022,-0.246814 0.3519534,-0.291288 0.199038,-0.04612 0.481111,0.125536 l 0.946571,0.57605 -0.1436,0.235964 -0.935722,-0.569447 q -0.344454,-0.209623 -0.5243664,0.08601 -0.1287447,0.211554 -0.062814,0.378046 0.067582,0.16378 0.3008339,0.305729 l 0.802823,0.48857 -0.1436,0.235964 L 9.8962009,83.2622 q -0.3444542,-0.209623 -0.5260172,0.08872 -0.1336965,0.219691 -0.049252,0.386299 0.084444,0.166608 0.3393944,0.321762 l 0.7540022,0.458859 -0.145251,0.238677 -1.4537589,-0.884707 0.1171907,-0.192569 0.2194508,0.08523 0.00825,-0.01356 q -0.07265,-0.13713 -0.05757,-0.284056 0.014018,-0.151288 0.093245,-0.281475 0.2079722,-0.341742 0.5147954,-0.296256 l 0.00825,-0.01356 q -0.080198,-0.149157 -0.06394,-0.310232 0.017908,-0.163788 0.1037375,-0.304824 z M 12.85174,80.870753 q 0.218033,0.361632 0.152811,0.671597 -0.0625,0.308327 -0.375192,0.496852 -0.193052,0.116393 -0.397777,0.121188 -0.203646,4.36e-4 -0.392295,-0.115686 -0.190288,-0.11884 -0.33619,-0.360834 -0.218033,-0.361632 -0.153891,-0.667239 0.06414,-0.305607 0.376832,-0.494132 0.19849,-0.119672 0.402135,-0.120108 0.204726,-0.0048 0.390655,0.112966 0.18701,0.113402 0.332912,0.355396 z m -1.10121,0.663936 q 0.155738,0.258309 0.348146,0.349919 0.193487,0.08725 0.416448,-0.04717 0.220242,-0.132787 0.233402,-0.344629 0.01152,-0.214562 -0.144219,-0.47287 -0.155738,-0.258309 -0.347586,-0.342841 -0.191848,-0.08453 -0.414809,0.04989 -0.222961,0.134427 -0.235041,0.341911 -0.01208,0.207484 0.143659,0.465792 z m 2.577968,-0.141026 q -0.31339,0.05092 -0.536561,-0.13476 -0.22368,-0.188819 -0.293956,-0.621296 -0.07027,-0.432478 0.08211,-0.682405 0.155011,-0.25357 0.468401,-0.304494 0.194301,-0.03157 0.328236,0.02065 0.137068,0.05171 0.23222,0.142398 l 0.0188,-0.0031 q -0.0098,-0.04023 -0.03189,-0.117051 -0.01951,-0.08046 -0.02715,-0.127471 l -0.108977,-0.670654 0.275783,-0.04481 0.387023,2.38176 -0.222507,0.03616 -0.07741,-0.21902 -0.01253,0.002 q -0.0579,0.118774 -0.171034,0.214357 -0.113134,0.09558 -0.310569,0.127666 z m 0.0067,-0.235904 q 0.266381,-0.04328 0.349508,-0.204759 0.08575,-0.165116 0.03788,-0.459702 l -0.0081,-0.05014 q -0.05092,-0.313389 -0.181333,-0.462681 -0.130917,-0.152425 -0.409834,-0.107103 -0.222506,0.03616 -0.3063,0.233121 -0.08117,0.193322 -0.03279,0.491042 0.04889,0.300854 0.185563,0.449127 0.13981,0.147763 0.365451,0.111098 z m 3.10693,-1.251373 -0.3786,1.659152 -0.222871,-0.05086 0.0099,-0.228958 -0.01238,-0.0028 q -0.110148,0.111643 -0.266665,0.14106 -0.15581,0.02632 -0.316773,-0.01041 -0.300257,-0.06852 -0.419441,-0.245516 -0.118478,-0.180096 -0.04643,-0.49583 l 0.247927,-1.086497 0.275494,0.06286 -0.243689,1.067925 q -0.09041,0.396215 0.277944,0.48027 0.275494,0.06287 0.416056,-0.06789 0.143657,-0.13005 0.210053,-0.42102 l 0.19707,-0.863626 z m 0.347683,2.057672 -0.245448,-0.133489 1.152865,-2.119781 0.245448,0.133489 z m 2.690061,0.0322 -1.186987,1.219503 -0.163813,-0.159446 0.127653,-0.190327 -0.0091,-0.0089 q -0.152165,0.03798 -0.301115,-0.01838 -0.146735,-0.05864 -0.265045,-0.173795 -0.220693,-0.214809 -0.230309,-0.42798 -0.0074,-0.215446 0.21848,-0.447515 l 0.777298,-0.798593 0.202493,0.197093 -0.764012,0.784941 q -0.283459,0.291225 -0.01271,0.554754 0.202492,0.197093 0.390575,0.158627 0.190358,-0.03625 0.398524,-0.250119 l 0.617853,-0.634779 z m 0.01475,2.473854 q -0.222337,0.109072 -0.417461,-3.22e-4 -0.195124,-0.109394 -0.332162,-0.388741 -0.07831,-0.159627 -0.109986,-0.289082 -0.03028,-0.126604 -0.02802,-0.237343 l 0.228039,-0.111868 q -8.61e-4,0.113589 0.02216,0.261438 0.02727,0.1493 0.09299,0.283273 0.09369,0.190982 0.1955,0.247131 0.104661,0.05475 0.207278,0.0044 0.05701,-0.02797 0.08724,-0.0817 0.03023,-0.05373 0.03528,-0.158766 0.0065,-0.102187 -0.01065,-0.28123 -0.01571,-0.176192 -0.01043,-0.309627 0.0053,-0.133434 0.05712,-0.229598 0.05185,-0.09616 0.177268,-0.157691 0.193832,-0.09509 0.376209,0.01 0.183776,0.107888 0.309627,0.364431 0.06852,0.139674 0.09875,0.273377 0.03447,0.135156 0.03775,0.264396 l -0.241484,0.01237 q -0.0076,-0.116493 -0.03087,-0.235945 -0.02323,-0.119451 -0.07777,-0.23062 -0.07551,-0.153926 -0.167372,-0.211419 -0.08761,-0.05604 -0.173126,-0.01409 -0.06271,0.03076 -0.09014,0.09019 -0.02458,0.05803 -0.02538,0.164522 0.0034,0.107941 0.01775,0.281283 0.01716,0.171943 0.01049,0.302528 -0.0067,0.130584 -0.06276,0.225295 -0.05325,0.09331 -0.175816,0.153442 z"
       id="text6"
       aria-label="                   modulus" />
    <path
       style="font-size:3.175px;font-family:'Noto Sans';-inkscape-font-specification:'Noto Sans';text-align:center;text-anchor:middle;fill:#f9f9f9;stroke-width:0.265;stroke:#f9f9f9"
       d="m 22.052583,55.651436 q -0.05033,0.242482 -0.256449,0.329406 -0.206118,0.08692 -0.510774,0.02369 -0.174089,-0.03613 -0.29574,-0.09057 -0.118542,-0.05379 -0.204589,-0.123533 l 0.05162,-0.248699 q 0.08916,0.07039 0.220015,0.142948 0.134613,0.0701 0.280724,0.100424 0.208285,0.04323 0.315098,-0.0027 0.107458,-0.04903 0.130688,-0.160949 0.0129,-0.06217 -0.01097,-0.119012 -0.02387,-0.05684 -0.1037,-0.125291 -0.07672,-0.06781 -0.228578,-0.164181 -0.148749,-0.09573 -0.250867,-0.181779 -0.102118,-0.08605 -0.146225,-0.186 -0.04411,-0.09995 -0.01572,-0.236734 0.04388,-0.211394 0.238734,-0.290928 0.197965,-0.07889 0.477751,-0.02081 0.152328,0.03162 0.276443,0.08981 0.127868,0.05573 0.231922,0.132449 l -0.138432,0.198254 q -0.09666,-0.06546 -0.205233,-0.120424 -0.108571,-0.05496 -0.229812,-0.08013 -0.167872,-0.03485 -0.26964,0.0024 -0.09801,0.03478 -0.117372,0.128043 -0.0142,0.06839 0.01589,0.12652 0.03073,0.05502 0.114318,0.121009 0.08734,0.06353 0.232977,0.158609 0.146285,0.09197 0.245295,0.17738 0.09901,0.0854 0.139362,0.187818 0.041,0.09931 0.01325,0.23298 z m 0.87379,0.98099 q -0.197355,-0.108938 -0.30852,-0.27547 -0.108385,-0.164998 -0.103739,-0.383656 0.0074,-0.217123 0.153187,-0.481189 0.151899,-0.275185 0.338757,-0.39689 0.186857,-0.121705 0.387013,-0.116392 0.202935,0.0068 0.40307,0.117319 0.113966,0.06291 0.205783,0.14623 0.09335,0.08054 0.141652,0.150721 l -0.187057,0.161488 q -0.0529,-0.06184 -0.129577,-0.133177 -0.07667,-0.07134 -0.154504,-0.114298 -0.439184,-0.242425 -0.750655,0.321844 -0.14883,0.269626 -0.122989,0.472472 0.03016,0.201601 0.241408,0.318211 0.122305,0.06751 0.227842,0.09313 0.108317,0.02715 0.206094,0.03398 l -0.119678,0.216813 q -0.09653,-0.0025 -0.199,-0.03369 -0.101224,-0.02686 -0.229087,-0.09744 z m 2.433935,-0.252496 q 0.210055,0.229545 0.210077,0.4318 2.2e-5,0.202256 -0.220154,0.403737 l -0.85494,0.782349 -0.137179,-0.149907 0.141577,-0.202719 -0.0086,-0.0094 q -0.178081,0.01233 -0.310862,-0.03401 -0.130639,-0.044 -0.276391,-0.203272 -0.15647,-0.170988 -0.170347,-0.364868 -0.01153,-0.196024 0.180534,-0.371785 0.187384,-0.171473 0.423139,-0.116076 0.238096,0.05326 0.528254,0.351522 l 0.202078,0.206719 0.07495,-0.06859 q 0.156934,-0.143609 0.155674,-0.267265 -0.0013,-0.123656 -0.114861,-0.247798 -0.09002,-0.09838 -0.201923,-0.159519 -0.109558,-0.06329 -0.217767,-0.106288 l 0.09672,-0.204708 q 0.119523,0.04126 0.252858,0.125822 0.135676,0.08242 0.247134,0.204222 z m -0.614169,0.673918 q -0.223711,-0.225656 -0.372889,-0.25699 -0.147035,-0.02899 -0.266492,0.08032 -0.105403,0.09645 -0.09672,0.204708 0.01083,0.110596 0.102994,0.211315 0.145753,0.159276 0.328872,0.185373 0.185462,0.02395 0.368161,-0.143233 l 0.11243,-0.102884 z m 0.132836,1.660788 -0.130292,-0.247161 2.134568,-1.12525 0.130292,0.247161 z m 2.085053,0.734619 q 0.04957,0.213394 -0.008,0.386486 -0.05686,0.176184 -0.208278,0.296105 -0.147607,0.122295 -0.373371,0.174738 l -0.163911,0.03807 -0.263651,-1.135006 q -0.279995,0.07156 -0.396833,0.242119 -0.113027,0.172935 -0.05556,0.420347 0.03664,0.157726 0.09249,0.271874 0.05966,0.116522 0.145502,0.233483 l -0.238134,0.05532 q -0.08512,-0.113868 -0.138599,-0.231827 -0.05657,-0.117241 -0.09608,-0.287337 -0.0546,-0.235042 -0.0011,-0.439779 0.0542,-0.201644 0.21915,-0.347524 0.168756,-0.143506 0.444003,-0.207443 0.272154,-0.06322 0.487825,-0.01879 0.216389,0.04752 0.359614,0.187006 0.143944,0.142578 0.19495,0.362157 z m -0.22339,0.04863 q -0.04526,-0.194838 -0.198638,-0.279812 -0.149569,-0.0826 -0.377269,-0.05252 l 0.196122,0.844296 q 0.209582,-0.05194 0.317204,-0.177989 0.110714,-0.126763 0.06258,-0.333971 z"
       id="text5"
       aria-label="                             scale" />
    <path
       style="font-size:3.175px;font-family:'Noto Sans';-inkscape-font-specification:'Noto Sans';text-align:center;text-anchor:middle;display:inline;fill:#f9f9f9;stroke-width:0.265;stroke:#f9f9f9"
       d="m 4.5847938,58.779908 q 0.4101145,0.100609 0.5837756,0.365513 0.1744175,0.261821 0.087425,0.616431 -0.053709,0.218934 -0.1947448,0.367407 -0.1433631,0.144633 -0.3587511,0.196406 -0.2184715,0.05102 -0.4929091,-0.01631 -0.4101145,-0.100609 -0.5814485,-0.361673 -0.171334,-0.261065 -0.084341,-0.615675 0.055222,-0.2251 0.1985848,-0.369733 0.141036,-0.148473 0.3556675,-0.197163 0.2123045,-0.05253 0.486742,0.01479 z m -0.3063669,1.248845 q 0.292939,0.07186 0.4936078,1.33e-4 0.1983418,-0.07557 0.2603716,-0.328422 0.061273,-0.249769 -0.079577,-0.40855 -0.1439343,-0.159538 -0.4368732,-0.231402 -0.2929389,-0.07186 -0.4881971,0.0045 -0.1952582,0.07633 -0.2572881,0.329179 -0.06203,0.252853 0.076494,0.407794 0.1385236,0.154941 0.4314625,0.226805 z m 0.6113804,-2.985067 -0.2576468,0.342546 1.1874918,0.893175 -0.1679475,0.223289 -1.1874918,-0.893175 -0.1793984,0.238513 -0.1040324,-0.07825 0.1032772,-0.295768 -0.078659,-0.05916 q -0.263887,-0.198484 -0.2902782,-0.401085 -0.028928,-0.20451 0.127568,-0.412575 0.061072,-0.0812 0.1259169,-0.135717 0.064216,-0.05897 0.1182393,-0.09382 l 0.1311835,0.190045 q -0.043223,0.03106 -0.095988,0.0748 -0.052765,0.04374 -0.094752,0.09956 -0.083974,0.111645 -0.049839,0.224722 0.033506,0.108631 0.1933602,0.228866 l 0.088808,0.0668 0.2576467,-0.342545 z m 0.656522,-0.872857 -0.2576467,0.342546 1.1874917,0.893175 -0.1679475,0.223289 -1.1874917,-0.893175 -0.1793985,0.238513 -0.1040324,-0.07825 0.1032772,-0.295768 -0.078659,-0.05916 q -0.2638871,-0.198483 -0.2902783,-0.401085 -0.028928,-0.20451 0.127568,-0.412574 0.061072,-0.0812 0.1259169,-0.135717 0.064216,-0.05897 0.1182393,-0.09382 l 0.1311835,0.190046 q -0.043223,0.03106 -0.095988,0.0748 -0.052765,0.04374 -0.094752,0.09956 -0.083974,0.111644 -0.049839,0.224721 0.033505,0.108632 0.1933602,0.228867 l 0.088808,0.0668 0.2576467,-0.342546 z M 7.730106,55.932245 q 0.13176,0.20969 0.043406,0.415198 -0.088354,0.205509 -0.3518105,0.371053 -0.1505465,0.0946 -0.2759712,0.139661 -0.1227363,0.04337 -0.2331022,0.05273 l -0.1351384,-0.21507 q 0.1130543,-0.01104 0.2576784,-0.04942 0.1456232,-0.04276 0.2719748,-0.122151 0.1801182,-0.113178 0.2252943,-0.22031 0.043487,-0.10982 -0.017326,-0.2066 -0.033785,-0.05377 -0.090384,-0.0782 -0.056599,-0.02443 -0.1615887,-0.01846 -0.1023009,0.0043 -0.2785671,0.04005 -0.1735778,0.03407 -0.3068307,0.04281 -0.1332528,0.0087 -0.2343179,-0.03275 -0.1010651,-0.04149 -0.1753913,-0.159776 -0.1148677,-0.182806 -0.029511,-0.375182 0.088045,-0.194065 0.3299948,-0.346096 0.1317282,-0.08277 0.2615304,-0.126837 0.1308014,-0.04844 0.2589865,-0.06524 l 0.037596,0.23886 q -0.1150525,0.0198 -0.2314131,0.05542 -0.1163605,0.03562 -0.2212055,0.101498 -0.1451698,0.09122 -0.1927253,0.188596 -0.046556,0.093 0.00412,0.17365 0.037163,0.05914 0.099139,0.0802 0.060287,0.01837 0.1662751,0.008 0.1069875,-0.01473 0.277877,-0.04711 0.1692003,-0.03507 0.2997648,-0.04212 0.1305646,-0.007 0.2306305,0.03882 0.098377,0.04318 0.1710137,0.158776 z M 8.6052287,54.32614 q 0.2130601,-0.05098 0.3865302,0.0054 0.1765579,0.05569 0.2974801,0.20631 0.1232712,0.146793 0.17721,0.372204 L 9.50561,55.073709 8.3723777,55.34488 q 0.073414,0.279515 0.2447453,0.395219 0.1736799,0.111878 0.420706,0.05277 0.1574791,-0.03768 0.2712543,-0.09429 0.1161242,-0.06043 0.232513,-0.147048 l 0.056894,0.237763 q -0.1133009,0.08587 -0.2309028,0.140133 -0.1168631,0.05735 -0.2866935,0.09799 -0.2346748,0.05615 -0.4397621,0.004 Q 8.4391327,55.978615 8.2921623,55.814641 8.1475409,55.64684 8.08178,55.372023 8.016758,55.100294 8.0597551,54.884334 8.10584,54.667634 8.2443726,54.523487 8.3859931,54.378601 8.6052287,54.32614 Z m 0.050112,0.223062 q -0.1945331,0.04655 -0.2784883,0.20049 -0.081606,0.150113 -0.050021,0.377609 L 9.1698079,54.925584 Q 9.1164757,54.716351 8.9897199,54.609568 8.8622251,54.499697 8.6553407,54.549202 Z m 2.0559563,1.156131 q 0.06341,0.0034 0.1305,-0.0024 0.06727,-0.0091 0.10917,-0.0195 l -0.01155,0.212411 q -0.04559,0.01978 -0.128708,0.02798 -0.08329,0.01137 -0.159378,0.0072 -0.133154,-0.0072 -0.244872,-0.05783 -0.108375,-0.05359 -0.171916,-0.171512 -0.06354,-0.117924 -0.05234,-0.323994 l 0.05378,-0.989139 -0.2409438,-0.0131 0.00724,-0.133153 0.250148,-0.09769 0.130612,-0.355383 0.164857,0.009 -0.0212,0.389949 0.491399,0.02672 -0.01172,0.215582 -0.491399,-0.02672 -0.05344,0.982798 q -0.0084,0.155346 0.06033,0.235398 0.07212,0.07706 0.189425,0.08343 z"
       id="text4"
       aria-label="           offset" />
    <path
       id="circle7"
       style="display:inline;fill:none;stroke:#f9f9f9;stroke-width:1.065;stroke-opacity:1;stroke-dasharray:none"
       d="M 20.67809 113.56132 A 6.3500004 6.3500004 0 0 1 21.590001 116.84 L 21.590001 116.84 A 6.3500004 6.3500004 0 0 1 15.240001 123.19 A 6.3500004 6.3500004 0 0 1 8.8900003 116.84 A 6.3500004 6.3500004 0 0 1 9.8048885 113.55639 " />
    <circle
       style="display:inline;fill:none;stroke-width:0.465;stroke:#999999;stroke-opacity:1;stroke-dasharray:none"
       id="circle8"
       cx="15.240001"
       cy="99.060005"
       r="5.0799994"
       inkscape:label="modulus_socket ring" />
    <ellipse
       style="display:inline;fill:none;stroke-width:0.465;stroke:#999999;stroke-opacity:1;stroke-dasharray:none"
       id="ellipse7"
       cx="15.240001"
       cy="48.260002"
       rx="5.079999"
       ry="5.0307717"
       inkscape:label="scale_y_socket ring" />
  </g>
  <g
     inkscape:groupmode="layer"
     id="layer2"
     inkscape:label="components"
     style="display:none">
    <circle
       style="fill:#0000ff;stroke-width:0.264999"
       id="polyphonic"
       cx="15.240001"
       cy="116.84"
       r="5.0799994"
       inkscape:label="polyphonic">
      <title
         id="title37">Polyphonic Output</title>
    </circle>
    <circle
       style="display:inline;fill:#00ff00;stroke-width:0.264999"
       id="modulus_socket"
       cx="15.240001"
       cy="99.060005"
       r="5.0799994"
       inkscape:label="modulus_socket">
      <title
         id="title36">Modulus Socket</title>
    </circle>
    <circle
       style="fill:#ff0000;stroke-width:0.264999"
       id="modulus_knob"
       cx="15.240001"
       cy="86.360008"
       r="5.0799994"
       inkscape:label="modulus_knob">
      <title
         id="title35">Modulus Knob</title>
    </circle>
    <circle
       style="fill:#00ff00;stroke-width:0.264999"
       id="offset_socket"
       cx="10.160001"
       cy="73.660004"
       r="5.0799994"
       inkscape:label="offset_socket">
      <title
         id="title32">Offset Socket</title>
    </circle>
    <circle
       style="display:inline;fill:#ff0000;stroke-width:0.264999"
       id="offset_knob"
       cx="10.160001"
       cy="60.960003"
       r="5.0799994"
       inkscape:label="offset_knob">
      <title
         id="title31">Offset Knob</title>
    </circle>
    <circle
       style="fill:#00ff00;stroke-width:0.264999"
       id="scale_socket"
       cx="20.320002"
       cy="73.660004"
       r="5.0799994"
       inkscape:label="scale_socket">
      <title
         id="title34">Scale Socket</title>
    </circle>
    <circle
       style="display:inline;fill:#ff0000;stroke-width:0.264999"
       id="scale_knob"
       cx="20.320002"
       cy="60.960003"
       r="5.0799994"
       inkscape:label="scale_knob">
      <title
         id="title33">Scale Knob</title>
    </circle>
    <ellipse
       style="display:inline;fill:#00ff00;stroke-width:0.264999"
       id="scale_y_socket"
       cx="15.240001"
       cy="48.260002"
       rx="5.079999"
       ry="5.0307717"
       inkscape:label="scale_y_socket">
      <title
         id="title30">Scale Y Socket</title>
    </ellipse>
    <circle
       style="display:inline;fill:#ff0000;stroke-width:0.264999"
       id="scale_y_knob"
       cx="15.240001"
       cy="35.560001"
       r="5.0799994"
       inkscape:label="scale_y_knob">
      <title
         id="title29">Scale Y Knob</title>
    </circle>
    <circle
       style="display:inline;fill:#00ff00;stroke-width:0.264999"
       id="end_voltage_socket"
       cx="20.320002"
       cy="22.810772"
       r="5.0799994"
       inkscape:label="end_voltage_socket">
      <title
         id="title28">End Voltage Socket</title>
    </circle>
    <circle
       style="display:inline;fill:#ff0000;stroke-width:0.264999"
       id="end_voltage_knob"
       cx="20.32"
       cy="10.159999"
       r="5.0799994"
       inkscape:label="end_voltage_knob">
      <title
         id="title26">End Voltage Knob</title>
    </circle>
    <circle
       style="display:inline;fill:#00ff00;stroke-width:0.264999"
       id="start_voltage_socket"
       cx="10.160001"
       cy="22.860001"
       r="5.0799994"
       inkscape:label="start_voltage_socket">
      <title
         id="title27">Start Voltage Socket</title>
    </circle>
    <circle
       style="fill:#ff0000;stroke-width:0.264999"
       id="start_voltage_knob"
       cx="10.16"
       cy="10.159999"
       r="5.0799994"
       inkscape:label="start_voltage_knob">
      <title
         id="title25">Start Voltage Knob</title>
    </circle>
  </g>
  <metadata
     id="metadata1">
    <rdf:RDF>
      <cc:Work
         rdf:about="">
        <cc:license
           rdf:resource="https://www.gnu.org/licenses/gpl-3.0-standalone.html" />
      </cc:Work>
    </rdf:RDF>
  </metadata>
</svg>
